<?xml version="1.0" standalone="no"?>
<!DOCTYPE svg PUBLIC "-//W3C//DTD SVG 20010904//EN"
 "http://www.w3.org/TR/2001/REC-SVG-20010904/DTD/svg10.dtd">
<svg version="1.0" xmlns="http://www.w3.org/2000/svg"
 width="246.000000pt" height="345.000000pt" viewBox="0 0 246.000000 345.000000"
 preserveAspectRatio="xMidYMid meet">

<g transform="translate(0.000000,345.000000) scale(0.100000,-0.100000)"
fill="#000000" stroke="none">
<path d="M10 1725 l0 -1715 1220 0 1220 0 0 1715 0 1715 -1220 0 -1220 0 0
-1715z m440 1609 c52 -21 80 -60 80 -113 0 -36 -3 -41 -24 -41 -13 0 -38 -3
-55 -6 -29 -6 -31 -5 -31 23 0 61 -57 95 -96 56 -15 -15 -16 -32 -10 -138 9
-155 14 -183 38 -196 28 -15 67 -3 77 24 4 12 6 39 3 60 -4 36 -6 38 -32 32
-24 -5 -28 -2 -34 21 -4 15 -3 30 1 34 4 4 45 10 90 14 l81 6 8 -87 c14 -163
13 -168 -20 -171 -19 -2 -32 2 -38 12 -8 14 -11 14 -29 -3 -35 -33 -125 -41
-183 -17 -52 22 -68 68 -79 231 -4 77 -6 154 -2 172 6 33 47 73 95 92 38 15
115 13 160 -5z m635 -1 c6 -17 7 -17 20 0 13 18 15 18 48 2 82 -39 97 -82 97
-277 l0 -150 -33 -33 c-39 -39 -100 -58 -164 -51 -61 7 -75 22 -44 47 13 10
18 19 13 19 -6 0 -14 -5 -18 -11 -3 -6 -17 -9 -30 -6 -20 3 -22 2 -13 -9 21
-25 -10 -16 -36 11 -24 23 -31 58 -28 135 1 14 2 72 3 129 2 136 22 177 100
199 53 15 77 14 85 -5z m815 -6 c54 -26 85 -80 75 -127 -6 -29 -9 -30 -61 -30
l-54 0 0 34 c0 56 -59 86 -93 48 -13 -14 -17 -47 -19 -166 -3 -137 -2 -149 16
-162 46 -33 96 1 96 66 0 38 -2 40 -30 40 -23 0 -31 5 -36 26 -4 14 -2 30 3
35 6 6 45 9 89 7 l79 -3 5 -115 c3 -63 8 -110 13 -103 4 7 15 99 23 205 19
220 27 252 64 244 14 -2 71 -10 127 -17 90 -11 102 -14 105 -33 8 -43 -2 -58
-30 -51 -15 4 -53 9 -84 11 l-57 4 -6 -45 c-10 -61 -3 -72 47 -80 73 -11 75
-12 70 -45 -4 -29 -6 -30 -46 -25 -22 3 -50 6 -61 8 -17 2 -21 -6 -29 -54 -13
-84 -9 -89 71 -89 37 0 78 -3 90 -6 20 -6 21 -8 9 -26 -8 -11 -12 -28 -9 -37
4 -14 3 -14 -7 -1 -9 11 -13 12 -17 3 -6 -15 -63 -16 -118 -2 -46 11 -142 15
-152 5 -13 -13 -62 -5 -72 12 -8 12 -13 14 -19 5 -22 -34 -129 -44 -186 -16
-57 27 -66 59 -66 235 0 126 3 159 18 188 38 76 158 103 252 57z m-1117 -17
c56 0 68 -3 64 -14 -3 -8 -2 -16 3 -18 5 -2 7 -12 4 -24 -5 -18 -11 -20 -47
-15 -23 4 -60 4 -82 1 l-40 -5 -3 -53 c-3 -60 0 -62 75 -65 46 -2 48 -3 51
-34 l3 -33 -66 0 -66 0 3 -67 3 -68 85 0 c72 0 85 -3 88 -17 2 -9 -6 -26 -17
-37 -17 -17 -34 -21 -92 -21 -39 0 -79 5 -90 10 -13 7 -19 7 -19 0 0 -5 -15
-10 -32 -10 l-33 0 0 225 c0 124 3 225 8 225 4 0 7 7 7 16 0 15 9 16 61 10 34
-3 93 -6 132 -6z m737 -23 c89 -31 108 -175 31 -229 -20 -14 -20 -15 5 -82 13
-37 24 -75 24 -86 0 -10 7 -25 15 -33 20 -21 9 -27 -50 -27 l-52 0 -24 86
c-28 101 -39 120 -64 110 -16 -6 -17 -16 -12 -101 l5 -95 -54 0 -55 0 2 90 c1
50 6 90 11 90 5 0 4 9 -2 19 -5 11 -10 76 -10 145 l0 126 98 -1 c53 0 113 -5
132 -12z m-1122 -536 c29 18 87 -21 113 -76 18 -38 20 -59 17 -193 -3 -166
-11 -190 -74 -222 -29 -15 -176 -22 -188 -9 -11 11 5 38 26 45 11 3 17 8 15
10 -2 3 -16 0 -29 -7 -20 -8 -31 -8 -49 1 l-24 13 25 -28 c21 -23 22 -26 5
-17 -11 5 -28 19 -38 30 -22 24 -37 110 -25 142 5 13 9 66 9 118 1 145 27 189
121 201 40 6 56 4 65 -6 9 -12 15 -12 31 -2z m1207 -21 c91 0 106 -2 114 -18
6 -10 8 -28 5 -38 -5 -18 -14 -20 -87 -19 l-82 0 -3 -57 c-3 -57 -3 -58 25
-60 15 -1 40 -1 54 0 32 2 52 -19 47 -49 -3 -21 -7 -23 -65 -20 l-63 2 0 -70
0 -71 85 0 c70 0 87 -3 92 -16 4 -10 0 -20 -10 -26 -10 -5 -17 -16 -17 -23 0
-17 -75 -20 -147 -6 -24 5 -40 4 -37 0 6 -11 -47 -12 -61 -1 -6 4 -10 92 -11
227 0 184 2 222 15 237 9 10 22 16 29 13 8 -3 60 -5 117 -5z m246 -23 c4 -5 4
-37 1 -69 -4 -45 -1 -62 9 -69 11 -7 11 -9 1 -9 -9 0 -13 -12 -11 -38 2 -21 0
-43 -4 -49 -4 -7 -2 -15 5 -20 14 -9 14 -10 17 -78 l1 -44 83 -3 82 -3 3 -32
c4 -36 -11 -43 -48 -23 -30 16 -110 17 -119 1 -6 -9 -11 -10 -15 -2 -5 7 -22
9 -44 5 l-37 -6 -2 56 c-1 31 -3 75 -5 99 -2 23 0 49 4 59 4 9 3 30 -3 48 -9
24 -8 37 1 55 10 19 10 28 1 39 -13 16 -10 64 5 74 6 4 13 15 17 25 6 15 10
16 29 6 13 -7 26 -16 29 -22z m-827 15 c2 -4 12 -60 21 -123 9 -62 21 -118 25
-123 4 -4 14 18 20 50 7 33 17 75 23 94 14 44 14 45 16 74 1 19 8 25 37 30 45
9 67 -8 62 -46 -3 -15 -1 -28 2 -28 6 0 14 -29 24 -95 1 -5 5 -17 9 -25 3 -8
7 -28 9 -45 l3 -30 21 43 c12 24 20 52 17 62 -3 13 0 20 8 20 10 0 10 3 1 12
-8 8 -8 17 -1 30 5 10 7 23 4 28 -4 6 -4 23 0 38 5 26 10 28 53 29 l48 1 -2
-34 c-3 -33 -38 -127 -57 -151 -7 -9 -5 -13 6 -13 12 0 13 -7 6 -37 -5 -21
-12 -60 -15 -88 -4 -27 -12 -70 -18 -95 -11 -43 -12 -45 -51 -48 -64 -4 -70 5
-68 103 1 47 -3 85 -7 85 -5 0 -7 6 -4 13 2 7 -6 25 -19 39 l-24 26 -13 -39
c-7 -21 -16 -39 -19 -39 -4 0 -12 -13 -18 -30 -6 -16 -7 -30 -2 -30 5 0 9 7 9
15 0 8 4 15 10 15 13 0 1 -29 -22 -52 -12 -12 -18 -30 -16 -46 2 -17 -2 -26
-10 -24 -6 1 -12 -3 -12 -9 0 -6 -7 -9 -15 -6 -8 4 -17 2 -20 -3 -3 -4 1 -11
7 -13 9 -4 8 -6 -2 -6 -37 -2 -47 29 -89 264 -5 28 -12 57 -15 65 -3 8 -7 31
-10 50 -2 19 -7 43 -11 53 -13 32 2 47 49 47 25 0 47 -4 50 -8z m1100 -6 c7 3
11 -18 12 -66 1 -43 7 -77 15 -87 12 -14 12 -15 0 -9 -10 7 -12 2 -5 -25 4
-19 8 -43 8 -54 0 -11 4 -23 8 -26 5 -3 12 -32 15 -63 l6 -58 82 7 c80 6 82 6
88 -17 4 -13 7 -28 7 -34 0 -17 -38 -24 -50 -10 -14 18 -105 12 -135 -8 -31
-21 -41 -20 -24 1 13 15 12 15 -8 5 -34 -19 -55 -15 -48 7 3 11 1 22 -5 26 -8
5 -8 11 1 21 9 11 8 18 -4 32 -11 12 -15 35 -14 80 1 34 -2 62 -7 62 -5 0 -6
24 -2 54 5 43 3 55 -9 60 -17 6 -21 66 -5 66 6 0 10 9 10 19 0 20 28 33 44 20
5 -4 14 -5 20 -3z m-1342 -7 c50 -13 74 -38 88 -88 14 -53 -1 -113 -36 -140
-25 -19 -25 -22 -13 -58 7 -21 14 -40 14 -43 1 -3 7 -18 13 -33 7 -16 12 -34
12 -40 0 -7 7 -23 16 -35 l16 -23 -62 3 -62 3 -25 85 c-26 93 -45 122 -65 102
-12 -12 -14 -113 -3 -164 l7 -28 -62 0 -62 0 4 80 c2 56 8 84 17 90 11 6 12
12 3 22 -8 11 -18 207 -13 270 1 10 171 9 213 -3z m987 -618 c8 -5 11 -106 9
-367 l-3 -359 -83 -3 c-49 -2 -80 -7 -77 -12 4 -6 -3 -10 -14 -10 -10 0 -21 4
-23 9 -2 5 -43 6 -95 2 -53 -3 -93 -2 -93 3 0 4 -6 3 -14 -3 -10 -8 -16 -9
-21 -1 -9 14 -21 13 -39 -6 -9 -8 -16 -11 -16 -6 0 12 -69 21 -76 10 -3 -5
-13 -6 -22 -4 -37 12 -137 14 -149 4 -9 -7 -13 -7 -13 1 0 6 -16 11 -37 11
-28 0 -34 -3 -23 -10 13 -8 12 -10 -2 -10 -10 0 -18 4 -18 9 0 12 -162 12
-177 -1 -7 -5 -17 -7 -23 -3 -6 4 -36 7 -66 6 l-55 0 3 369 3 370 370 3 c689
5 742 5 754 -2z m224 -85 c-59 -72 -165 -177 -171 -171 -4 4 20 32 53 62 33
31 60 60 60 65 0 8 74 77 83 78 2 0 -9 -16 -25 -34z m-1518 -37 c-3 -4 23 -32
57 -63 34 -31 58 -59 54 -63 -9 -9 -121 102 -146 145 l-19 32 29 -22 c16 -11
27 -25 25 -29z m-85 -239 c0 -5 -6 -10 -14 -10 -8 0 -18 5 -21 10 -3 6 3 10
14 10 12 0 21 -4 21 -10z m1665 0 c-3 -5 -13 -10 -21 -10 -8 0 -14 5 -14 10 0
6 9 10 21 10 11 0 17 -4 14 -10z m-1505 -20 c26 -16 6 -18 -65 -5 l-70 13 60
1 c33 0 67 -3 75 -9z m1425 0 c-90 -17 -125 -20 -125 -11 0 9 53 16 135 18 23
1 21 -1 -10 -7z m-1416 -147 c0 -10 -133 -111 -156 -120 -10 -3 -30 -17 -45
-31 -16 -14 -28 -23 -28 -19 0 12 73 72 83 69 5 -1 36 22 68 53 56 51 80 66
78 48z m1372 -54 c31 -27 58 -46 61 -44 3 3 13 -4 23 -15 19 -21 19 -21 -8
-11 -32 12 -157 111 -157 123 0 13 17 2 81 -53z m140 -106 c13 -17 13 -17 -6
-3 -11 8 -22 16 -24 17 -2 2 0 3 6 3 6 0 17 -8 24 -17z m-331 -68 c-15 -18
-36 -19 -46 -3 -4 6 -3 8 2 5 6 -3 16 -2 24 4 23 14 34 11 20 -6z m-1030 1 c0
-3 -4 -8 -10 -11 -5 -3 -10 -1 -10 4 0 6 5 11 10 11 6 0 10 -2 10 -4z m967
-12 c-3 -3 -12 -4 -19 -1 -8 3 -5 6 6 6 11 1 17 -2 13 -5z m-662 -204 c4 -6
10 -8 15 -5 24 15 145 -93 126 -112 -4 -4 -11 -1 -16 7 -11 17 -13 9 -4 -14 3
-9 11 -16 18 -16 6 0 13 -11 14 -25 1 -14 -3 -25 -9 -25 -6 0 -8 -7 -5 -16 5
-14 -95 -222 -127 -261 -9 -13 -35 -12 -68 2 -10 3 -20 1 -24 -4 -3 -6 -11 -9
-16 -5 -6 3 5 32 25 68 l35 62 -49 17 c-164 58 -150 295 19 328 53 10 59 10
66 -1z m-322 -31 c3 -10 0 -20 -7 -23 -6 -3 -1 -3 11 -1 12 3 25 1 28 -6 6 -8
10 -7 16 2 5 9 9 -9 9 -48 0 -40 -4 -63 -12 -66 -9 -4 -9 -8 -3 -14 6 -4 11
-27 12 -51 2 -40 1 -43 -20 -36 -36 10 -41 10 -43 -6 -3 -31 -6 -34 -15 -15
-8 18 -8 18 -6 -4 1 -17 10 -27 29 -32 25 -6 27 -5 18 11 -6 10 -10 23 -10 28
0 15 30 8 41 -9 12 -19 11 -126 -1 -150 -7 -13 -7 -19 0 -19 5 0 10 -4 10 -10
0 -5 -9 -10 -20 -10 -11 0 -20 5 -20 10 0 6 -16 18 -35 27 l-35 17 0 114 c0
99 3 117 20 139 23 29 25 43 8 43 -6 0 -9 -3 -5 -6 3 -4 -10 -22 -29 -41 l-35
-34 -40 31 c-43 35 -43 38 10 100 17 19 31 29 31 23 0 -7 5 -13 11 -13 6 0 8
9 4 20 -9 28 10 49 45 48 19 -1 30 -7 33 -19z m57 6 c0 -8 -4 -15 -9 -15 -5 0
-14 7 -21 15 -10 13 -9 15 9 15 12 0 21 -6 21 -15z m621 -2 c1 -17 2 -17 6 0
5 20 23 23 23 3 0 -7 7 -19 15 -26 12 -10 15 -10 15 3 0 8 -6 18 -12 20 -8 4
-7 6 4 6 24 1 73 -43 88 -80 11 -25 11 -41 1 -77 -9 -36 -9 -48 2 -61 27 -31
39 -79 32 -122 -9 -51 -69 -123 -97 -116 -10 3 -18 1 -18 -4 0 -5 -11 -9 -25
-9 -14 0 -25 5 -25 12 0 9 -3 9 -12 0 -17 -17 -38 -15 -38 3 0 10 -8 13 -27 9
-25 -5 -31 0 -55 44 -34 61 -34 112 -1 170 18 32 22 47 14 55 -18 18 -13 89 9
121 17 26 71 64 93 66 4 0 8 -8 8 -17z m537 -23 c1 -34 -3 -36 -46 -14 -48 23
-39 41 19 43 22 1 26 -3 27 -29z m-93 3 c3 -10 1 -19 -4 -21 -16 -5 -13 -19 5
-26 8 -3 13 -2 10 3 -3 5 4 11 15 14 15 4 19 2 15 -8 -3 -10 3 -12 23 -10 22
3 27 -1 29 -21 1 -13 -4 -24 -11 -24 -8 0 -9 -3 -1 -8 18 -12 25 -42 10 -42
-8 0 -16 -7 -20 -15 -3 -9 0 -15 8 -15 17 0 20 -84 4 -114 -8 -15 -8 -21 1
-24 15 -5 14 -42 -1 -43 -10 0 -10 -2 0 -6 18 -7 16 -93 -3 -93 -8 0 -15 5
-15 10 0 6 5 10 10 10 6 0 10 7 10 15 0 8 -7 15 -15 15 -8 0 -15 -4 -15 -10 0
-5 -10 -9 -22 -7 -18 1 -22 -2 -20 -17 3 -17 1 -18 -12 -7 -8 7 -15 20 -14 29
4 52 4 52 -102 52 -60 0 -100 4 -100 10 0 6 8 10 18 10 10 0 28 8 41 17 18 12
22 13 16 2 -7 -12 -6 -12 7 -1 8 7 22 10 30 7 9 -4 23 1 32 10 9 9 23 14 31
11 17 -6 21 9 5 19 -6 4 -18 1 -27 -7 -13 -10 -17 -10 -20 0 -6 16 -53 16 -53
-1 0 -7 -18 -18 -40 -24 l-40 -10 0 34 c0 30 3 34 20 28 11 -3 20 -2 20 3 0 6
-5 12 -11 14 -10 3 21 55 81 136 17 24 26 29 33 20 6 -9 7 -7 3 6 -4 12 3 33
19 58 28 42 39 47 50 21z m-1422 -206 c7 -2 1 -10 -14 -17 -22 -10 -39 -8
-105 10 -93 25 -109 33 -101 53 5 13 20 11 106 -13 56 -16 107 -30 114 -33z
m1891 7 c4 -9 5 -18 4 -19 -2 -1 -46 -14 -98 -28 -82 -22 -97 -24 -109 -12 -8
8 -13 17 -10 19 4 4 185 54 200 55 4 1 10 -6 13 -15z m-2015 -34 c47 -14 70
-25 64 -31 -6 -6 -20 -6 -39 1 -24 9 -31 8 -41 -6 -7 -10 -13 -21 -13 -26 0
-4 -17 -8 -38 -8 -43 0 -68 -15 -75 -45 -2 -11 -4 7 -4 40 0 33 2 50 4 38 4
-19 11 -23 43 -23 22 0 47 8 61 19 l24 19 -28 11 c-16 6 -35 11 -43 11 -8 0
-14 7 -14 15 0 8 6 13 13 10 6 -2 45 -14 86 -25z m131 -8 c0 -5 -6 -16 -13
-26 -13 -17 -14 -17 -28 0 -7 10 -9 15 -3 11 7 -4 17 0 24 8 14 17 20 19 20 7z
m1890 -10 c0 -5 -18 -14 -40 -21 -61 -18 -49 -43 28 -56 34 -5 42 -4 42 9 0 8
3 17 8 19 4 3 7 -17 7 -44 0 -27 -1 -49 -3 -49 -1 0 -7 11 -12 25 -9 24 -29
31 -80 27 -8 0 -23 12 -32 28 -16 27 -19 29 -48 18 -23 -8 -35 -7 -43 1 -8 8
-7 11 6 11 21 0 20 0 87 21 64 20 80 22 80 11z m-190 -54 c0 -5 -7 -8 -15 -8
-8 0 -15 2 -15 4 0 2 -3 12 -6 21 -6 15 -4 15 15 4 11 -8 21 -17 21 -21z
m-380 12 c0 -5 -2 -10 -4 -10 -3 0 -8 5 -11 10 -3 6 -1 10 4 10 6 0 11 -4 11
-10z m-1040 -141 c0 -5 -9 -9 -20 -9 -11 0 -20 6 -20 14 0 9 7 12 20 9 11 -3
20 -9 20 -14z m-441 -226 c-64 -71 -89 -93 -89 -80 0 10 118 126 129 127 2 0
-16 -21 -40 -47z m2000 -5 c57 -54 76 -76 69 -84 -3 -2 -34 28 -71 66 -78 82
-77 92 2 18z m-1958 9 l-24 -22 19 27 c10 14 21 24 23 22 3 -3 -6 -15 -18 -27z
m232 -27 c34 -30 64 -70 55 -70 -2 0 -33 30 -68 67 -65 67 -59 68 13 3z m1488
43 c-16 -28 -111 -117 -111 -104 0 9 107 119 118 121 1 0 -2 -8 -7 -17z
m-1503 -88 c8 -11 -6 2 -32 28 -25 27 -46 53 -46 58 0 9 48 -43 78 -86z m1732
17 c0 -10 -52 42 -62 63 -6 11 6 3 26 -19 20 -21 36 -41 36 -44z m-200 64 c0
-2 -8 -10 -17 -17 -16 -13 -17 -12 -4 4 13 16 21 21 21 13z m-1604 -47 c33
-31 30 -39 -8 -29 -76 20 -129 27 -134 19 -6 -10 -24 -2 -24 10 0 14 64 30
103 26 23 -2 49 -13 63 -26z m1725 20 c24 -13 62 -49 57 -54 -2 -2 -22 2 -43
9 -52 18 -135 26 -135 14 0 -5 -4 -6 -10 -3 -18 11 -11 22 23 33 43 14 84 14
108 1z m-1917 -53 c-6 -15 -47 -46 -61 -46 -3 0 6 14 22 30 31 32 48 39 39 16z
m1756 5 c0 -5 -13 -19 -30 -31 -35 -25 -39 -16 -8 17 22 24 38 30 38 14z
m-1602 -18 c5 -17 -26 -29 -40 -15 -6 6 -7 15 -3 22 9 14 37 9 43 -7z m1752 2
c0 -9 -7 -18 -16 -22 -18 -7 -39 11 -30 26 11 17 46 13 46 -4z m-1855 -40 c2
-20 9 -43 16 -51 6 -8 8 -14 3 -14 -5 0 -2 -5 6 -10 11 -7 11 -10 2 -10 -11 0
-44 59 -46 82 -1 3 -5 10 -10 15 -9 8 -5 -17 9 -49 6 -15 3 -15 -31 -3 -21 7
-40 17 -41 22 -5 13 55 55 67 48 6 -3 10 -1 10 6 0 27 12 -2 15 -36z m1752 5
c0 -39 -9 -43 -20 -10 -2 8 -3 2 -1 -13 3 -24 1 -27 -16 -23 -11 3 -29 9 -40
12 -11 3 -20 9 -20 13 0 13 60 52 70 46 6 -3 10 -1 10 4 0 6 4 11 8 11 5 0 9
-18 9 -40z m-1577 8 c11 -12 20 -26 20 -30 0 -11 -70 -41 -78 -34 -3 4 -13 -1
-23 -10 -10 -9 -24 -14 -31 -11 -8 4 -5 8 10 12 12 4 22 12 22 17 0 5 8 8 18
6 13 -2 18 5 20 35 4 43 13 46 42 15z m1754 1 c31 -24 24 -41 -26 -58 -26 -9
-29 -8 -24 5 3 9 6 29 6 45 0 35 8 36 44 8z m-1684 -21 c0 -6 -6 -5 -15 2 -8
7 -15 14 -15 16 0 2 7 1 15 -2 8 -4 15 -11 15 -16z m1745 11 c11 -17 -1 -21
-15 -4 -8 9 -8 15 -2 15 6 0 14 -5 17 -11z m-1865 -9 c0 -5 -5 -10 -11 -10 -5
0 -7 5 -4 10 3 6 8 10 11 10 2 0 4 -4 4 -10z m838 -15 c11 -13 25 -38 32 -55
12 -28 11 -34 -8 -52 -29 -29 -80 -28 -104 2 -21 26 -17 50 19 98 29 38 36 39
61 7z m887 -35 c-13 -14 -14 -20 -5 -20 7 0 11 -2 9 -5 -11 -10 -47 8 -42 21
3 8 9 12 13 9 4 -3 13 2 20 10 7 9 15 13 18 10 3 -3 -3 -14 -13 -25z m-1970
-10 c-5 -8 -11 -8 -17 -2 -6 6 -7 16 -3 22 5 8 11 8 17 2 6 -6 7 -16 3 -22z
m325 25 c0 -7 -39 -26 -73 -36 -41 -12 -25 2 26 22 23 9 43 17 45 18 1 1 2 -1
2 -4z m77 -10 c9 -25 -2 -27 -22 -5 -17 18 -17 20 -1 20 9 0 19 -7 23 -15z
m1353 6 c0 -5 -7 -14 -15 -21 -13 -10 -15 -9 -15 9 0 12 6 21 15 21 8 0 15 -4
15 -9z m320 3 c0 -7 -66 -34 -82 -33 -7 0 7 9 32 19 53 22 50 21 50 14z m70
-15 c0 -18 -2 -19 -15 -9 -8 7 -15 16 -15 21 0 5 7 9 15 9 9 0 15 -9 15 -21z
m-2070 1 c8 -5 11 -10 5 -10 -5 0 -17 5 -25 10 -8 5 -10 10 -5 10 6 0 17 -5
25 -10z m1750 0 c8 -5 11 -10 5 -10 -5 0 -17 5 -25 10 -8 5 -10 10 -5 10 6 0
17 -5 25 -10z m68 -8 c6 -18 -15 -14 -22 4 -4 10 -1 14 6 12 6 -2 14 -10 16
-16z m-1538 -86 c-7 -7 -10 -5 -10 6 0 8 -7 21 -15 28 -12 10 -13 16 -3 27 9
12 14 9 25 -18 9 -22 10 -36 3 -43z m-307 22 c-5 -28 -17 -36 -28 -19 -7 13
17 63 26 54 4 -5 5 -20 2 -35z m233 30 c13 -13 -70 -40 -109 -35 -47 6 -92 21
-100 34 -5 9 200 9 209 1z m1511 -28 c-12 -32 -27 -40 -27 -14 0 23 20 55 30
49 4 -3 3 -19 -3 -35z m243 30 c0 -11 -44 -30 -75 -32 -59 -3 -93 2 -114 20
-21 16 -18 17 84 18 58 0 105 -2 105 -6z m65 -32 c4 -17 3 -28 -3 -28 -12 0
-33 56 -24 64 9 9 20 -6 27 -36z m-1813 -23 c0 -14 1 -30 2 -37 1 -6 -4 -13
-10 -15 -11 -4 -26 55 -17 70 9 16 23 6 25 -18z m1575 -11 c-7 -41 -12 -49
-25 -40 -11 7 9 76 22 76 5 0 6 -16 3 -36z m167 -6 c5 -30 4 -38 -7 -38 -18 0
-28 55 -13 70 12 12 12 13 20 -32z m-1904 20 c0 -29 -13 -59 -24 -55 -17 6 -5
67 14 67 5 0 10 -6 10 -12z m80 -38 c0 -29 -4 -40 -15 -40 -16 0 -20 35 -9 64
11 29 24 16 24 -24z m1740 0 c0 -25 -5 -40 -12 -40 -9 0 -12 13 -12 37 2 45 1
43 14 43 6 0 10 -18 10 -40z m-962 8 c17 -17 15 -24 -8 -24 -13 0 -20 7 -20
18 0 21 11 23 28 6z m73 -25 c13 -15 12 -15 -7 -5 -12 6 -24 8 -28 5 -3 -3 -6
-1 -6 5 0 18 25 14 41 -5z m64 7 c4 -6 -1 -7 -11 -3 -13 5 -15 3 -9 -7 5 -8 3
-11 -5 -8 -8 2 -16 10 -18 16 -4 14 34 16 43 2z m35 -5 c0 -8 -2 -15 -4 -15
-2 0 -6 7 -10 15 -3 8 -1 15 4 15 6 0 10 -7 10 -15z"/>
<path d="M1025 3250 c-11 -18 -7 -298 5 -320 13 -24 62 -27 81 -4 14 17 19
258 6 307 -6 24 -12 27 -47 27 -21 0 -42 -5 -45 -10z"/>
<path d="M1180 2869 c0 -5 5 -7 10 -4 6 3 10 8 10 11 0 2 -4 4 -10 4 -5 0 -10
-5 -10 -11z"/>
<path d="M1105 2850 c-28 -7 -28 -8 -5 -9 14 0 32 4 40 9 17 11 8 11 -35 0z"/>
<path d="M1395 3217 c-4 -8 -5 -36 -3 -63 3 -47 4 -49 36 -52 44 -4 62 12 62
58 0 42 -13 57 -58 66 -23 5 -33 2 -37 -9z"/>
<path d="M300 2659 c-8 -13 -10 -68 -7 -157 5 -141 10 -167 31 -175 25 -10 65
5 72 27 12 35 8 280 -5 304 -16 30 -76 31 -91 1z"/>
<path d="M448 2284 c-8 -7 -35 -12 -71 -13 -17 -1 -26 -5 -22 -12 4 -6 20 -7
38 -3 35 7 89 33 71 34 -6 0 -13 -3 -16 -6z"/>
<path d="M1316 2285 c-3 -8 -1 -15 4 -15 6 0 10 7 10 15 0 8 -2 15 -4 15 -2 0
-6 -7 -10 -15z"/>
<path d="M674 2636 c-3 -7 -4 -38 -2 -67 3 -48 6 -54 26 -57 38 -6 72 23 72
61 0 18 -6 40 -12 49 -18 22 -77 32 -84 14z"/>
<path d="M1531 1718 c0 -194 3 -347 8 -340 4 7 6 80 3 163 -3 94 -1 149 5 149
5 0 20 20 33 45 16 31 30 45 44 45 19 1 20 1 3 11 -15 9 -23 5 -47 -22 l-28
-33 0 55 c1 68 5 76 29 50 30 -32 93 -31 121 2 24 26 23 36 -2 30 -12 -3 -19
-8 -16 -10 10 -10 -22 -32 -40 -28 -10 2 -25 4 -32 4 -7 1 -10 5 -7 11 4 6 -1
7 -11 3 -12 -4 -15 -3 -10 6 5 7 0 18 -10 27 -17 12 -17 13 -1 8 24 -8 21 8
-4 24 -19 12 -20 15 -5 37 20 31 20 33 -1 31 -15 -1 -18 7 -18 42 0 23 -3 42
-7 42 -3 0 -7 -159 -7 -352z"/>
<path d="M1575 2040 c-8 -13 3 -30 20 -30 20 0 30 21 14 31 -18 11 -26 11 -34
-1z"/>
<path d="M1665 2040 c-9 -14 2 -29 20 -26 23 3 31 16 15 26 -19 12 -27 12 -35
0z"/>
<path d="M751 2021 c-45 -4 -66 -11 -69 -21 -3 -8 -1 -12 3 -8 9 8 67 -30 61
-40 -2 -4 -7 -76 -11 -159 -5 -116 -4 -153 5 -153 7 0 10 7 6 15 -3 10 1 15
12 15 10 0 13 3 7 8 -13 8 -18 59 -8 75 11 19 11 177 -1 171 -6 -3 -3 1 7 9
20 17 21 17 290 20 103 1 187 0 187 -3 0 -3 35 -7 78 -8 100 -4 102 -4 96 -14
-3 -4 -1 -8 4 -8 5 0 8 -12 6 -27 -1 -15 2 -35 7 -45 5 -10 6 -18 1 -18 -5 0
-7 -34 -5 -76 2 -46 -1 -81 -7 -89 -8 -10 -8 -15 0 -20 13 -8 6 -115 -9 -144
-10 -18 -83 -37 -101 -26 -4 3 -19 1 -32 -5 -16 -7 -1 -8 57 -5 48 3 85 10 93
19 17 17 31 420 15 451 -8 16 -4 26 19 48 l28 28 0 -279 c0 -301 0 -302 -52
-296 -16 1 -28 -1 -28 -6 0 -5 -156 -9 -355 -10 -329 0 -355 1 -363 17 -5 10
-10 89 -10 176 0 87 -3 161 -6 164 -3 4 -6 -73 -6 -170 0 -166 1 -177 20 -187
24 -13 681 -19 752 -7 38 6 49 13 53 30 10 42 13 542 4 560 -8 15 -25 17 -117
17 -73 0 -102 -3 -92 -10 9 -6 10 -10 3 -10 -6 0 -14 4 -17 9 -3 5 -34 9 -68
9 -35 0 -119 2 -188 5 -69 3 -116 3 -105 1 11 -3 30 -7 43 -10 13 -2 20 -9 17
-14 -3 -5 -1 -11 5 -15 5 -3 10 0 10 8 0 12 17 15 76 16 48 1 73 -3 69 -9 -3
-5 1 -10 9 -10 9 0 16 5 16 10 0 6 5 10 11 10 5 0 7 -4 4 -10 -3 -5 1 -10 10
-10 9 0 13 5 10 10 -3 6 1 10 11 10 14 0 15 -2 3 -17 -22 -28 -32 -32 -50 -23
-9 5 -19 6 -23 2 -4 -3 -12 0 -17 8 -8 11 -12 12 -16 3 -7 -19 -24 -16 -17 2
5 11 2 13 -10 9 -9 -3 -16 -10 -16 -15 0 -5 -7 -9 -15 -9 -8 0 -15 6 -15 13 0
9 -2 9 -8 1 -4 -7 -31 -13 -60 -15 -44 -3 -52 -1 -52 14 0 9 -4 17 -10 17 -5
0 -7 -7 -4 -15 5 -11 -1 -15 -20 -15 -16 0 -26 6 -26 15 0 8 -8 15 -17 14 -11
0 -13 -3 -5 -6 21 -8 13 -26 -10 -20 -12 4 -27 3 -32 -2 -13 -9 -50 9 -54 27
-1 8 12 12 40 12 59 0 107 5 115 13 7 8 -36 7 -136 -2z m668 -56 c-7 -7 -13
-5 -19 5 -7 10 -10 11 -10 3 0 -7 -7 -13 -15 -13 -14 0 -14 3 2 23 15 21 19
22 35 8 12 -10 15 -18 7 -26z m31 29 c0 -8 -4 -12 -10 -9 -5 3 -10 10 -10 16
0 5 5 9 10 9 6 0 10 -7 10 -16z m-166 -15 c-3 -5 -20 -9 -37 -9 -29 1 -30 2
-14 14 19 15 61 10 51 -5z m70 -3 c-3 -8 -16 -13 -30 -12 -39 2 -28 26 12 26
16 0 22 -5 18 -14z"/>
<path d="M765 1990 c3 -5 10 -10 16 -10 5 0 9 5 9 10 0 6 -7 10 -16 10 -8 0
-12 -4 -9 -10z"/>
<path d="M1610 1978 c0 -5 -5 -6 -12 -2 -7 4 -8 3 -4 -4 3 -6 -3 -16 -14 -22
-22 -12 -19 -30 5 -30 9 0 12 6 8 18 -3 9 -3 14 2 10 4 -4 14 -3 22 3 10 9 13
8 13 -1 0 -10 3 -10 15 0 10 9 15 9 15 1 0 -6 7 -11 15 -11 8 0 15 -7 15 -15
0 -8 6 -15 13 -15 8 0 7 -3 -3 -10 -8 -5 -11 -12 -8 -15 12 -12 30 7 25 26 -6
24 8 25 18 2 7 -16 9 -15 15 7 17 53 13 60 -31 60 -26 0 -38 -4 -33 -11 3 -6
16 -8 29 -5 15 4 25 1 29 -9 8 -22 -40 -19 -65 4 -23 21 -69 34 -69 19z"/>
<path d="M672 1875 c0 -66 2 -72 8 -37 3 24 3 60 -1 80 -5 28 -7 16 -7 -43z"/>
<path d="M1612 1913 c24 -49 32 -63 39 -63 11 0 -23 69 -34 70 -5 0 -7 -3 -5
-7z"/>
<path d="M1070 1893 c19 -2 42 -7 50 -10 8 -3 20 -7 25 -8 6 -1 13 -3 18 -5
10 -4 25 -7 37 -9 7 -1 7 -8 0 -22 -11 -20 -12 -20 -25 -2 -8 10 -15 13 -15 7
0 -6 -22 -12 -50 -13 -66 -2 -150 -18 -167 -32 -25 -22 -25 0 0 33 15 18 41
38 59 45 23 8 27 12 13 12 -41 2 -152 -91 -215 -179 l-23 -32 24 3 c27 4 49
-7 49 -23 0 -7 -6 -6 -15 2 -27 23 -16 1 22 -41 35 -38 117 -89 145 -89 7 0
-6 10 -30 21 -45 23 -51 45 -11 42 68 -6 219 -6 252 0 38 6 39 5 21 -14 -9
-10 -35 -24 -56 -31 -21 -6 -36 -13 -33 -16 2 -3 25 3 50 13 29 11 72 42 117
87 l71 69 -24 17 c-13 9 -29 17 -36 18 -15 3 -83 54 -83 64 0 22 18 16 54 -17
l40 -38 -33 42 c-18 24 -44 52 -58 63 -34 26 -116 50 -167 48 -40 -1 -40 -1
-6 -5z m10 -98 c10 -12 10 -18 0 -30 -16 -20 -44 -19 -61 1 -11 14 -10 18 6
30 24 18 39 18 55 -1z m114 -21 c16 -41 -8 -136 -36 -147 -9 -4 -9 -6 2 -6 8
0 41 10 73 23 31 13 57 20 57 16 0 -10 -67 -37 -119 -49 -36 -8 -37 -7 -33 15
2 13 8 24 13 24 5 0 9 6 9 14 0 8 6 17 13 19 8 4 9 8 2 14 -13 10 -17 53 -5
53 4 0 6 9 3 20 -6 24 12 27 21 4z m-226 -33 c0 -22 7 -54 16 -72 20 -40 20
-41 -1 -30 -10 5 -31 15 -48 22 -55 24 -84 59 -50 59 8 0 15 6 15 13 0 11 46
46 62 47 4 0 7 -18 6 -39z m301 6 c25 -18 46 -38 48 -44 3 -7 -16 -18 -44 -26
-26 -8 -56 -18 -65 -22 -17 -7 -17 -5 -2 31 9 21 13 50 10 66 -7 35 -2 34 53
-5z m-409 -4 c0 -5 -12 -16 -26 -27 -26 -18 -26 -18 -15 2 9 17 19 25 39 31 1
1 2 -2 2 -6z m140 -20 c0 5 5 5 11 1 8 -4 7 -9 -2 -15 -17 -10 -29 -2 -29 19
0 15 2 15 10 2 5 -8 10 -11 10 -7z m40 -33 c0 -5 -5 -10 -11 -10 -5 0 -7 5 -4
10 3 6 8 10 11 10 2 0 4 -4 4 -10z m18 -38 c9 9 12 8 12 -6 0 -9 5 -14 10 -11
16 10 11 -11 -6 -26 -20 -16 -121 3 -176 34 -61 33 -44 38 25 7 35 -15 81 -31
102 -35 l40 -6 -28 21 c-15 12 -32 32 -38 43 -10 19 -7 18 18 -5 22 -22 32
-25 41 -16z"/>
<path d="M1740 1860 c0 -5 5 -10 11 -10 5 0 7 5 4 10 -3 6 -8 10 -11 10 -2 0
-4 -4 -4 -10z"/>
<path d="M1655 1802 c-9 -9 -5 -22 7 -22 6 0 20 -7 30 -17 10 -9 20 -14 23
-12 2 3 -9 17 -25 31 -16 14 -32 23 -35 20z"/>
<path d="M1705 1800 c-3 -6 1 -7 9 -4 18 7 21 14 7 14 -6 0 -13 -4 -16 -10z"/>
<path d="M1724 1779 c-4 -7 -3 -9 4 -5 6 3 13 -2 15 -11 4 -16 5 -16 6 -1 1
21 -15 32 -25 17z"/>
<path d="M1631 1713 c18 -21 35 -40 37 -42 1 -2 5 -1 9 2 8 8 -56 77 -71 77
-5 0 6 -17 25 -37z"/>
<path d="M1571 1685 c2 -11 22 -30 44 -42 38 -21 76 -33 46 -14 -11 7 -10 11
5 19 15 8 11 10 -20 9 -30 -1 -43 5 -58 23 -18 22 -20 22 -17 5z"/>
<path d="M1740 1653 c0 -13 5 -23 10 -23 13 0 13 11 0 30 -8 12 -10 11 -10 -7z"/>
<path d="M740 1573 c0 -83 6 -97 46 -109 43 -14 53 -3 13 15 -17 8 -29 20 -29
32 0 10 -6 19 -12 19 -9 0 -9 3 1 9 12 8 12 12 2 25 -7 8 -10 24 -6 35 3 10 1
22 -5 26 -6 4 -10 -14 -10 -52z"/>
<path d="M1710 1622 c0 -5 -15 -14 -32 -20 l-33 -10 28 -1 c31 -1 64 23 47 34
-5 3 -10 2 -10 -3z"/>
<path d="M1597 1606 c-4 -10 -1 -16 8 -16 8 0 18 0 22 -1 4 0 9 5 12 12 2 7
-1 9 -9 4 -7 -4 -16 -2 -20 5 -5 8 -9 7 -13 -4z"/>
<path d="M1550 1600 c0 -5 5 -10 11 -10 5 0 7 5 4 10 -3 6 -8 10 -11 10 -2 0
-4 -4 -4 -10z"/>
<path d="M1728 1593 c7 -3 16 -2 19 1 4 3 -2 6 -13 5 -11 0 -14 -3 -6 -6z"/>
<path d="M1565 1549 c11 -17 15 -58 7 -63 -11 -7 -8 -66 3 -66 16 0 13 132 -4
138 -9 3 -11 0 -6 -9z"/>
<path d="M1662 1526 c1 -19 5 -33 10 -30 11 7 10 51 -2 59 -5 3 -9 -9 -8 -29z"/>
<path d="M1619 1548 c-7 -28 -4 -68 5 -68 6 0 11 16 12 35 0 19 -3 35 -8 35
-4 0 -8 -1 -9 -2z"/>
<path d="M1708 1508 c-5 -41 -3 -57 6 -47 8 9 14 89 6 89 -4 0 -10 -19 -12
-42z"/>
<path d="M1028 1523 c6 -2 18 -2 25 0 6 3 1 5 -13 5 -14 0 -19 -2 -12 -5z"/>
<path d="M1078 1523 c6 -2 18 -2 25 0 6 3 1 5 -13 5 -14 0 -19 -2 -12 -5z"/>
<path d="M903 1463 c9 -2 25 -2 35 0 9 3 1 5 -18 5 -19 0 -27 -2 -17 -5z"/>
<path d="M1008 1463 c12 -2 30 -2 40 0 9 3 -1 5 -23 4 -22 0 -30 -2 -17 -4z"/>
<path d="M1113 1463 c26 -2 67 -2 90 0 23 2 2 3 -48 3 -49 0 -68 -1 -42 -3z"/>
<path d="M1612 1440 c0 -22 4 -30 16 -29 9 0 12 3 6 5 -6 3 -9 16 -6 29 2 14
0 25 -5 25 -6 0 -10 -13 -11 -30z"/>
<path d="M1660 1441 c0 -17 4 -31 8 -31 11 0 13 48 2 55 -6 4 -10 -7 -10 -24z"/>
<path d="M715 1450 c-3 -4 2 -10 10 -14 16 -6 45 2 45 13 0 9 -49 10 -55 1z"/>
<path d="M1700 1443 c0 -5 5 -15 10 -23 8 -12 10 -11 10 8 0 12 -4 22 -10 22
-5 0 -10 -3 -10 -7z"/>
<path d="M950 1100 c0 -5 5 -10 10 -10 6 0 10 -5 10 -12 0 -9 -3 -9 -12 0 -16
16 -35 15 -35 -1 0 -7 11 -13 26 -12 14 0 26 6 25 13 -2 27 -4 32 -14 32 -5 0
-10 -4 -10 -10z"/>
<path d="M1015 1089 c-12 -18 3 -22 20 -5 14 14 14 16 1 16 -8 0 -18 -5 -21
-11z"/>
<path d="M1080 1029 c0 -5 5 -7 10 -4 6 3 10 8 10 11 0 2 -4 4 -10 4 -5 0 -10
-5 -10 -11z"/>
<path d="M1042 1019 c2 -7 10 -15 17 -17 8 -3 12 1 9 9 -2 7 -10 15 -17 17 -8
3 -12 -1 -9 -9z"/>
<path d="M947 1009 c-9 -5 -21 -8 -25 -5 -4 2 -14 1 -22 -5 -13 -7 -12 -9 2
-9 12 0 16 -8 16 -32 -1 -22 7 -38 26 -55 41 -35 77 -28 110 22 17 26 17 27
-9 61 -27 36 -62 44 -98 23z"/>
<path d="M850 984 c0 -8 5 -12 10 -9 6 3 10 10 10 16 0 5 -4 9 -10 9 -5 0 -10
-7 -10 -16z"/>
<path d="M1112 950 c1 -17 5 -33 10 -36 4 -3 5 -11 2 -17 -5 -9 -4 -9 5 -1 20
19 19 78 -1 82 -13 2 -16 -4 -16 -28z"/>
<path d="M875 921 c-6 -11 9 -23 19 -14 9 9 7 23 -3 23 -6 0 -12 -4 -16 -9z"/>
<path d="M1048 904 c-8 -8 9 -26 40 -43 19 -10 22 -9 22 9 0 15 -7 20 -24 20
-13 0 -26 5 -28 11 -2 5 -6 7 -10 3z"/>
<path d="M1040 856 c0 -2 7 -7 16 -10 8 -3 12 -2 9 4 -6 10 -25 14 -25 6z"/>
<path d="M1030 825 c0 -17 9 -19 28 -6 11 7 10 10 -3 15 -23 9 -25 8 -25 -9z"/>
<path d="M965 820 c-3 -5 1 -10 9 -10 9 0 16 5 16 10 0 6 -4 10 -9 10 -6 0
-13 -4 -16 -10z"/>
<path d="M995 790 c3 -5 10 -10 16 -10 5 0 9 5 9 10 0 6 -7 10 -16 10 -8 0
-12 -4 -9 -10z"/>
<path d="M1050 764 c0 -8 5 -12 10 -9 6 4 8 11 5 16 -9 14 -15 11 -15 -7z"/>
<path d="M1005 760 c-3 -5 -1 -10 4 -10 6 0 11 5 11 10 0 6 -2 10 -4 10 -3 0
-8 -4 -11 -10z"/>
<path d="M1020 730 c0 -5 7 -7 15 -4 8 4 15 8 15 10 0 2 -7 4 -15 4 -8 0 -15
-4 -15 -10z"/>
<path d="M960 694 c0 -14 4 -23 10 -19 6 3 10 15 10 26 0 10 -4 19 -10 19 -5
0 -10 -12 -10 -26z"/>
<path d="M655 1080 c-11 -5 -16 -9 -11 -9 5 -1 2 -9 -5 -18 -7 -10 -1 -7 14 6
15 14 27 26 27 28 0 4 0 4 -25 -7z"/>
<path d="M688 1025 c-9 -20 -9 -28 1 -38 10 -9 11 -8 6 6 -4 9 -3 17 3 17 6 0
12 -6 15 -12 2 -7 4 2 4 20 0 38 -13 42 -29 7z"/>
<path d="M608 988 c-3 -24 -4 -44 -2 -46 1 -2 12 6 24 18 16 16 19 25 11 33
-15 15 -14 30 1 21 7 -4 8 -3 4 4 -16 26 -34 11 -38 -30z"/>
<path d="M691 744 c0 -11 3 -14 6 -6 3 7 2 16 -1 19 -3 4 -6 -2 -5 -13z"/>
<path d="M666 716 c3 -9 11 -16 16 -16 13 0 5 23 -10 28 -7 2 -10 -2 -6 -12z"/>
<path d="M710 696 c0 -9 5 -16 10 -16 6 0 10 4 10 9 0 6 -4 13 -10 16 -5 3
-10 -1 -10 -9z"/>
<path d="M1440 1061 c0 -6 4 -13 10 -16 13 -8 -12 -47 -27 -41 -7 3 -10 -1 -6
-10 3 -7 9 -14 14 -14 5 0 9 -5 9 -11 0 -5 -4 -8 -9 -5 -11 7 -22 -20 -15 -38
3 -8 15 -17 27 -20 30 -8 42 -7 33 2 -4 4 -13 7 -19 7 -5 0 -12 6 -14 13 -3 6
0 12 7 12 7 0 9 12 4 35 -5 28 -3 35 10 35 20 0 21 14 1 30 -8 7 -12 16 -9 21
3 5 0 9 -5 9 -6 0 -11 -4 -11 -9z"/>
<path d="M1292 1051 c-10 -6 -10 -10 2 -20 12 -10 15 -9 13 8 -1 12 -1 21 -2
21 0 0 -6 -4 -13 -9z"/>
<path d="M1380 1050 c-8 -5 -26 -6 -39 -3 -17 4 -22 2 -17 -6 4 -6 12 -9 17
-6 5 4 9 -1 9 -9 0 -20 22 -11 38 14 14 23 13 24 -8 10z"/>
<path d="M1415 1030 c-3 -5 -2 -10 4 -10 5 0 13 5 16 10 3 6 2 10 -4 10 -5 0
-13 -4 -16 -10z"/>
<path d="M1295 1000 c3 -5 1 -10 -4 -10 -14 0 -8 -43 6 -47 6 -2 14 1 18 6 3
6 0 8 -9 5 -15 -6 -17 18 -3 32 10 11 8 24 -4 24 -5 0 -7 -4 -4 -10z"/>
<path d="M1360 990 c0 -5 -9 -10 -21 -10 -11 0 -17 -5 -14 -10 4 -6 10 -8 15
-5 10 6 50 -24 50 -37 0 -12 38 -48 51 -48 6 0 -3 14 -21 31 -24 24 -28 34
-19 45 6 8 9 21 5 29 -6 17 -46 21 -46 5z"/>
<path d="M1260 955 c0 -5 5 -17 10 -25 5 -8 10 -10 10 -5 0 6 -5 17 -10 25 -5
8 -10 11 -10 5z"/>
<path d="M1349 940 c-8 -24 -4 -50 7 -50 21 0 25 15 9 36 -8 10 -15 17 -16 14z"/>
<path d="M1292 915 c-7 -8 -9 -15 -4 -15 5 0 15 7 22 15 16 19 -1 19 -18 0z"/>
<path d="M1419 850 c48 -46 66 -53 30 -13 -31 35 -52 52 -63 53 -5 0 10 -18
33 -40z"/>
<path d="M1342 865 c4 -4 -6 -18 -23 -32 -16 -14 -29 -30 -29 -36 0 -7 5 -4
11 6 5 9 17 17 26 17 13 0 12 -5 -8 -26 -14 -15 -18 -25 -9 -22 8 2 25 -8 38
-24 23 -27 23 -29 6 -45 -10 -10 -19 -17 -21 -15 -6 4 -8 -6 -2 -13 4 -3 18 8
32 25 14 16 30 30 35 30 5 0 16 8 25 18 37 40 8 97 -45 90 -21 -3 -27 -1 -24
8 3 8 0 16 -7 20 -7 4 -9 4 -5 -1z"/>
<path d="M1290 844 c0 -8 5 -12 10 -9 6 4 8 11 5 16 -9 14 -15 11 -15 -7z"/>
<path d="M1247 843 c-4 -3 1 -12 11 -20 16 -14 16 -14 -1 -9 -13 4 -18 1 -15
-11 5 -27 25 -26 32 2 9 35 -7 58 -27 38z"/>
<path d="M1480 798 c0 -9 7 -19 16 -22 25 -10 27 -1 4 19 -17 15 -20 16 -20 3z"/>
<path d="M1525 790 c3 -5 8 -10 11 -10 2 0 4 5 4 10 0 6 -5 10 -11 10 -5 0 -7
-4 -4 -10z"/>
<path d="M1464 759 c-3 -6 -2 -15 3 -20 5 -5 9 -1 10 11 2 22 -2 25 -13 9z"/>
<path d="M1467 713 c-13 -12 -7 -23 13 -23 11 0 20 7 20 15 0 15 -21 21 -33 8z"/>
<path d="M1420 699 c0 -5 5 -7 10 -4 6 3 10 8 10 11 0 2 -4 4 -10 4 -5 0 -10
-5 -10 -11z"/>
<path d="M1280 690 c0 -5 7 -7 15 -4 8 4 15 8 15 10 0 2 -7 4 -15 4 -8 0 -15
-4 -15 -10z"/>
<path d="M1375 680 c-3 -5 1 -10 9 -10 9 0 16 5 16 10 0 6 -4 10 -9 10 -6 0
-13 -4 -16 -10z"/>
<path d="M1407 661 c-4 -17 -3 -21 5 -13 5 5 8 16 6 23 -3 8 -7 3 -11 -10z"/>
<path d="M1440 670 c0 -13 18 -22 24 -11 3 5 -1 11 -9 15 -8 3 -15 1 -15 -4z"/>
<path d="M1870 1080 c-13 -8 -12 -10 3 -10 9 0 17 5 17 10 0 12 -1 12 -20 0z"/>
<path d="M1765 1020 c-3 -5 6 -12 20 -16 18 -4 24 -11 21 -23 -3 -9 -2 -22 3
-29 6 -10 16 -5 42 19 30 28 31 31 10 24 -16 -5 -21 -4 -17 4 4 7 1 9 -8 5 -9
-3 -23 1 -31 10 -19 18 -31 20 -40 6z m69 -45 c-7 -16 -24 -21 -24 -6 0 8 7
13 27 20 1 1 0 -6 -3 -14z"/>
<path d="M1750 955 c0 -8 6 -15 13 -15 6 0 1 -9 -12 -19 -23 -18 -23 -18 -3
-23 16 -4 19 -2 15 10 -4 10 -2 13 5 8 8 -4 11 3 9 24 -2 30 -27 44 -27 15z"/>
<path d="M1714 949 c-8 -13 13 -36 23 -24 5 4 2 10 -5 12 -6 3 -10 9 -6 14 3
5 3 9 0 9 -3 0 -8 -5 -12 -11z"/>
<path d="M1810 916 c-50 -50 -82 -94 -76 -105 3 -5 20 -6 38 -2 28 6 32 10 31
41 0 39 14 63 30 53 5 -3 7 -1 4 4 -4 6 4 14 18 17 29 7 34 26 7 26 -10 0 -33
-16 -52 -34z"/>
<path d="M1687 916 c-4 -10 -1 -13 8 -9 8 3 12 9 9 14 -7 12 -11 11 -17 -5z"/>
<path d="M1667 883 c-4 -3 -7 -11 -7 -17 0 -6 5 -5 12 2 6 6 9 14 7 17 -3 3
-9 2 -12 -2z"/>
<path d="M1840 875 c0 -8 5 -15 10 -15 6 0 10 7 10 15 0 8 -4 15 -10 15 -5 0
-10 -7 -10 -15z"/>
<path d="M1857 853 c-11 -10 -8 -20 8 -27 10 -4 15 1 15 14 0 20 -11 26 -23
13z"/>
<path d="M1667 837 c-3 -7 3 -13 13 -13 10 0 16 6 13 13 -3 7 -9 13 -13 13 -4
0 -10 -6 -13 -13z"/>
<path d="M1710 840 c0 -5 4 -10 9 -10 6 0 13 5 16 10 3 6 -1 10 -9 10 -9 0
-16 -4 -16 -10z"/>
<path d="M1820 800 c-12 -7 -13 -13 -4 -28 8 -12 9 -24 2 -36 -5 -10 -7 -20
-4 -23 3 -4 6 -1 6 6 0 7 5 9 10 6 6 -3 10 -2 10 4 0 6 6 8 14 5 8 -3 17 -1
20 4 3 5 -2 12 -13 15 -18 4 -37 47 -20 47 5 0 9 -7 9 -15 0 -8 4 -15 9 -15 5
0 11 7 15 15 3 8 1 15 -3 15 -5 0 -15 2 -23 5 -7 3 -20 0 -28 -5z"/>
<path d="M1736 745 c-11 -8 -18 -15 -15 -16 35 -6 56 -3 54 10 -3 21 -17 23
-39 6z"/>
<path d="M1830 696 c0 -9 5 -16 10 -16 6 0 10 4 10 9 0 6 -4 13 -10 16 -5 3
-10 -1 -10 -9z"/>
<path d="M1191 251 c-12 -16 -21 -38 -21 -48 0 -21 18 -43 35 -43 16 0 16 37
-1 51 -12 10 -12 14 -2 20 22 14 31 10 25 -11 -3 -14 0 -20 10 -20 13 0 13 -3
3 -15 -17 -20 -5 -32 15 -15 21 17 19 53 -6 84 -26 33 -33 33 -58 -3z"/>
</g>
</svg>
