<?xml version="1.0" standalone="no"?>
<!DOCTYPE svg PUBLIC "-//W3C//DTD SVG 20010904//EN"
 "http://www.w3.org/TR/2001/REC-SVG-20010904/DTD/svg10.dtd">
<svg version="1.0" xmlns="http://www.w3.org/2000/svg"
 width="300.000000pt" height="168.000000pt" viewBox="0 0 300.000000 168.000000"
 preserveAspectRatio="xMidYMid meet">

<g transform="translate(0.000000,168.000000) scale(0.100000,-0.100000)"
fill="#000000" stroke="none">
<path d="M0 911 l0 -768 40 10 c35 10 43 8 69 -11 17 -12 35 -22 40 -22 12 0
33 -35 25 -43 -3 -3 -2 -21 1 -41 l7 -36 194 0 194 0 -4 28 c-5 31 -38 129
-56 162 -7 14 -9 40 -5 71 l7 49 19 -24 c19 -25 128 -96 146 -96 22 0 153 93
159 113 6 19 9 16 19 -21 12 -38 10 -50 -12 -119 -14 -43 -27 -91 -29 -108 -3
-16 -7 -36 -9 -42 -6 -18 485 -19 503 -1 15 15 16 48 2 48 -5 0 -10 9 -10 21
0 18 -4 16 -34 -15 -35 -38 -43 -41 -65 -27 -11 7 -8 19 15 62 24 45 34 55 59
57 17 2 34 8 40 13 16 16 61 10 96 -14 44 -29 71 -82 65 -124 l-5 -33 765 0
764 0 0 840 0 840 -1074 0 -1074 0 10 -36 c5 -20 7 -51 4 -68 -6 -29 -9 -31
-56 -33 -60 -3 -90 -17 -90 -43 0 -18 6 -20 45 -16 25 2 45 -1 45 -5 0 -5 -6
-9 -14 -9 -8 0 -17 -4 -20 -9 -9 -15 37 -6 65 12 14 10 28 14 32 11 3 -3 4 16
2 42 -4 49 -4 49 10 19 20 -42 19 -48 -15 -98 -23 -35 -31 -60 -36 -116 -4
-39 -11 -71 -15 -71 -5 0 -9 -9 -9 -19 0 -36 -32 -60 -87 -65 -42 -4 -55 -1
-69 15 -9 10 -14 19 -11 19 4 0 -3 12 -16 26 -12 14 -22 33 -22 42 -1 44 -19
109 -34 123 -39 39 -51 61 -51 94 0 21 5 34 11 33 6 -2 14 3 16 10 3 7 -1 10
-10 6 -11 -4 -14 0 -12 13 2 10 6 42 9 71 l5 52 -269 0 -270 0 0 -769z m910
189 c-25 -174 -36 -210 -55 -180 -4 6 -12 10 -18 9 -25 -3 -37 2 -37 15 0 7
-7 19 -15 26 -11 9 -13 16 -5 24 7 7 15 4 26 -10 15 -19 15 -19 5 1 -5 11 -24
34 -41 50 -30 29 -32 29 -45 11 -8 -10 -16 -22 -17 -26 -2 -4 -28 -10 -59 -13
l-56 -7 -7 46 c-8 65 -8 164 2 164 4 0 15 -15 25 -32 18 -33 109 -108 132
-108 18 0 112 103 132 145 l17 36 13 -38 c11 -30 11 -54 3 -113z m1047 1 c50
-23 73 -62 73 -124 0 -56 -33 -108 -78 -122 -36 -10 -41 -20 -13 -28 31 -8 54
-52 46 -87 -8 -37 -48 -60 -105 -60 l-41 0 16 -31 c9 -16 26 -34 38 -39 16 -6
5 -9 -42 -9 -58 -1 -63 1 -46 13 18 13 18 16 -11 82 l-30 69 -65 3 -65 3 -20
-56 c-18 -56 -18 -57 1 -71 17 -13 15 -14 -25 -14 -40 0 -42 1 -27 18 13 14
57 105 57 117 0 2 -12 6 -27 8 -28 4 -28 4 2 6 29 1 32 5 63 94 18 50 36 97
40 104 5 8 25 -27 52 -89 31 -71 50 -102 64 -106 16 -4 17 -7 5 -11 -14 -5
-14 -11 2 -46 l18 -40 1 73 c0 66 -2 73 -22 81 -14 5 -17 10 -10 15 8 5 12 46
12 127 0 129 0 130 -56 109 -15 -6 -29 -9 -31 -6 -2 2 15 11 39 19 60 21 135
20 185 -2z m771 -57 c12 -4 22 -11 22 -16 0 -5 -5 -6 -12 -2 -6 4 -25 11 -42
15 -19 4 -23 7 -11 8 11 0 30 -2 43 -5z m-144 -29 c-9 -14 -17 -25 -19 -25 -1
0 0 11 3 25 2 14 11 25 18 25 12 0 11 -5 -2 -25z m66 10 c-19 -23 -5 -43 42
-55 77 -21 102 -69 55 -107 -13 -10 -22 -23 -20 -29 2 -6 -10 -8 -33 -6 l-36
4 4 -76 c3 -65 1 -76 -13 -76 -14 0 -16 12 -15 73 l1 72 -32 0 c-60 0 -34 12
39 20 91 8 110 18 106 53 -2 22 -11 30 -49 42 -73 24 -98 57 -67 88 17 17 33
15 18 -3z m-570 -37 c0 -29 2 -30 35 -26 21 2 35 0 35 -7 0 -7 -14 -9 -35 -7
-34 4 -35 3 -35 -32 0 -36 0 -36 44 -36 36 0 46 4 51 21 4 11 9 18 12 16 3 -3
2 -15 -2 -26 -6 -19 -14 -21 -73 -21 l-67 0 3 79 c3 64 6 79 18 74 8 -3 14
-18 14 -35z m95 32 c3 -5 1 -10 -4 -10 -6 0 -11 5 -11 10 0 6 2 10 4 10 3 0 8
-4 11 -10z m53 -9 c-3 -9 40 -89 52 -96 5 -3 22 19 37 49 15 31 31 56 35 56 7
0 -56 -124 -73 -143 -4 -5 -23 20 -42 55 -50 89 -53 98 -28 91 11 -3 20 -8 19
-12z m174 -45 c-2 -30 1 -63 7 -75 11 -19 9 -21 -21 -21 -22 0 -29 3 -20 9 10
6 13 27 10 75 -2 55 0 66 13 66 13 0 15 -10 11 -54z m88 -16 l0 -70 41 0 c28
0 47 6 56 18 13 16 14 16 11 -3 -3 -17 -12 -20 -73 -23 l-70 -3 3 76 c3 57 7
75 18 75 11 0 14 -16 14 -70z m-1755 32 c-3 -3 -11 0 -18 7 -9 10 -8 11 6 5
10 -3 15 -9 12 -12z m-30 -2 c3 -5 1 -10 -4 -10 -6 0 -11 5 -11 10 0 6 2 10 4
10 3 0 8 -4 11 -10z m-50 -40 c3 -6 -1 -7 -9 -4 -18 7 -21 14 -7 14 6 0 13 -4
16 -10z m144 -60 c11 0 25 8 30 18 9 15 10 15 11 1 0 -9 -7 -20 -16 -23 -15
-6 -15 -8 2 -27 12 -14 18 -35 18 -62 -2 -82 -2 -82 -66 -83 -32 -1 -60 -3
-62 -5 -3 -2 -7 -16 -11 -31 -6 -25 -5 -27 19 -22 18 3 28 -1 32 -11 8 -19 37
-19 74 0 29 15 30 15 30 -8 0 -13 -14 -42 -31 -65 -18 -24 -31 -57 -34 -79 -1
-21 -4 -42 -4 -48 -1 -5 -7 -3 -14 5 -17 22 -121 25 -177 6 -45 -15 -59 -10
-60 22 0 7 -7 24 -16 37 -9 13 -13 29 -9 35 4 6 -1 17 -11 25 -21 15 -23 55
-7 188 12 105 33 127 132 136 38 4 73 10 76 13 4 3 22 0 40 -8 19 -8 43 -14
54 -14z m1217 -49 c-6 -9 39 -97 53 -105 4 -3 21 21 37 52 16 31 30 59 32 61
1 2 4 2 7 -1 4 -4 -65 -138 -80 -156 -2 -2 -20 28 -41 65 -20 37 -41 70 -46
71 -18 8 -6 22 18 22 14 0 23 -4 20 -9z m265 -20 c31 -32 35 -50 17 -84 -28
-53 -92 -64 -133 -22 -50 49 -15 135 55 135 21 0 41 -9 61 -29z m203 14 c6
-17 -9 -21 -19 -5 -3 6 -21 10 -40 10 -67 0 -100 -95 -54 -154 20 -25 27 -27
74 -24 56 3 65 -5 16 -15 -110 -22 -188 98 -112 174 25 24 38 29 79 29 35 0
52 -4 56 -15z m83 -67 c40 -77 40 -78 17 -78 -13 0 -23 3 -22 8 1 4 -1 17 -6
30 -10 30 -70 32 -86 2 -6 -11 -8 -25 -5 -30 3 -6 -3 -10 -15 -10 -21 0 -21 0
-2 28 11 15 32 51 46 80 15 30 29 52 30 50 2 -1 21 -38 43 -80z m303 75 c0 -5
-21 -8 -47 -8 -45 0 -48 -2 -51 -29 -3 -27 -2 -28 32 -24 22 2 36 0 36 -7 0
-7 -14 -9 -35 -7 -34 4 -35 3 -35 -32 0 -36 0 -36 45 -36 35 0 47 4 55 21 7
11 14 18 17 16 2 -3 0 -15 -7 -26 -9 -18 -20 -21 -73 -21 l-62 0 0 80 0 80 63
0 c34 0 62 -3 62 -7z m-2068 -155 c-9 -9 -15 -9 -24 0 -9 9 -7 12 12 12 19 0
21 -3 12 -12z m-12 -38 c0 -5 -5 -10 -11 -10 -5 0 -7 5 -4 10 3 6 8 10 11 10
2 0 4 -4 4 -10z m-342 -34 c-4 -17 -1 -23 9 -19 9 3 13 -3 13 -21 0 -28 -9
-33 -28 -14 -19 19 -14 78 6 78 2 0 2 -11 0 -24z m472 -30 c0 -7 -9 -21 -20
-31 -16 -14 -17 -20 -8 -27 10 -6 8 -8 -4 -8 -22 0 -22 1 -5 34 8 14 17 22 22
18 4 -4 4 4 0 17 -5 16 -4 21 4 17 6 -4 11 -13 11 -20z m-450 -56 c0 -5 -4
-10 -10 -10 -5 0 -10 5 -10 10 0 6 5 10 10 10 6 0 10 -4 10 -10z m225 -91 c16
-7 12 -8 -16 -5 -20 2 -42 1 -49 -4 -19 -12 20 -30 63 -30 23 0 37 -6 41 -16
7 -19 8 -17 -21 -33 -36 -18 -80 -13 -110 14 -22 19 -24 24 -10 25 20 0 24 20
3 20 -8 0 -16 6 -19 14 -4 11 4 16 31 19 61 6 66 6 87 -4z m67 -21 c-7 -7 -12
-8 -12 -2 0 14 12 26 19 19 2 -3 -1 -11 -7 -17z"/>
<path d="M1860 980 l0 -120 36 0 c48 0 73 15 90 55 37 89 -15 185 -101 185
l-25 0 0 -120z"/>
<path d="M1685 905 c-35 -90 -45 -116 -45 -120 0 -3 25 -5 55 -5 64 0 65 1 25
85 -23 50 -29 57 -35 40z"/>
<path d="M1870 761 c0 -69 1 -71 25 -71 52 0 84 70 53 113 -7 9 -28 20 -45 23
l-33 7 0 -72z"/>
<path d="M517 686 c-16 -24 -16 -26 1 -34 22 -12 80 -13 87 -2 3 4 14 6 25 3
15 -4 20 0 20 15 0 26 -5 29 -66 37 -47 7 -52 5 -67 -19z m80 -9 c4 -7 0 -8
-11 -4 -10 4 -24 7 -32 7 -9 0 -13 4 -10 9 7 11 44 3 53 -12z"/>
<path d="M520 530 c0 -5 5 -10 11 -10 5 0 7 5 4 10 -3 6 -8 10 -11 10 -2 0 -4
-4 -4 -10z"/>
<path d="M643 533 c-7 -3 -13 -8 -13 -12 0 -11 47 -31 71 -31 19 0 37 25 26
37 -8 7 -68 12 -84 6z"/>
<path d="M2187 812 c-21 -23 -22 -86 -1 -106 22 -23 60 -20 78 6 47 66 -25
158 -77 100z"/>
<path d="M2500 781 c-14 -27 -9 -34 18 -29 19 3 19 5 8 27 l-13 24 -13 -22z"/>
<path d="M558 1519 c-26 -15 -23 -55 5 -64 34 -10 68 -12 73 -3 3 5 2 8 -3 7
-18 -3 -33 2 -33 11 0 5 6 7 14 4 8 -3 17 -1 20 4 3 6 15 8 26 5 14 -4 20 0
20 11 0 30 -84 47 -122 25z"/>
<path d="M721 1361 c-7 -5 -22 -6 -32 -4 -26 7 -24 -15 2 -38 21 -18 22 -17
45 10 13 16 24 32 24 35 0 9 -23 7 -39 -3z"/>
<path d="M661 1280 c-54 -13 -24 -61 37 -59 57 2 87 13 84 32 -2 11 2 15 13
11 10 -4 15 0 15 10 0 14 -10 16 -62 14 -35 -1 -74 -5 -87 -8z m94 -20 c-4 -6
-31 -10 -60 -9 -71 3 -60 19 11 19 35 0 53 -4 49 -10z"/>
<path d="M641 167 c-12 -15 -41 -82 -41 -94 0 -4 5 0 11 10 20 34 31 19 24
-33 l-7 -50 56 0 55 0 -19 43 c-11 23 -20 53 -19 67 0 24 0 24 14 6 22 -29 18
-6 -5 32 -21 33 -50 42 -69 19z"/>
<path d="M14 124 c-10 -8 -12 -12 -4 -8 8 5 33 11 55 15 l40 6 -36 2 c-19 0
-44 -6 -55 -15z"/>
<path d="M1410 137 c0 -14 24 -57 32 -57 15 0 8 27 -12 45 -11 10 -20 15 -20
12z"/>
<path d="M1410 52 c-43 -47 -44 -52 -16 -52 18 0 26 5 26 18 1 15 2 15 16 -3
13 -17 16 -18 24 -5 12 19 13 60 1 60 -5 0 -12 -8 -14 -17 -4 -17 -5 -17 -6 0
-1 21 -11 21 -31 -1z"/>
<path d="M84 15 c-18 -14 -18 -14 8 -15 20 0 26 4 22 15 -7 18 -6 18 -30 0z"/>
</g>
</svg>
