<?xml version="1.0" standalone="no"?>
<!DOCTYPE svg PUBLIC "-//W3C//DTD SVG 20010904//EN"
 "http://www.w3.org/TR/2001/REC-SVG-20010904/DTD/svg10.dtd">
<svg version="1.0" xmlns="http://www.w3.org/2000/svg"
 width="384.000000pt" height="384.000000pt" viewBox="0 0 384.000000 384.000000"
 preserveAspectRatio="xMidYMid meet">

<g transform="translate(0.000000,384.000000) scale(0.100000,-0.100000)"
fill="#000000" stroke="none">
<path d="M0 1920 l0 -1920 1920 0 1920 0 0 1920 0 1920 -1920 0 -1920 0 0
-1920z m3240 1856 c0 -3 -4 -8 -10 -11 -5 -3 -10 -1 -10 4 0 6 5 11 10 11 6 0
10 -2 10 -4z m302 -178 c-7 -7 -12 -8 -12 -2 0 6 3 14 7 17 3 4 9 5 12 2 2 -3
-1 -11 -7 -17z m-412 -648 c0 -5 -4 -10 -10 -10 -5 0 -10 5 -10 10 0 6 5 10
10 10 6 0 10 -4 10 -10z m-490 -19 c0 -12 -20 -25 -27 -18 -7 7 6 27 18 27 5
0 9 -4 9 -9z m450 -21 c0 -5 -4 -10 -10 -10 -5 0 -10 5 -10 10 0 6 5 10 10 10
6 0 10 -4 10 -10z m-825 -97 c-9 -8 -18 -13 -21 -10 -8 8 19 36 29 30 4 -2 0
-11 -8 -20z m131 -48 c0 -19 -6 -37 -13 -39 -7 -3 -13 -15 -13 -26 0 -14 -4
-19 -12 -14 -9 6 -9 3 0 -9 8 -9 10 -22 6 -28 -5 -8 -2 -10 8 -7 27 11 8 -40
-25 -68 -17 -14 -24 -24 -16 -22 16 3 19 -2 19 -34 0 -18 -2 -20 -10 -8 -15
24 -18 7 -3 -20 8 -16 13 -19 13 -9 0 16 39 39 66 39 8 0 12 5 9 10 -3 6 -1
10 4 10 6 0 11 -7 11 -15 0 -10 10 -15 28 -15 26 -1 26 -1 7 -16 -11 -8 -24
-13 -30 -10 -6 2 -9 -13 -6 -40 2 -35 0 -44 -12 -44 -9 0 -19 5 -22 11 -9 14
-45 -19 -45 -41 0 -9 -7 -25 -16 -36 -8 -10 -13 -13 -9 -6 4 8 -2 12 -19 12
-13 0 -31 3 -39 6 -9 3 -24 -3 -34 -13 -11 -11 -24 -18 -30 -16 -6 2 -15 -1
-19 -8 -4 -8 -3 -9 4 -5 7 4 12 2 12 -4 0 -6 5 -8 12 -4 7 4 8 3 4 -4 -11 -18
-27 -15 -53 10 -13 12 -23 16 -23 10 0 -23 -18 -12 -25 15 -5 21 -8 24 -15 13
-5 -8 -12 -11 -16 -8 -9 10 -32 -15 -27 -28 2 -7 -1 -15 -8 -20 -8 -5 -10 -3
-4 6 10 17 -32 49 -56 43 -11 -3 -19 -12 -19 -20 0 -10 -7 -12 -22 -8 -15 4
-19 3 -10 -3 14 -9 6 -42 -10 -42 -6 0 -8 -6 -5 -13 2 -6 -2 -18 -9 -25 -12
-11 -14 -8 -14 17 0 31 -15 50 -23 29 -2 -7 -8 -10 -12 -5 -5 4 -3 13 3 19 7
7 12 20 12 30 0 15 5 17 28 12 22 -4 24 -3 12 6 -13 10 -12 11 5 8 11 -3 32 0
47 6 l27 11 -34 11 c-19 6 -32 8 -30 4 2 -3 -20 -6 -48 -7 -29 -1 -59 -3 -67
-5 -10 -2 -15 4 -14 19 0 12 -3 20 -8 17 -4 -3 -8 3 -8 13 -1 15 -4 14 -21 -6
-17 -21 -22 -22 -30 -10 -8 12 -10 12 -19 -1 -10 -13 -11 -13 -9 0 1 8 0 24
-1 35 -1 16 -3 15 -12 -7 -10 -29 -16 -32 -35 -20 -13 8 12 45 37 55 10 3 6 6
-10 7 -14 1 -19 4 -12 7 6 2 12 11 12 19 0 9 11 14 34 14 19 0 36 5 38 11 2 7
9 5 17 -5 11 -13 11 -16 1 -16 -9 0 -7 -7 5 -20 19 -21 45 -27 45 -9 0 6 8 8
19 4 11 -3 22 -1 26 5 3 5 22 10 41 10 27 0 34 4 34 20 0 18 -10 25 -32 21 -5
0 -8 8 -8 19 0 11 7 20 15 20 8 0 15 5 15 10 0 6 11 10 24 10 24 0 41 23 30
41 -3 5 4 9 14 9 11 0 25 7 32 15 7 8 18 15 24 14 32 -4 38 2 34 31 -4 26 -2
29 15 24 14 -4 17 -3 12 6 -5 8 -3 11 6 8 8 -3 13 -11 12 -17 -2 -6 9 -11 25
-11 15 0 23 4 17 8 -5 4 -11 15 -11 25 -2 13 3 16 17 12 28 -9 64 4 50 18 -23
23 -9 28 64 22 47 -3 75 -1 75 5 0 5 1 10 3 10 2 0 3 -16 3 -35z m-628 -16
c-20 -13 -28 -11 -22 5 3 8 12 12 21 9 12 -5 12 -7 1 -14z m1037 2 c-3 -6 4
-15 15 -21 14 -8 19 -17 15 -29 -3 -12 0 -21 10 -25 18 -7 19 -23 3 -59 -14
-30 -41 -38 -31 -9 3 9 -13 -3 -35 -28 -37 -41 -43 -44 -62 -32 -11 7 -24 11
-28 8 -5 -3 -14 0 -22 6 -12 8 -12 9 3 4 11 -3 16 -2 12 4 -3 6 -14 10 -25 10
-23 0 -35 29 -15 36 8 4 15 13 15 21 0 7 6 13 13 12 27 -3 37 2 52 31 8 16 21
29 28 27 6 -1 11 5 9 14 -1 9 8 21 20 27 29 14 30 14 23 3z m-931 -65 c-3 -9
-10 -16 -14 -16 -14 0 -18 24 -7 44 8 17 10 17 18 3 5 -8 6 -22 3 -31z m574 9
c-4 -20 -1 -25 16 -25 16 0 17 3 7 9 -23 15 3 20 29 5 14 -7 21 -14 15 -14 -5
-1 -29 -5 -53 -9 -34 -7 -45 -5 -49 5 -3 8 -8 12 -12 10 -4 -3 -7 4 -8 14 -2
17 7 22 51 29 4 0 6 -10 4 -24z m742 15 c0 -5 -4 -10 -10 -10 -5 0 -10 5 -10
10 0 6 5 10 10 10 6 0 10 -4 10 -10z m-305 -10 c3 -5 -1 -10 -9 -10 -9 0 -16
5 -16 10 0 6 4 10 9 10 6 0 13 -4 16 -10z m695 -20 c0 -5 -5 -10 -11 -10 -5 0
-7 5 -4 10 3 6 8 10 11 10 2 0 4 -4 4 -10z m-610 -40 c0 -5 -4 -10 -10 -10 -5
0 -10 5 -10 10 0 6 5 10 10 10 6 0 10 -4 10 -10z m-1574 -9 c-4 -5 3 -7 13 -4
29 7 21 -23 -14 -50 -16 -12 -37 -30 -47 -39 -23 -23 -30 -22 -45 1 -10 16 -9
20 3 25 9 3 20 4 25 0 8 -4 13 16 10 38 0 4 8 10 19 13 11 4 20 11 20 16 0 5
5 9 11 9 5 0 8 -4 5 -9z m562 -31 c3 -9 -1 -11 -12 -7 -9 4 -16 1 -16 -5 0 -6
-3 -9 -6 -5 -4 3 -4 13 0 22 7 19 27 16 34 -5z m39 4 c-3 -3 -12 -4 -19 -1 -8
3 -5 6 6 6 11 1 17 -2 13 -5z m1253 -4 c0 -5 -5 -10 -11 -10 -5 0 -7 5 -4 10
3 6 8 10 11 10 2 0 4 -4 4 -10z m-1550 -26 c0 -8 -9 -14 -20 -14 -22 0 -28 26
-7 33 16 6 27 -1 27 -19z m752 -2 c-7 -2 -10 -7 -8 -11 6 -10 -23 -7 -49 5
-17 8 -15 9 15 14 35 6 65 0 42 -8z m-1282 -18 c0 -8 -5 -12 -10 -9 -6 4 -8
11 -5 16 9 14 15 11 15 -7z m1315 6 c3 -5 1 -10 -4 -10 -6 0 -11 5 -11 10 0 6
2 10 4 10 3 0 8 -4 11 -10z m745 0 c0 -5 -5 -10 -11 -10 -5 0 -7 5 -4 10 3 6
8 10 11 10 2 0 4 -4 4 -10z m-570 -21 c0 -5 -7 -9 -15 -9 -8 0 -15 7 -15 15 0
9 6 12 15 9 8 -4 15 -10 15 -15z m170 1 c0 -5 -5 -10 -11 -10 -5 0 -7 5 -4 10
3 6 8 10 11 10 2 0 4 -4 4 -10z m-310 -10 c0 -5 -9 -10 -21 -10 -11 0 -17 5
-14 10 3 6 13 10 21 10 8 0 14 -4 14 -10z m100 -22 c0 -6 -6 -5 -15 2 -8 7
-15 14 -15 16 0 2 7 1 15 -2 8 -4 15 -11 15 -16z m98 4 c2 -7 -6 -12 -17 -12
-21 0 -27 11 -14 24 9 9 26 2 31 -12z m107 -2 c-3 -5 -16 -10 -28 -9 -21 0
-21 1 -2 9 28 12 37 12 30 0z m-275 -9 c0 -5 -7 -11 -15 -15 -15 -5 -20 5 -8
17 9 10 23 9 23 -2z m350 -1 c0 -5 -4 -10 -10 -10 -5 0 -10 5 -10 10 0 6 5 10
10 10 6 0 10 -4 10 -10z m-320 -24 c0 -8 -7 -16 -15 -20 -15 -5 -21 14 -8 27
11 12 23 8 23 -7z m198 2 c-2 -6 -10 -14 -16 -16 -7 -2 -10 2 -6 12 7 18 28
22 22 4z m-73 -9 c-4 -6 -13 -8 -20 -5 -7 2 -21 -2 -32 -10 -17 -14 -16 -14 6
-4 19 10 22 9 19 -2 -7 -19 -40 -21 -63 -3 -18 15 -18 16 -2 11 10 -3 28 1 40
9 25 17 61 20 52 4z m127 -11 c-7 -7 -12 -8 -12 -2 0 14 12 26 19 19 2 -3 -1
-11 -7 -17z m103 12 c3 -5 2 -10 -4 -10 -5 0 -13 5 -16 10 -3 6 -2 10 4 10 5
0 13 -4 16 -10z m-1928 -52 c-3 -8 -6 -5 -6 6 -1 11 2 17 5 13 3 -3 4 -12 1
-19z m1783 18 c0 -3 -4 -8 -10 -11 -5 -3 -10 -1 -10 4 0 6 5 11 10 11 6 0 10
-2 10 -4z m-234 -24 c1 -7 0 -8 -2 -3 -3 6 -12 7 -21 4 -11 -4 -14 -3 -9 6 9
14 29 10 32 -7z m101 -8 c-3 -3 -12 -4 -19 -1 -8 3 -5 6 6 6 11 1 17 -2 13 -5z
m130 -9 c0 -8 -4 -15 -8 -15 -11 0 -20 16 -12 24 11 11 20 7 20 -9z m-1777 -9
c0 -8 4 -16 10 -18 6 -2 6 -8 0 -18 -9 -13 -11 -13 -20 0 -13 20 -13 50 0 50
6 0 10 -6 10 -14z m1715 4 c3 -5 1 -10 -4 -10 -6 0 -11 5 -11 10 0 6 2 10 4
10 3 0 8 -4 11 -10z m-185 -10 c0 -5 -4 -10 -10 -10 -5 0 -10 5 -10 10 0 6 5
10 10 10 6 0 10 -4 10 -10z m45 0 c3 -5 -1 -10 -9 -10 -9 0 -16 5 -16 10 0 6
4 10 9 10 6 0 13 -4 16 -10z m-780 -58 c-10 -11 -23 19 -17 41 5 20 6 19 15
-6 5 -16 6 -31 2 -35z m620 48 c3 -6 -1 -7 -9 -4 -18 7 -21 14 -7 14 6 0 13
-4 16 -10z m-650 -29 c3 -5 1 -12 -5 -16 -5 -3 -10 1 -10 9 0 18 6 21 15 7z
m85 -1 c0 -5 -4 -10 -10 -10 -5 0 -10 5 -10 10 0 6 5 10 10 10 6 0 10 -4 10
-10z m644 -14 c-3 -9 -10 -16 -15 -16 -5 0 -4 9 3 20 14 22 21 20 12 -4z
m-1343 -9 c-10 -9 -11 -8 -5 6 3 10 9 15 12 12 3 -3 0 -11 -7 -18z m-768 -3
c9 -9 -37 -44 -58 -44 -9 0 -13 -4 -10 -10 3 -5 1 -10 -4 -10 -19 0 -12 19 12
31 12 7 26 18 30 25 9 15 20 18 30 8z m955 -6 c-6 -18 -25 -21 -25 -3 0 8 7
15 15 15 7 0 12 -5 10 -12z m681 -12 c10 -12 8 -13 -8 -9 -15 4 -21 1 -21 -11
0 -9 -2 -16 -4 -16 -2 0 -11 -3 -20 -6 -11 -4 -16 -1 -16 11 0 11 5 15 16 11
9 -4 13 -2 8 5 -4 6 0 15 7 20 19 12 25 11 38 -5z m628 -21 c0 -8 -4 -12 -9
-9 -5 3 -6 10 -3 15 9 13 12 11 12 -6z m-2222 -5 c-3 -5 -15 -8 -25 -7 -32 5
-31 13 1 15 18 2 28 -2 24 -8z m55 0 c0 -5 -4 -10 -10 -10 -5 0 -10 5 -10 10
0 6 5 10 10 10 6 0 10 -4 10 -10z m1350 -10 c0 -5 -4 -10 -10 -10 -5 0 -10 5
-10 10 0 6 5 10 10 10 6 0 10 -4 10 -10z m730 0 c0 -5 -4 -10 -10 -10 -5 0
-10 5 -10 10 0 6 5 10 10 10 6 0 10 -4 10 -10z m-766 -16 c3 -8 2 -12 -4 -9
-6 3 -10 10 -10 16 0 14 7 11 14 -7z m-1463 -17 c-10 -9 -11 -8 -5 6 3 10 9
15 12 12 3 -3 0 -11 -7 -18z m1369 -37 c0 -5 -5 -10 -11 -10 -5 0 -7 5 -4 10
3 6 8 10 11 10 2 0 4 -4 4 -10z m-1400 -30 c0 -5 -4 -10 -10 -10 -5 0 -10 5
-10 10 0 6 5 10 10 10 6 0 10 -4 10 -10z m116 -27 c-10 -10 -19 5 -10 18 6 11
8 11 12 0 2 -7 1 -15 -2 -18z m2134 17 c0 -5 -4 -10 -10 -10 -5 0 -10 5 -10
10 0 6 5 10 10 10 6 0 10 -4 10 -10z m-870 -4 c0 -11 -19 -15 -25 -6 -3 5 1
10 9 10 9 0 16 -2 16 -4z m190 -216 c0 -5 -2 -10 -4 -10 -3 0 -8 5 -11 10 -3
6 -1 10 4 10 6 0 11 -4 11 -10z m-369 -93 c-10 -9 -11 -8 -5 6 3 10 9 15 12
12 3 -3 0 -11 -7 -18z m349 -271 c0 -3 -4 -8 -10 -11 -5 -3 -10 -1 -10 4 0 6
5 11 10 11 6 0 10 -2 10 -4z m-228 -1195 c10 -13 18 -30 18 -39 0 -34 -72 -56
-98 -30 -18 18 -16 78 3 78 8 0 15 4 15 10 0 17 43 4 62 -19z m-441 -202 c-5
-13 -10 -19 -10 -12 -1 15 10 45 15 40 3 -2 0 -15 -5 -28z"/>
<path d="M2265 2720 c4 -6 11 -8 16 -5 14 9 11 15 -7 15 -8 0 -12 -5 -9 -10z"/>
<path d="M2025 2540 c3 -5 8 -10 11 -10 2 0 4 5 4 10 0 6 -5 10 -11 10 -5 0
-7 -4 -4 -10z"/>
<path d="M2365 2430 c3 -5 8 -10 11 -10 2 0 4 5 4 10 0 6 -5 10 -11 10 -5 0
-7 -4 -4 -10z"/>
<path d="M1970 2380 c0 -6 7 -10 15 -10 8 0 15 2 15 4 0 2 -7 6 -15 10 -8 3
-15 1 -15 -4z"/>
<path d="M2335 2360 c3 -5 8 -10 11 -10 2 0 4 5 4 10 0 6 -5 10 -11 10 -5 0
-7 -4 -4 -10z"/>
<path d="M2766 2617 c4 -11 1 -14 -13 -11 -11 3 -27 -3 -38 -17 -20 -21 -20
-21 0 -17 11 2 19 10 17 17 -2 10 4 12 22 7 30 -7 42 7 21 24 -13 11 -14 10
-9 -3z"/>
</g>
</svg>
