<?xml version="1.0" standalone="no"?>
<!DOCTYPE svg PUBLIC "-//W3C//DTD SVG 20010904//EN"
 "http://www.w3.org/TR/2001/REC-SVG-20010904/DTD/svg10.dtd">
<svg version="1.0" xmlns="http://www.w3.org/2000/svg"
 width="246.000000pt" height="345.000000pt" viewBox="0 0 246.000000 345.000000"
 preserveAspectRatio="xMidYMid meet">

<g transform="translate(0.000000,345.000000) scale(0.100000,-0.100000)"
fill="#000000" stroke="none">
<path d="M0 1725 l0 -1725 1230 0 1230 0 0 454 c-1 503 5 466 -68 466 -20 0
-46 7 -56 15 -17 13 -17 15 -4 15 9 0 19 -4 22 -9 3 -5 28 -9 56 -9 l50 0 0
354 c0 312 -2 354 -16 354 -8 0 -12 5 -9 10 4 6 11 8 16 5 5 -4 9 341 9 894
l0 901 -574 0 c-509 0 -576 -2 -590 -16 -9 -8 -16 -19 -16 -24 0 -16 -42 -23
-51 -9 -8 12 -11 11 -20 -1 -9 -13 -10 -12 -5 3 5 15 2 17 -14 12 -12 -4 -20
-2 -20 5 0 6 5 8 11 4 7 -4 10 -1 7 7 -4 12 -102 14 -596 17 l-592 3 0 -1726z
m1030 1706 c0 -17 -19 -22 -37 -11 -17 11 -17 11 0 6 9 -3 17 -1 17 4 0 6 5
10 10 10 6 0 10 -4 10 -9z m110 0 c0 -5 -7 -12 -16 -15 -14 -5 -15 -4 -4 9 14
17 20 19 20 6z m-50 -21 c0 -5 -4 -10 -9 -10 -6 0 -13 5 -16 10 -3 6 1 10 9
10 9 0 16 -4 16 -10z m18 -17 c25 5 25 4 7 -9 -25 -18 -28 -18 -56 7 l-24 20
24 -11 c13 -7 35 -10 49 -7z m359 -9 c-3 -3 -12 -4 -19 -1 -8 3 -5 6 6 6 11 1
17 -2 13 -5z m-836 -47 c0 -6 3 -25 5 -41 3 -16 2 -36 -2 -45 -5 -11 -10 1
-13 33 -4 30 -12 51 -20 54 -12 4 -13 -7 -8 -62 4 -40 2 -66 -3 -66 -6 0 -11
18 -11 40 -3 82 -4 85 -23 82 -10 -2 -16 1 -12 6 8 14 86 14 87 -1z m722 -4
c-15 -10 -23 -26 -23 -44 0 -29 -14 -46 -25 -29 -3 5 -2 10 2 10 5 0 10 14 11
30 2 22 -2 30 -15 31 -10 1 0 5 22 9 22 4 42 8 45 8 3 1 -5 -6 -17 -15z m191
-36 c6 -30 1 -47 -14 -47 -4 0 -6 9 -3 20 3 11 0 20 -6 20 -6 0 -11 -10 -11
-22 0 -12 -3 -18 -7 -14 -5 4 -8 27 -8 50 0 39 1 41 22 32 12 -6 24 -24 27
-39z m-854 -2 c0 -25 -4 -45 -10 -45 -5 0 -10 9 -10 20 0 11 -6 20 -12 21 -10
0 -10 2 0 6 6 2 12 11 12 18 0 7 -6 16 -12 18 -7 3 -3 6 10 6 20 1 22 -4 22
-44z m60 35 c0 -6 -7 -10 -15 -10 -21 0 -19 -20 3 -21 16 -1 16 -2 -1 -6 -12
-3 -16 -10 -12 -24 4 -11 2 -19 -4 -19 -6 0 -11 13 -11 29 0 16 -2 35 -5 43
-4 9 3 14 20 16 14 1 25 -3 25 -8z m93 -22 l14 -33 7 33 c4 17 11 32 16 32 11
0 19 -73 9 -84 -5 -6 -9 0 -9 15 -1 22 -1 23 -14 6 -14 -18 -15 -18 -25 0 -9
16 -10 16 -11 1 0 -9 -5 -20 -10 -23 -7 -5 -10 9 -8 39 4 54 13 58 31 14z
m126 -4 c7 -19 11 -38 8 -41 -3 -2 -8 6 -12 18 l-7 22 -20 -24 c-15 -18 -18
-19 -14 -6 3 11 9 30 12 43 9 33 18 30 33 -12z m68 9 l10 -28 13 30 13 30 7
-25 c12 -37 11 -60 0 -60 -5 0 -10 8 -10 18 -1 15 -2 15 -12 -2 -10 -18 -11
-18 -24 5 l-13 24 -1 -22 c0 -13 -3 -23 -8 -23 -4 0 -6 18 -4 40 5 47 14 51
29 13z m104 0 l11 -28 15 28 c8 16 16 27 17 25 9 -10 13 -78 5 -78 -5 0 -9 8
-9 18 -1 15 -2 15 -15 -2 -13 -17 -15 -18 -21 -2 -6 15 -7 15 -21 -1 -13 -17
-14 -16 -9 7 3 14 6 33 6 43 0 25 9 21 21 -10z m143 5 c12 -20 0 -49 -25 -56
-11 -4 -12 -2 -1 9 20 21 15 59 -7 59 -24 0 -37 -36 -21 -55 8 -10 9 -15 2
-15 -19 0 -30 33 -21 58 7 18 15 23 35 20 15 -2 32 -11 38 -20z m109 -20 c-3
-41 -9 -56 -17 -47 -7 7 6 89 13 89 4 0 6 -19 4 -42z m70 32 c-18 -7 -23 -17
-23 -46 0 -49 -9 -39 -13 14 -3 41 -3 42 27 41 29 0 29 -1 9 -9z m173 -3 c6 0
8 -14 5 -36 -5 -25 -12 -37 -26 -40 -19 -3 -19 -3 -2 16 19 22 14 53 -9 53
-19 0 -34 -32 -23 -52 6 -11 4 -18 -7 -22 -8 -3 -12 -11 -8 -17 4 -8 3 -9 -5
-5 -8 5 -9 12 -2 20 6 7 8 22 4 34 -7 28 24 66 46 56 9 -3 21 -7 27 -7z m82
-6 c18 -11 11 -61 -10 -75 -40 -25 -79 41 -41 69 21 17 33 18 51 6z m49 -13
c-2 -7 3 -24 13 -38 27 -41 32 -50 23 -50 -5 0 -16 12 -25 28 -13 20 -18 22
-18 10 0 -10 -5 -18 -11 -18 -6 0 -8 7 -5 16 3 9 6 27 6 40 0 13 5 24 11 24 6
0 9 -6 6 -12z m33 -3 c-7 -9 -15 -13 -17 -11 -7 7 7 26 19 26 6 0 6 -6 -2 -15z
m116 -3 c21 -14 25 -45 8 -63 -10 -11 -22 -19 -28 -19 -6 0 -3 5 7 11 19 11
23 54 7 64 -18 11 -42 -17 -37 -42 5 -26 -8 -31 -17 -7 -9 25 15 59 44 63 3 0
10 -3 16 -7z m45 -62 l-10 -25 0 27 c-1 14 2 35 6 45 7 17 8 17 11 -2 1 -12
-2 -32 -7 -45z m-1196 20 c-3 -5 -10 -10 -16 -10 -5 0 -9 5 -9 10 0 6 7 10 16
10 8 0 12 -4 9 -10z m357 -232 c-2 -112 -5 -205 -7 -206 -2 -2 -27 -1 -56 3
-51 7 -52 24 -2 25 21 0 23 4 22 65 -1 60 -2 64 -20 54 -20 -10 -26 -29 -8
-29 5 0 7 -4 4 -10 -4 -6 -15 -2 -27 10 -12 11 -30 20 -39 20 -10 0 -20 4 -23
8 -11 18 13 31 62 34 33 2 52 7 52 16 0 8 -21 12 -70 12 l-70 0 0 -70 c0 -38
-4 -70 -8 -70 -17 0 -32 25 -32 52 0 27 -8 33 -39 28 -13 -1 -13 1 -2 14 11
13 17 14 28 4 13 -11 15 -2 11 72 -3 47 -8 92 -12 100 -5 13 1 15 34 12 22 -2
43 -9 47 -15 3 -5 1 -7 -4 -4 -14 9 -23 -16 -23 -64 0 -28 4 -39 15 -39 8 0
15 7 15 15 0 8 10 16 23 16 l22 2 -22 4 c-38 7 -26 63 12 63 41 0 55 -11 55
-41 0 -16 4 -29 8 -29 10 0 7 113 -2 129 -4 5 8 11 26 14 18 2 33 5 33 5 0 1
-1 -89 -3 -200z m-730 166 c5 -3 6 -10 2 -15 -3 -5 -10 -7 -15 -3 -25 15 -101
-8 -139 -43 -22 -19 -44 -32 -50 -28 -5 3 -10 1 -10 -4 0 -6 4 -11 9 -11 5 0
-2 -27 -16 -60 -51 -128 -22 -319 61 -408 40 -42 47 -46 104 -50 95 -7 172 30
208 99 8 16 21 29 29 29 20 0 19 -8 -8 -54 -29 -51 -107 -95 -181 -103 -62 -6
-146 12 -146 32 0 7 -8 12 -17 11 -11 0 -18 6 -17 16 1 9 -4 14 -11 12 -30
-12 -98 104 -110 189 -6 39 -5 46 8 42 10 -4 16 2 20 22 5 25 4 26 -8 10 -18
-24 -24 -11 -20 44 9 143 101 256 230 282 22 4 64 -1 77 -9z m79 -4 c10 0 19
-11 22 -27 6 -35 2 -40 -19 -22 -9 7 -25 18 -37 24 -31 15 -36 40 -6 32 13 -4
31 -7 40 -7z m589 -12 c0 -18 -2 -20 -10 -8 -7 12 -12 12 -22 2 -6 -6 -17 -12
-22 -12 -13 1 32 40 45 40 5 0 9 -10 9 -22z m442 9 c-6 -7 -12 -89 -14 -197
-3 -202 -11 -235 -63 -258 -40 -18 -121 -15 -164 8 -39 19 -78 80 -66 101 4 6
4 26 1 45 -5 24 -12 34 -25 34 -22 0 -35 36 -15 44 7 3 16 1 19 -5 9 -14 25
-1 25 22 0 20 -24 26 -35 9 -12 -20 -21 -10 -22 25 -1 40 3 42 29 18 17 -15
18 -14 18 34 0 34 -5 55 -16 63 -8 8 -14 9 -12 4 2 -5 -1 -10 -7 -11 -8 -3
-10 14 -6 45 1 5 7 9 14 9 6 0 24 4 40 8 18 5 27 3 27 -5 0 -6 -3 -9 -8 -6 -4
2 -16 -2 -27 -10 -18 -13 -18 -14 6 -16 13 0 33 0 43 1 10 1 30 -6 43 -14 15
-10 32 -13 46 -9 19 6 20 5 8 -9 -7 -9 -17 -14 -22 -11 -14 9 -10 -6 6 -22 24
-25 17 -40 -7 -16 -13 11 -26 21 -30 21 -5 1 -7 4 -5 9 1 4 5 6 9 5 14 -5 -4
25 -18 31 -26 10 -34 -32 -34 -169 0 -192 18 -225 121 -225 29 0 47 7 64 25
33 32 31 45 -4 45 -23 0 -33 -7 -43 -27 -15 -33 -64 -45 -74 -19 -3 9 -10 14
-14 11 -10 -6 -24 51 -15 65 8 13 48 13 62 -1 6 -6 32 -10 57 -8 25 3 46 0 46
-5 0 -5 3 -7 6 -3 11 10 14 339 3 358 -9 17 -6 19 27 19 28 0 34 -3 26 -13z
m102 -47 c-4 -8 -10 -49 -14 -91 -4 -42 -10 -81 -14 -87 -4 -7 -2 -12 3 -12
11 0 10 -21 -2 -50 -7 -17 -4 -46 6 -56 4 -4 7 -38 7 -75 0 -81 -5 -78 135
-80 120 -1 151 3 147 20 -1 7 2 10 7 7 5 -4 12 -2 16 4 12 19 26 10 20 -12
-12 -40 -32 -48 -114 -43 -42 2 -123 5 -179 6 -76 1 -101 4 -93 12 16 16 13
64 -4 71 -8 3 -15 1 -15 -4 0 -6 -5 -10 -11 -10 -7 0 -8 7 -4 18 4 9 11 34 16
55 5 22 16 46 24 54 20 19 20 47 0 39 -12 -4 -15 4 -15 45 0 28 4 48 9 45 5
-3 7 -15 4 -26 -3 -12 0 -20 7 -20 9 0 11 26 8 103 l-3 102 32 0 c26 0 32 -3
27 -15z m-734 0 c0 -5 -2 -10 -4 -10 -3 0 -8 5 -11 10 -3 6 -1 10 4 10 6 0 11
-4 11 -10z m-2 -38 c-18 -4 -48 -59 -42 -77 3 -6 -1 -12 -8 -12 -7 0 -22 -4
-32 -9 -14 -5 -17 -4 -12 4 4 7 3 12 -3 12 -5 0 -13 -4 -16 -10 -11 -18 -23
-11 -18 10 4 16 14 20 44 20 30 0 37 3 33 15 -4 11 -21 15 -55 15 -55 0 -53 3
-49 -97 1 -39 -2 -53 -12 -53 -10 0 -10 -2 -1 -8 8 -5 15 -54 20 -134 l8 -126
-26 -4 c-24 -4 -26 -1 -25 31 1 31 -2 36 -22 35 -18 -1 -20 1 -11 12 6 8 18
14 25 14 11 0 12 29 8 153 -3 83 -7 158 -9 165 -6 15 -98 8 -103 -8 -4 -12
-32 -14 -32 -2 0 4 7 15 14 25 11 15 31 17 144 17 129 0 166 5 157 20 -3 5 5
5 17 2 17 -5 19 -7 6 -10z m944 -16 c-5 -6 -12 -34 -16 -62 l-6 -51 46 -7 c26
-3 62 -6 82 -6 l34 0 -4 70 c-3 57 -1 69 10 65 7 -3 25 -5 39 -5 23 0 24 -2
12 -17 -10 -12 -14 -51 -14 -147 l0 -131 -32 -2 c-18 -1 -33 0 -33 1 0 1 6 25
14 52 22 81 20 94 -17 95 -18 1 -56 3 -85 5 l-54 4 4 -75 3 -75 -39 0 c-33 0
-37 2 -26 15 8 9 12 61 13 152 l2 138 38 -4 c26 -2 35 -7 29 -15z m558 5 c-5
-11 -10 -42 -10 -70 0 -28 -3 -51 -7 -51 -5 0 -7 -31 -5 -70 2 -38 -1 -100 -7
-137 -8 -56 -16 -73 -41 -95 -37 -34 -67 -42 -126 -33 -56 8 -111 53 -119 98
-3 18 -2 79 2 137 4 58 5 125 2 150 -4 25 -6 45 -5 46 0 1 18 -1 38 -3 33 -5
36 -7 28 -23 -6 -10 -10 -38 -10 -62 0 -54 -9 -90 -21 -82 -5 3 -9 1 -9 -5 0
-5 5 -13 10 -16 6 -3 10 -40 10 -81 0 -86 8 -108 50 -129 57 -29 117 -13 145
39 16 32 32 202 31 339 -1 67 -1 67 27 67 24 0 26 -2 17 -19z m-1190 -11 c0
-23 -25 -27 -33 -6 -7 16 1 26 20 26 7 0 13 -9 13 -20z m180 10 c0 -5 -4 -10
-10 -10 -5 0 -10 5 -10 10 0 6 5 10 10 10 6 0 10 -4 10 -10z m71 -27 c12 -15
12 -16 -6 -11 -15 4 -21 0 -22 -12 -1 -11 5 -17 15 -15 9 1 12 0 5 -2 -6 -2
-14 -11 -17 -19 -3 -8 -2 -13 3 -10 15 9 28 -17 29 -56 3 -86 -113 -91 -134
-5 -4 19 -2 27 7 27 10 0 10 3 1 12 -19 19 -14 26 16 22 15 -2 21 -1 14 2 -6
3 -10 9 -7 13 7 13 -49 -1 -57 -13 -4 -6 -8 5 -8 24 0 26 3 31 10 20 9 -14 15
-6 10 15 -1 5 7 2 17 -6 21 -19 71 -30 78 -18 3 4 -4 14 -15 22 -11 7 -17 17
-13 20 13 13 61 7 74 -10z m295 -25 c0 -27 -12 -38 -43 -38 -18 0 -23 5 -22
23 1 16 3 17 6 5 4 -16 8 -15 31 7 15 14 27 25 27 25 1 0 1 -10 1 -22z m-846
-13 c-7 -9 -15 -13 -19 -10 -3 3 1 10 9 15 21 14 24 12 10 -5z m654 0 c-4 -8
-8 -15 -10 -15 -2 0 -4 7 -4 15 0 8 4 15 10 15 5 0 7 -7 4 -15z m-888 -24 c-4
-5 0 -11 6 -14 7 -2 1 -4 -14 -4 -21 0 -24 2 -15 13 14 15 31 19 23 5z m999
-12 c-7 -22 14 -36 26 -18 7 12 9 11 10 -1 1 -8 1 -18 0 -22 -1 -10 32 3 41
16 5 7 8 5 8 -6 0 -9 -6 -18 -12 -21 -10 -3 -10 -7 1 -20 11 -14 11 -21 -3
-42 -9 -14 -21 -25 -26 -25 -6 0 -10 -7 -10 -15 0 -16 -1 -16 -37 -20 -22 -2
-23 0 -23 95 0 80 3 97 15 97 10 0 13 -6 10 -18z m-1000 -29 c-3 -5 -10 -10
-16 -10 -5 0 -9 5 -9 10 0 6 7 10 16 10 8 0 12 -4 9 -10z m182 4 c-3 -3 -12
-4 -19 -1 -8 3 -5 6 6 6 11 1 17 -2 13 -5z m-181 -53 c-4 -5 -1 -12 4 -14 6
-3 5 -4 -2 -3 -15 3 -23 26 -8 26 6 0 9 -4 6 -9z m349 -21 c3 -5 1 -10 -4 -10
-6 0 -11 5 -11 10 0 6 2 10 4 10 3 0 8 -4 11 -10z m-107 -12 c9 -9 12 -9 12 2
0 15 33 -26 36 -45 1 -5 5 -17 9 -26 4 -12 -1 -18 -19 -23 -34 -8 -75 9 -85
36 -5 13 -11 22 -15 21 -17 -7 -46 -2 -46 8 0 6 9 9 20 6 11 -3 20 -2 20 2 0
5 35 26 51 30 3 0 10 -4 17 -11z m96 -51 c4 -19 3 -26 -4 -22 -5 3 -10 18 -10
32 0 32 5 28 14 -10z m-386 -3 c13 -9 30 -13 38 -10 9 3 12 1 9 -4 -3 -6 -15
-10 -26 -10 -10 0 -19 -4 -19 -10 0 -5 -4 -10 -10 -10 -5 0 -7 6 -4 14 3 7 -2
21 -11 30 -21 21 -6 21 23 0z m585 -1 c8 -7 -11 -33 -24 -33 -5 0 -9 9 -9 20
0 19 20 27 33 13z m-141 -38 c9 -20 18 -25 48 -25 27 0 39 -5 43 -17 2 -10 8
-26 12 -35 5 -13 2 -18 -9 -18 -19 0 -21 -11 -4 -28 8 -8 47 -12 108 -13 52 0
135 -6 183 -13 66 -9 90 -9 97 -1 5 7 24 10 42 8 18 -2 42 -4 53 -4 11 0 65 0
120 0 99 0 119 -4 99 -17 -6 -4 -14 -20 -18 -35 -4 -15 -13 -30 -21 -33 -16
-6 -75 16 -75 28 0 11 -28 10 -34 -1 -4 -5 42 -33 101 -63 60 -29 109 -56 111
-60 2 -4 17 -1 33 7 26 14 28 14 22 -1 -5 -14 -3 -15 17 -4 26 14 25 12 -22
-57 -39 -58 -36 -84 14 -139 36 -39 40 -48 30 -64 -10 -16 -9 -18 3 -14 8 4
15 11 15 16 0 6 9 8 20 5 11 -3 18 -2 15 3 -3 4 10 15 28 24 32 15 32 15 59
-17 15 -17 28 -36 28 -42 0 -5 -5 -3 -11 5 -8 11 -9 5 -7 -27 2 -23 -1 -41 -6
-40 -5 1 -11 -5 -13 -13 -2 -11 6 -16 28 -17 29 -2 31 -1 24 25 -5 20 -4 24 5
16 20 -20 7 -49 -20 -49 -14 0 -30 -3 -37 -8 -6 -4 -18 -4 -26 -1 -17 6 -57
-12 -57 -26 0 -5 8 -11 18 -14 9 -3 5 -4 -9 -2 -22 2 -25 -1 -23 -21 1 -14 -4
-27 -12 -30 -8 -3 -14 -11 -14 -19 0 -10 -12 -14 -40 -14 -43 0 -53 -14 -18
-26 19 -6 19 -7 5 -16 -10 -5 -17 -16 -17 -23 0 -8 -9 -15 -20 -15 -12 0 -24
-9 -29 -22 -6 -16 -10 -18 -16 -8 -5 9 -4 15 4 18 9 3 8 10 -3 27 -9 13 -13
31 -10 39 10 26 -14 56 -46 56 -16 0 -32 5 -35 10 -3 6 -14 10 -23 10 -13 0
-13 -2 4 -15 10 -8 15 -14 9 -14 -5 0 -19 6 -29 14 -19 14 -19 15 0 20 48 16
78 52 88 108 4 26 -19 88 -36 95 -5 2 -8 10 -8 18 0 8 -7 31 -17 52 -9 20 -17
39 -17 42 -4 17 -20 30 -37 30 -14 0 -26 13 -40 46 -11 25 -28 48 -37 52 -9 3
-23 12 -30 19 -7 7 -25 16 -40 19 -15 4 -50 22 -79 40 -66 43 -140 53 -308 41
-53 -3 -69 -10 -124 -50 -35 -26 -70 -47 -78 -47 -7 0 -25 -11 -39 -25 -14
-14 -30 -23 -36 -19 -5 4 -30 -17 -55 -46 -25 -28 -57 -56 -69 -61 -14 -5 -24
-17 -24 -28 0 -10 -6 -24 -14 -30 -8 -7 -17 -28 -21 -49 -4 -20 -9 -41 -13
-46 -11 -19 -10 -69 3 -100 20 -48 49 -70 82 -62 19 5 24 4 14 -3 -8 -5 -16
-17 -17 -26 -3 -20 -14 -33 -14 -17 0 7 -11 12 -25 12 -20 0 -25 -5 -25 -25 0
-14 -7 -28 -15 -31 -8 -4 -15 -12 -15 -19 0 -8 -9 -17 -20 -20 -11 -3 -20 -13
-20 -21 0 -8 -7 -17 -15 -20 -8 -4 -15 -12 -15 -20 0 -28 -127 0 -131 28 -6
36 -21 59 -36 54 -10 -4 -12 -2 -5 11 7 11 5 21 -4 31 -8 7 -14 22 -14 31 0
10 -7 24 -15 31 -12 10 -15 10 -15 -4 0 -9 4 -16 8 -16 14 0 11 -38 -4 -44 -8
-3 -14 -1 -14 3 0 5 -10 7 -22 4 -19 -4 -20 -3 -8 6 12 9 13 12 1 20 -15 10
-6 55 10 46 5 -4 9 -1 9 4 0 6 -3 11 -8 11 -4 0 -13 9 -20 21 -12 18 -11 19 6
10 10 -5 24 -17 32 -25 19 -24 26 -20 28 17 2 29 0 30 -12 15 -19 -25 -24 -22
-22 12 1 31 11 40 19 18 2 -7 8 -10 12 -6 15 14 -18 38 -51 38 -19 0 -34 4
-34 10 0 5 7 6 17 3 12 -5 14 -3 7 8 -19 29 -31 78 -21 82 6 2 6 10 -2 24 -6
12 -8 28 -5 36 3 9 -2 29 -11 46 -16 31 -16 32 5 19 11 -7 21 -20 21 -28 1 -8
3 -26 5 -40 2 -14 4 -37 5 -52 3 -39 20 -35 59 13 26 33 30 43 19 50 -11 7
-11 9 -1 9 8 0 11 7 8 18 -3 9 -1 24 4 32 8 13 11 13 26 -2 16 -16 20 -14 67
28 27 24 53 44 58 44 19 0 8 18 -13 23 -13 3 -32 8 -44 12 -13 4 -27 1 -37 -9
-13 -14 -16 -14 -21 0 -3 8 -2 13 3 10 5 -3 14 1 21 9 7 8 16 13 20 10 4 -3
10 1 13 9 5 13 58 19 90 10 9 -3 15 -9 12 -14 -11 -18 13 -18 41 0 34 23 38
44 9 48 -11 1 -25 13 -31 26 -10 20 -8 22 13 18 13 -2 37 1 53 8 26 11 33 10
50 -5 18 -16 20 -17 20 -2 0 10 5 17 11 17 6 0 8 -9 4 -20 -8 -25 -4 -25 23
-1 12 10 22 27 22 37 0 25 -27 64 -44 64 -8 0 -16 7 -20 15 -3 8 -12 15 -21
15 -8 0 -15 5 -15 10 0 7 7 7 21 -1 12 -6 30 -8 41 -6 25 7 70 -12 61 -26 -3
-5 0 -8 8 -5 8 3 22 -6 32 -19 30 -38 50 -44 110 -32 55 11 55 11 45 40 -9 27
-14 29 -59 29 -27 0 -49 2 -49 4 0 2 -3 12 -7 21 -5 15 -3 16 15 6 22 -12 62
-15 62 -5 0 3 -10 14 -22 24 -22 18 -23 19 -4 33 10 8 16 19 12 25 -4 7 -2 12
4 12 6 0 16 -11 22 -25z m83 15 c6 -1 -3 -6 -19 -11 -32 -9 -42 -6 -32 9 3 6
14 9 24 7 9 -2 22 -4 27 -5z m-240 -30 c-3 -5 -15 -10 -26 -10 -10 0 -19 5
-19 10 0 6 12 10 26 10 14 0 23 -4 19 -10z m-125 -20 c0 -5 -4 -10 -10 -10 -5
0 -10 5 -10 10 0 6 5 10 10 10 6 0 10 -4 10 -10z m1100 -30 c0 -5 -5 -10 -11
-10 -5 0 -7 5 -4 10 3 6 8 10 11 10 2 0 4 -4 4 -10z m-525 -31 c16 -6 12 -8
-16 -8 -22 -1 -42 5 -50 15 -11 13 -9 14 17 8 16 -4 38 -11 49 -15z m-655 -69
c0 -6 11 -8 26 -4 18 5 25 3 21 -3 -4 -6 -19 -14 -33 -17 -20 -5 -32 -2 -46
13 -19 21 -19 21 7 21 14 0 25 -5 25 -10z m1290 -6 c0 -2 -7 -4 -15 -4 -8 0
-15 4 -15 10 0 5 7 7 15 4 8 -4 15 -8 15 -10z m-1173 0 c-3 -3 -12 -4 -19 -1
-8 3 -5 6 6 6 11 1 17 -2 13 -5z m-588 -69 c-3 -2 -16 10 -29 28 l-23 32 29
-27 c15 -15 26 -30 23 -33z m1160 -2 c31 -4 69 -16 87 -28 17 -12 66 -38 108
-59 57 -28 76 -42 71 -53 -3 -9 0 -22 6 -29 10 -12 8 -13 -7 -7 -15 5 -17 4
-8 -8 13 -18 16 -62 4 -54 -6 3 -7 0 -4 -8 7 -18 -27 -28 -63 -18 -14 4 -30
16 -34 28 -10 28 12 25 46 -7 32 -30 32 -20 -2 37 l-27 46 27 -18 c15 -9 27
-21 27 -26 0 -5 4 -9 8 -9 16 0 5 47 -18 78 -22 30 -60 44 -60 22 0 -5 -18
-21 -39 -34 -22 -14 -43 -36 -46 -48 -4 -13 -14 -31 -23 -41 -15 -16 -14 -17
1 -11 9 3 17 2 17 -4 0 -6 -6 -13 -12 -15 -9 -4 -8 -6 3 -6 8 -1 20 4 26 10
16 16 92 -66 86 -94 -4 -20 -2 -20 19 6 13 15 30 27 37 27 8 0 2 -9 -13 -21
-14 -11 -26 -29 -26 -40 0 -22 -18 -26 -26 -4 -8 20 -40 30 -99 30 -42 0 -50
3 -47 18 3 17 -13 24 -21 10 -8 -14 23 -73 38 -73 8 0 15 -4 15 -10 0 -5 -4
-10 -10 -10 -5 0 -10 -11 -10 -24 0 -27 -20 -39 -41 -24 -11 8 -10 9 4 4 11
-4 16 -2 11 5 -3 6 -15 9 -25 6 -20 -5 -26 7 -9 18 6 3 10 11 10 18 0 6 -11 0
-25 -15 -14 -15 -25 -31 -25 -36 0 -5 -10 -12 -22 -15 -13 -2 -30 -7 -39 -11
-19 -8 -83 40 -73 55 3 5 9 7 14 4 4 -3 21 2 36 11 l29 16 -32 -6 c-20 -3 -33
-1 -33 5 0 6 5 7 10 4 6 -3 10 -2 10 4 0 5 -5 13 -10 16 -6 4 -8 11 -5 16 4 5
1 9 -5 9 -7 0 -10 -7 -6 -15 3 -9 0 -15 -10 -15 -8 0 -13 4 -10 8 2 4 -4 14
-16 21 -18 11 -19 10 -13 -11 4 -13 14 -31 23 -40 14 -16 13 -18 -6 -18 -14 0
-20 5 -16 14 5 13 -35 50 -44 41 -2 -2 0 -17 6 -34 8 -23 7 -32 -3 -41 -12
-10 -12 -16 3 -36 9 -13 25 -24 34 -24 28 0 48 -12 41 -23 -4 -7 0 -8 11 -4
10 4 26 3 35 -3 10 -5 21 -7 25 -3 6 6 76 11 76 5 0 -2 -10 -12 -22 -22 -17
-13 -27 -15 -36 -8 -6 6 -33 12 -59 13 -29 2 -51 9 -59 19 -6 9 -16 16 -21 16
-6 0 -22 11 -36 24 -17 16 -33 22 -47 19 -13 -3 -20 0 -21 8 0 8 -5 5 -10 -6
-8 -17 -8 -16 -4 7 5 28 -9 48 -19 26 -3 -7 -3 0 -1 16 2 16 6 31 9 33 3 3 -2
20 -10 37 l-16 31 25 -29 c17 -22 29 -28 46 -23 17 4 24 0 32 -20 5 -14 12
-23 15 -20 3 3 0 16 -7 29 -7 12 -12 30 -10 38 2 12 0 13 -10 3 -15 -15 -49
-17 -49 -4 0 5 10 11 23 15 l22 5 -20 21 c-12 11 -35 22 -53 24 -17 3 -37 8
-43 12 -7 4 -9 3 -5 -4 3 -6 2 -13 -4 -17 -5 -3 -10 -2 -10 4 0 5 -3 17 -7 27
-4 11 -3 15 5 10 7 -4 12 6 14 26 2 24 8 33 21 32 10 -1 17 5 17 15 0 14 2 14
10 1 5 -8 12 -11 15 -8 12 12 -7 30 -26 25 -17 -5 -17 -4 -1 22 l16 26 -22
-19 c-12 -10 -24 -27 -27 -37 -4 -11 -14 -19 -23 -18 -11 0 -12 3 -4 6 6 2 12
11 12 19 0 8 4 14 9 14 5 0 12 9 16 19 3 10 19 24 35 31 17 7 58 32 92 56 47
33 73 44 103 45 22 0 51 5 65 9 14 5 39 6 55 4 17 -3 54 -8 84 -11z m846 -23
c3 -5 1 -10 -4 -10 -6 0 -11 5 -11 10 0 6 2 10 4 10 3 0 8 -4 11 -10z m75 -21
c0 -18 -2 -19 -15 -9 -8 7 -15 16 -15 21 0 5 7 9 15 9 9 0 15 -9 15 -21z
m-2039 -121 c-8 -39 -17 -15 -15 40 3 90 7 102 13 37 3 -33 4 -68 2 -77z
m1904 122 c-3 -5 -11 -10 -16 -10 -6 0 -7 5 -4 10 3 6 11 10 16 10 6 0 7 -4 4
-10z m-55 -20 c0 -5 -5 -10 -11 -10 -5 0 -7 5 -4 10 3 6 8 10 11 10 2 0 4 -4
4 -10z m127 -25 c-4 -8 -12 -15 -19 -14 -10 0 -10 2 0 6 6 2 12 12 12 21 0 8
3 13 6 9 4 -3 4 -13 1 -22z m-52 5 c3 -5 -3 -10 -14 -10 -11 0 -23 5 -26 10
-3 6 3 10 14 10 11 0 23 -4 26 -10z m115 -10 c0 -5 -2 -10 -4 -10 -3 0 -8 5
-11 10 -3 6 -1 10 4 10 6 0 11 -4 11 -10z m-1835 -10 c3 -5 -1 -10 -9 -10 -9
0 -16 5 -16 10 0 6 4 10 9 10 6 0 13 -4 16 -10z m1688 -13 c12 -19 13 -24 2
-24 -8 0 -12 4 -9 9 7 11 -49 -2 -56 -13 -3 -4 -11 -5 -18 0 -8 5 0 12 23 21
19 7 32 17 29 22 -13 20 15 6 29 -15z m-577 -14 c-2 -10 -11 -20 -20 -21 -15
-3 -16 -1 -6 17 13 26 29 28 26 4z m-1154 -25 c-7 -7 -12 -8 -12 -2 0 14 12
26 19 19 2 -3 -1 -11 -7 -17z m479 -5 c-8 -15 -10 -15 -11 -2 0 17 10 32 18
25 2 -3 -1 -13 -7 -23z m1133 -20 c-16 -16 -31 -24 -33 -19 -4 11 35 46 51 46
6 0 -2 -12 -18 -27z m-510 7 c-13 -5 -24 -21 -27 -39 -8 -39 -24 -41 -21 -2 3
41 11 51 42 50 25 0 25 -1 6 -9z m564 -4 c-10 -7 -18 -22 -18 -34 0 -11 -7
-23 -16 -26 -8 -3 -12 -10 -9 -16 3 -5 -1 -10 -10 -10 -12 0 -15 -5 -10 -17 5
-15 4 -16 -6 -5 -10 9 -10 15 -2 23 6 6 9 17 7 24 -5 11 59 75 74 75 4 0 -1
-7 -10 -14z m193 -9 c-13 -13 -26 -3 -16 12 3 6 11 8 17 5 6 -4 6 -10 -1 -17z
m159 9 c0 -2 -7 -7 -16 -10 -8 -3 -12 -2 -9 4 6 10 25 14 25 6z m-1558 -31 c3
-14 1 -25 -3 -25 -5 0 -9 7 -9 15 0 8 -4 15 -9 15 -12 0 -21 -25 -16 -50 3
-14 -1 -20 -16 -20 -21 0 -25 -20 -8 -37 8 -8 7 -17 -2 -32 -12 -18 -11 -23 6
-36 14 -12 16 -18 8 -21 -7 -3 -13 -12 -13 -20 0 -9 -4 -12 -10 -9 -5 3 -7 0
-4 -8 3 -8 -1 -17 -9 -20 -9 -3 -24 9 -40 33 -39 60 -25 100 69 203 41 44 50
46 56 12z m1348 21 c0 -3 -4 -8 -10 -11 -5 -3 -10 -1 -10 4 0 6 5 11 10 11 6
0 10 -2 10 -4z m-1973 -85 c18 -19 33 -39 33 -45 0 -6 -21 11 -45 37 -25 26
-45 55 -45 65 1 15 2 14 12 -3 6 -11 27 -35 45 -54z m663 59 c0 -5 -5 -10 -11
-10 -5 0 -7 5 -4 10 3 6 8 10 11 10 2 0 4 -4 4 -10z m795 -40 c-3 -11 1 -20
10 -24 8 -3 15 -4 15 -3 0 1 -4 17 -9 35 -14 46 -5 40 20 -15 12 -27 23 -51
26 -55 2 -5 -1 -8 -6 -8 -6 0 -11 7 -11 15 0 16 -9 19 -35 8 -15 -5 -14 -8 6
-20 24 -14 24 -14 2 -10 -13 3 -26 1 -29 -4 -3 -5 0 -9 5 -9 6 0 11 -5 11 -12
0 -6 -3 -8 -7 -5 -3 4 -12 2 -20 -4 -10 -9 -11 -15 -2 -26 9 -10 9 -17 1 -25
-9 -9 -15 -7 -26 7 -13 18 -14 18 -25 -4 -10 -18 -15 -20 -27 -10 -13 11 -11
15 16 29 29 15 70 64 70 84 0 5 -12 -1 -27 -15 l-26 -24 16 25 c9 13 17 29 17
34 0 6 -7 0 -16 -12 -8 -12 -20 -22 -25 -22 -6 0 -3 7 5 16 9 8 19 27 22 41 5
18 12 23 25 20 11 -3 19 -1 19 4 0 5 -4 9 -10 9 -5 0 -10 5 -10 11 0 8 5 7 15
-1 9 -7 13 -21 10 -30z m524 18 c-9 -16 -14 -19 -17 -9 -2 7 2 17 9 22 20 13
21 11 8 -13z m-1821 -13 c-10 -8 -48 -25 -48 -21 0 12 33 36 41 30 6 -3 9 -7
7 -9z m1884 -11 c-5 -24 -21 -44 -36 -44 -7 0 -6 3 2 8 7 5 10 16 6 25 -3 10
-1 17 6 17 6 0 8 5 4 11 -4 7 -1 10 7 7 8 -3 12 -14 11 -24z m-219 9 c7 -6
-11 -33 -22 -33 -4 0 -7 9 -7 20 0 19 16 27 29 13z m147 -19 c0 -2 -7 -4 -15
-4 -8 0 -15 4 -15 10 0 5 7 7 15 4 8 -4 15 -8 15 -10z m-1333 -17 c-3 -7 7
-24 21 -39 14 -15 23 -31 19 -34 -7 -8 -37 20 -37 35 0 15 -17 14 -23 -1 -2
-7 -7 -10 -10 -7 -10 8 15 69 25 62 5 -2 7 -10 5 -16z m1247 7 c3 -8 2 -12 -4
-9 -6 3 -10 10 -10 16 0 14 7 11 14 -7z m226 1 c-7 -8 -18 -15 -24 -15 -6 0
-2 7 8 15 25 19 32 19 16 0z m-160 -35 c0 -10 -4 -21 -9 -24 -12 -8 -34 21
-28 36 4 8 6 7 6 -4 1 -10 6 -18 12 -18 6 0 9 9 6 20 -3 11 -1 18 4 14 5 -3 9
-14 9 -24z m-1987 -51 c7 -27 -11 -24 -23 4 -5 12 -17 33 -27 47 -16 23 -15
23 14 -4 17 -15 33 -37 36 -47z m650 -27 c11 -12 34 -26 51 -30 16 -4 31 -13
34 -20 3 -9 -3 -10 -23 -2 -66 25 -117 84 -98 113 5 8 9 3 11 -13 2 -14 13
-35 25 -48z m744 26 c-12 -13 -24 -19 -26 -14 -2 5 4 15 15 23 28 21 35 15 11
-9z m-1299 -6 c6 -18 -15 -14 -22 4 -4 10 -1 14 6 12 6 -2 14 -10 16 -16z
m577 0 c-3 -3 -11 0 -18 7 -9 10 -8 11 6 5 10 -3 15 -9 12 -12z m898 -14 c21
-33 6 -37 -23 -6 -15 16 -17 24 -8 29 7 5 13 7 13 6 1 -1 9 -14 18 -29z m454
-12 c-7 -18 -47 -22 -47 -5 0 6 5 20 11 31 10 18 12 19 26 5 9 -9 13 -23 10
-31z m-757 18 c16 1 26 -5 28 -18 3 -11 0 -16 -7 -12 -6 4 -15 -4 -21 -18 -5
-14 -12 -26 -14 -26 -3 0 -3 7 0 15 4 8 1 15 -5 15 -6 0 -11 -7 -11 -16 0 -9
-6 -14 -12 -11 -7 2 -11 11 -10 18 2 8 5 25 7 39 2 14 4 27 4 30 1 3 5 0 9 -6
4 -6 18 -11 32 -10z m697 -9 c-4 -8 -11 -15 -17 -15 -6 0 -6 7 2 20 14 22 24
19 15 -5z m-449 -14 c4 -25 -13 -50 -25 -37 -4 4 -1 11 7 17 13 8 13 11 -2 20
-10 5 -18 15 -18 20 0 21 35 3 38 -20z m-1598 -11 c0 -22 -40 -93 -48 -86 -2
3 4 18 14 33 10 15 17 41 16 56 -2 17 2 26 8 22 5 -3 10 -15 10 -25z m727 -22
c27 -25 29 -38 8 -38 -8 0 -15 -3 -15 -7 0 -5 -11 -8 -25 -8 -14 0 -25 1 -25
1 0 1 7 14 14 30 8 15 13 31 10 36 -10 16 10 8 33 -14z m693 3 c0 -5 -9 -7
-20 -4 -11 3 -20 7 -20 9 0 2 9 4 20 4 11 0 20 -4 20 -9z m-1178 -25 c4 -17 1
-23 -9 -19 -14 6 -18 43 -4 43 5 0 11 -11 13 -24z m370 -18 c-4 -18 -6 -19
-14 -4 -12 22 -1 57 11 37 5 -7 6 -22 3 -33z m1022 27 c-4 -9 -15 -20 -26 -26
-20 -11 -20 -11 -2 15 21 28 37 34 28 11z m-794 -24 c0 -12 -20 -25 -27 -18
-7 7 6 27 18 27 5 0 9 -4 9 -9z m-830 -21 c0 -5 -5 -10 -11 -10 -5 0 -7 5 -4
10 3 6 8 10 11 10 2 0 4 -4 4 -10z m198 -10 c12 -20 12 -21 -13 -4 -28 18 -31
24 -12 24 7 0 18 -9 25 -20z m1175 5 c-3 -9 -8 -14 -10 -11 -3 3 -2 9 2 15 9
16 15 13 8 -4z m651 -6 c-8 -14 -21 -11 -21 5 0 8 6 12 14 9 7 -3 10 -9 7 -14z
m-704 -9 c-23 -20 -34 -24 -57 -21 -7 1 -13 -3 -13 -9 0 -5 -16 -10 -36 -10
-47 0 -40 22 10 34 28 6 40 5 46 -4 6 -10 12 -7 26 9 10 11 25 21 33 21 9 0 6
-7 -9 -20z m640 10 c0 -5 -4 -10 -10 -10 -5 0 -10 5 -10 10 0 6 5 10 10 10 6
0 10 -4 10 -10z m-1017 -52 c37 -42 49 -74 25 -65 -7 2 -12 8 -11 13 1 5 -12
9 -28 10 -32 1 -72 31 -62 47 3 5 10 3 15 -7 10 -18 38 -22 38 -5 0 5 -5 7
-12 3 -7 -5 -9 -2 -5 9 5 13 0 16 -28 13 -34 -2 -47 7 -22 17 33 14 56 5 90
-35z m473 16 c-3 -9 -9 -27 -12 -40 -8 -29 -18 -30 -37 -3 -9 13 -17 16 -22
10 -12 -21 -26 -12 -15 10 19 34 99 56 86 23z m674 -13 c0 -11 -3 -12 -8 -4
-5 8 -12 9 -22 2 -13 -8 -13 -10 0 -18 8 -5 18 -7 22 -5 4 3 8 0 8 -5 0 -6 -8
-11 -17 -11 -14 0 -13 -3 5 -16 17 -11 21 -21 16 -37 -10 -32 -12 -32 -33 -8
-15 17 -18 28 -11 47 5 13 5 26 0 29 -4 3 -10 -1 -13 -7 -2 -8 -8 -9 -13 -4
-5 5 -4 11 4 13 6 3 9 9 6 14 -3 6 -11 5 -20 -2 -11 -9 -14 -7 -14 10 0 23 19
28 39 9 11 -11 13 -10 8 3 -4 12 0 15 19 11 14 -2 24 -11 24 -21z m-1370 -1
c0 -5 -5 -10 -11 -10 -5 0 -7 5 -4 10 3 6 8 10 11 10 2 0 4 -4 4 -10z m40 -5
c0 -14 12 -19 33 -16 11 2 9 -17 -3 -24 -5 -3 -10 -12 -10 -18 0 -7 4 -6 10 3
8 13 10 12 10 -2 0 -20 -2 -21 -24 -12 -8 3 -12 12 -9 20 3 8 1 14 -5 14 -6 0
-12 -6 -15 -12 -2 -7 -8 -10 -12 -6 -4 4 -2 15 6 24 13 16 12 16 -8 6 -12 -7
-27 -28 -34 -46 -7 -19 -16 -33 -20 -30 -4 2 -11 -5 -14 -17 -5 -15 -10 -18
-18 -10 -7 7 -6 15 4 28 8 10 17 22 21 28 24 34 71 85 79 85 5 0 9 -7 9 -15z
m733 -19 c8 3 18 0 23 -7 4 -8 3 -10 -4 -5 -7 4 -21 -2 -33 -13 -17 -16 -25
-18 -40 -8 -25 16 -24 31 2 24 17 -5 18 -3 7 10 -12 14 -11 15 9 5 12 -7 28
-9 36 -6z m-237 -11 c-23 -17 -36 -19 -36 -6 0 5 8 12 18 14 32 9 37 6 18 -8z
m-1116 -5 c8 -5 11 -10 5 -10 -5 0 -17 5 -25 10 -8 5 -10 10 -5 10 6 0 17 -5
25 -10z m50 -11 c0 -5 -8 -9 -17 -8 -11 0 -13 3 -5 6 6 2 9 10 6 15 -4 7 -2 8
4 4 7 -4 12 -11 12 -17z m865 12 c3 -5 1 -12 -4 -15 -5 -3 -11 1 -15 9 -6 16
9 21 19 6z m143 -4 c13 4 12 2 -3 -10 -21 -16 -40 -4 -28 17 4 6 8 6 10 -1 3
-7 12 -9 21 -6z m-355 -10 c4 3 7 4 7 1 0 -3 -8 -12 -17 -19 -11 -10 -14 -10
-9 -1 4 6 2 12 -3 12 -6 0 -11 5 -11 11 0 8 4 9 13 0 8 -6 17 -8 20 -4z m294
7 c-3 -3 -12 -4 -19 -1 -8 3 -5 6 6 6 11 1 17 -2 13 -5z m221 -14 c1 -8 -11
-24 -27 -35 -17 -11 -32 -28 -35 -39 -3 -11 -8 -17 -12 -14 -3 4 -18 2 -32 -3
-26 -10 -26 -10 -8 10 12 14 23 18 30 12 7 -6 11 -1 13 16 1 19 -1 22 -8 12
-5 -8 -9 -10 -9 -4 0 5 -5 4 -12 -3 -9 -9 -16 -8 -31 6 -18 16 -20 16 -33 -3
-8 -10 -14 -14 -14 -8 0 21 31 38 48 26 19 -12 72 12 72 34 0 17 54 11 58 -7z
m192 10 c0 -5 -2 -10 -4 -10 -3 0 -8 5 -11 10 -3 6 -1 10 4 10 6 0 11 -4 11
-10z m483 -30 c3 -13 0 -20 -9 -20 -8 0 -11 6 -8 15 4 8 1 15 -5 15 -6 0 -11
7 -11 16 0 22 26 1 33 -26z m-2139 15 c-6 -16 -24 -21 -24 -7 0 11 11 22 21
22 5 0 6 -7 3 -15z m171 6 c3 -5 1 -12 -5 -16 -5 -3 -10 -1 -10 6 0 11 -46 9
-85 -5 -13 -5 -11 -2 5 8 28 17 86 21 95 7z m1050 -7 c14 -9 25 -21 25 -26 0
-5 -13 0 -29 11 -15 11 -31 18 -35 14 -3 -3 -6 -1 -6 5 0 17 16 15 45 -4z
m403 -8 c3 -15 1 -16 -17 -5 -11 7 -17 17 -14 22 8 13 28 2 31 -17z m412 4 c0
-19 -13 -41 -19 -32 -3 5 -22 12 -42 15 -20 2 -45 10 -55 16 -16 10 -14 11 13
6 18 -4 40 -2 49 3 18 10 54 5 54 -8z m-495 -1 c11 -17 -1 -21 -15 -4 -8 9 -8
15 -2 15 6 0 14 -5 17 -11z m-1265 -19 c12 -12 15 -20 7 -20 -7 0 -18 9 -25
20 -7 11 -10 20 -7 20 3 0 14 -9 25 -20z m120 11 c0 -5 -9 -11 -20 -14 -22 -6
-28 8 -7 16 19 8 27 8 27 -2z m360 5 c0 -2 -8 -10 -17 -17 -16 -13 -17 -12 -4
4 13 16 21 21 21 13z m366 -33 c3 -31 -14 -47 -33 -31 -10 8 -9 16 3 40 17 34
25 31 30 -9z m544 33 c0 -3 -4 -8 -10 -11 -5 -3 -10 -1 -10 4 0 6 5 11 10 11
6 0 10 -2 10 -4z m-680 -28 c11 -12 27 -23 37 -24 9 -2 23 -10 32 -19 15 -15
15 -16 -1 -9 -10 3 -18 1 -18 -5 0 -16 42 -23 73 -12 26 10 57 6 57 -8 0 -17
-27 -44 -34 -33 -3 6 -2 13 4 17 15 9 2 25 -16 18 -9 -3 -12 -12 -8 -25 4 -15
2 -19 -7 -15 -8 2 -13 10 -11 16 3 15 -15 14 -20 -1 -5 -13 -23 4 -68 61 -14
17 -33 34 -42 37 -10 3 -18 10 -18 15 0 16 18 10 40 -13z m1114 6 c4 -9 2 -13
-5 -8 -6 4 -15 0 -20 -7 -6 -10 -9 -8 -9 9 0 25 25 30 34 6z m-1999 -4 c-3 -5
-1 -10 6 -10 7 0 10 -2 7 -5 -3 -3 -13 -2 -22 1 -14 5 -15 9 -4 15 17 11 20
11 13 -1z m1630 -8 c-3 -3 -11 0 -18 7 -9 10 -8 11 6 5 10 -3 15 -9 12 -12z
m223 -1 c3 -8 -1 -12 -9 -9 -7 2 -15 10 -17 17 -3 8 1 12 9 9 7 -2 15 -10 17
-17z m-1934 -6 c-8 -19 0 -19 20 1 9 8 16 11 16 5 0 -14 -38 -34 -50 -26 -11
7 -2 35 11 35 4 0 6 -7 3 -15z m1779 0 c-3 -9 -8 -14 -10 -11 -3 3 -2 9 2 15
9 16 15 13 8 -4z m-1081 -17 c-7 -7 -12 -8 -12 -2 0 14 12 26 19 19 2 -3 -1
-11 -7 -17z m435 16 c-3 -3 -12 -4 -19 -1 -8 3 -5 6 6 6 11 1 17 -2 13 -5z
m-954 -81 c-7 -2 -13 -11 -13 -19 0 -9 5 -12 10 -9 15 9 11 -7 -6 -30 -16 -20
-16 -20 -10 2 4 12 2 24 -4 28 -8 5 -7 11 2 22 10 13 8 18 -15 35 -15 11 -27
26 -27 33 0 8 16 -2 38 -21 23 -23 32 -38 25 -41z m487 67 c0 -5 -5 -10 -11
-10 -5 0 -7 5 -4 10 3 6 8 10 11 10 2 0 4 -4 4 -10z m1484 -39 c-10 -2 -24 5
-31 15 -22 30 -14 36 18 12 25 -19 28 -24 13 -27z m-987 24 c0 -8 -4 -12 -9
-9 -5 3 -6 10 -3 15 9 13 12 11 12 -6z m53 -26 c0 -11 -4 -17 -10 -14 -5 3
-10 15 -10 26 0 11 5 17 10 14 6 -3 10 -15 10 -26z m41 9 c-4 -13 -7 -29 -5
-36 1 -7 0 -8 -3 -2 -2 5 -8 8 -12 6 -10 -6 -8 25 3 42 13 21 26 13 17 -10z
m-521 -10 c0 -16 -3 -19 -11 -11 -6 6 -8 16 -5 22 11 17 16 13 16 -11z m1030
18 c0 -3 -4 -8 -10 -11 -5 -3 -10 -1 -10 4 0 6 5 11 10 11 6 0 10 -2 10 -4z
m450 -16 c0 -5 -5 -10 -11 -10 -5 0 -7 5 -4 10 3 6 8 10 11 10 2 0 4 -4 4 -10z
m-2193 -26 c12 -19 12 -22 -6 -27 -12 -3 -26 2 -33 12 -12 14 -11 15 5 2 15
-12 17 -11 17 2 0 9 -8 21 -17 27 -17 10 -17 11 1 8 10 -2 25 -13 33 -24z
m993 -51 c0 -24 -49 -14 -66 12 -13 20 -14 28 -4 40 11 14 16 12 41 -12 16
-16 29 -34 29 -40z m646 21 c-3 -8 -10 -14 -15 -14 -10 0 -9 9 6 48 6 16 6 16
10 -1 3 -10 2 -25 -1 -33z m142 33 c15 6 15 4 4 -9 -8 -10 -9 -18 -3 -22 6 -4
19 -19 29 -34 18 -25 18 -28 4 -42 -14 -13 -15 -12 -9 3 3 9 2 17 -3 17 -6 0
-10 -4 -10 -9 0 -5 -12 -11 -26 -14 -18 -3 -22 -1 -15 6 17 17 13 37 -6 31
-15 -5 -15 -4 -3 4 10 8 18 8 27 0 8 -6 16 -9 18 -6 10 10 -6 35 -28 46 -12 6
-17 11 -10 11 7 1 11 7 9 14 -1 6 -1 9 1 5 2 -4 12 -4 21 -1z m322 1 c0 -19
-18 -44 -25 -36 -4 3 0 15 7 27 15 24 18 26 18 9z m-779 -8 c6 0 7 -5 4 -10
-5 -8 -12 -7 -23 2 -13 11 -15 10 -9 -4 3 -10 2 -20 -4 -23 -5 -4 -12 0 -15 9
-3 8 -13 13 -22 10 -9 -3 -6 2 8 10 14 8 31 13 38 11 8 -3 18 -5 23 -5z m509
0 c0 -5 -4 -10 -10 -10 -5 0 -10 5 -10 10 0 6 5 10 10 10 6 0 10 -4 10 -10z
m500 0 c0 -5 -4 -10 -10 -10 -5 0 -10 5 -10 10 0 6 5 10 10 10 6 0 10 -4 10
-10z m-901 -14 c10 -12 8 -19 -8 -35 -37 -37 -64 -18 -37 24 19 29 29 31 45
11z m-844 -17 c4 -6 -2 -17 -14 -25 -12 -8 -21 -20 -21 -25 0 -6 -7 -17 -15
-26 -12 -12 -13 -18 -4 -29 7 -8 9 -17 5 -21 -3 -3 -6 0 -6 8 0 9 -8 5 -21
-11 l-21 -25 6 25 c3 14 6 30 6 36 0 16 58 104 69 104 5 0 13 -5 16 -11z
m1625 1 c0 -5 -4 -10 -10 -10 -5 0 -10 5 -10 10 0 6 5 10 10 10 6 0 10 -4 10
-10z m-2143 -26 c14 5 15 4 7 -4 -18 -18 -78 -18 -80 0 0 8 1 10 3 3 3 -7 11
-13 20 -13 11 0 14 6 10 23 -6 21 -5 21 8 3 9 -12 20 -16 32 -12z m353 12 c0
-3 -4 -8 -10 -11 -5 -3 -10 -1 -10 4 0 6 5 11 10 11 6 0 10 -2 10 -4z m1294
-11 c3 -8 1 -15 -4 -15 -6 0 -10 7 -10 15 0 8 2 15 4 15 2 0 6 -7 10 -15z
m575 6 c17 -11 7 -41 -13 -41 -13 0 -26 20 -26 41 0 11 21 11 39 0z m-385 -45
c30 -51 32 -66 11 -66 -8 0 -15 5 -15 11 0 5 5 7 10 4 6 -3 10 -1 10 5 0 6
-16 20 -35 31 -35 21 -49 46 -19 35 14 -5 15 -4 4 9 -7 9 -8 15 -2 15 5 0 22
-20 36 -44z m-214 23 c0 -5 -5 -7 -10 -4 -6 4 -17 1 -25 -5 -9 -8 -15 -8 -15
-2 0 11 16 20 38 21 6 1 12 -4 12 -10z m-1600 -9 c0 -5 -5 -10 -11 -10 -5 0
-7 5 -4 10 3 6 8 10 11 10 2 0 4 -4 4 -10z m110 -5 c11 -13 10 -14 -4 -9 -9 3
-16 10 -16 15 0 13 6 11 20 -6z m271 1 c5 3 9 0 9 -6 0 -7 -6 -10 -14 -7 -7 3
-19 0 -26 -6 -8 -8 -8 -4 1 11 8 12 15 18 17 12 2 -6 8 -8 13 -4z m207 1 c8
-10 6 -13 -9 -13 -19 0 -24 7 -12 19 8 9 9 9 21 -6z m-48 -7 c0 -5 -4 -10 -10
-10 -5 0 -10 5 -10 10 0 6 5 10 10 10 6 0 10 -4 10 -10z m975 0 c19 -8 19 -9
-2 -9 -12 -1 -25 4 -28 9 -7 12 2 12 30 0z m-1460 -30 c12 -19 -12 -10 -31 11
-19 22 -19 22 3 10 12 -6 25 -16 28 -21z m710 20 c3 -5 1 -10 -4 -10 -6 0 -11
5 -11 10 0 6 2 10 4 10 3 0 8 -4 11 -10z m1465 0 c0 -5 -5 -10 -11 -10 -5 0
-7 5 -4 10 3 6 8 10 11 10 2 0 4 -4 4 -10z m-1719 -14 c5 3 9 0 9 -5 0 -6 -5
-11 -11 -11 -5 0 -8 -3 -6 -7 3 -5 -2 -15 -11 -22 -14 -13 -15 -12 -10 7 4 15
2 22 -8 22 -8 0 -14 4 -14 10 0 5 7 7 15 4 9 -4 15 0 16 7 0 11 2 11 6 1 2 -6
9 -10 14 -6z m602 -17 c-7 -27 -23 -24 -23 6 0 17 4 23 14 19 8 -3 12 -13 9
-25z m-433 6 c-7 -9 -15 -13 -19 -10 -3 3 1 10 9 15 21 14 24 12 10 -5z m944
-10 c-4 -8 -10 -13 -14 -10 -12 8 -41 -6 -34 -16 6 -11 -10 -12 -20 -2 -4 4 8
15 26 25 41 21 49 22 42 3z m611 5 c3 -5 1 -10 -4 -10 -6 0 -11 5 -11 10 0 6
2 10 4 10 3 0 8 -4 11 -10z m-1995 -10 c0 -5 -5 -10 -11 -10 -5 0 -7 5 -4 10
3 6 8 10 11 10 2 0 4 -4 4 -10z m840 -20 c0 -15 -5 -12 -26 11 -19 22 -19 22
4 10 12 -6 22 -16 22 -21z m70 26 c0 -3 -4 -8 -10 -11 -5 -3 -10 -1 -10 4 0 6
5 11 10 11 6 0 10 -2 10 -4z m-1065 -16 c-3 -5 -12 -10 -18 -10 -7 0 -6 4 3
10 19 12 23 12 15 0z m245 0 c0 -5 -2 -10 -4 -10 -3 0 -8 5 -11 10 -3 6 -1 10
4 10 6 0 11 -4 11 -10z m30 -15 c-7 -8 -17 -15 -23 -15 -5 0 -2 9 8 20 21 23
35 19 15 -5z m630 -4 c0 -5 -6 -8 -12 -7 -22 3 -39 17 -33 27 7 10 45 -7 45
-20z m670 19 c0 -5 -2 -10 -4 -10 -3 0 -8 5 -11 10 -3 6 -1 10 4 10 6 0 11 -4
11 -10z m35 0 c3 -5 1 -10 -4 -10 -6 0 -11 5 -11 10 0 6 2 10 4 10 3 0 8 -4
11 -10z m-879 -15 c-11 -8 -24 -15 -30 -15 -6 0 -19 -10 -31 -23 -11 -12 -17
-18 -12 -13 13 18 7 23 -18 18 -15 -2 -22 -9 -18 -16 4 -6 0 -5 -9 2 -10 8
-26 10 -42 6 -20 -5 -26 -2 -26 10 0 13 11 16 59 16 32 0 74 7 92 15 44 18 59
18 35 0z m426 -7 c-7 -7 -12 -8 -12 -2 0 6 3 14 7 17 3 4 9 5 12 2 2 -3 -1
-11 -7 -17z m-331 -5 c13 -17 13 -17 -6 -3 -11 8 -22 16 -24 17 -2 2 0 3 6 3
6 0 17 -8 24 -17z m139 7 c0 -5 -4 -10 -10 -10 -6 0 -6 -9 0 -25 6 -17 6 -26
-3 -31 -7 -4 -9 -4 -5 1 4 4 3 16 -2 26 -6 9 -7 25 -4 33 7 18 24 22 24 6z
m310 -23 c0 -4 12 -13 28 -19 23 -10 24 -12 8 -16 -11 -2 -25 2 -31 9 -21 27
-85 53 -70 29 3 -5 0 -10 -8 -10 -8 0 -20 -7 -27 -15 -7 -8 -16 -15 -21 -15
-5 0 6 15 24 33 29 29 35 31 65 22 17 -5 32 -13 32 -18z m-1060 8 c-30 -17
-56 -19 -65 -5 -4 7 3 9 18 6 13 -2 30 0 38 5 8 5 19 9 24 8 6 0 -1 -6 -15
-14z m181 -2 c13 -16 12 -17 -3 -4 -10 7 -18 15 -18 17 0 8 8 3 21 -13z m635
8 c12 10 13 9 8 -5 -7 -18 -26 -17 -30 2 -1 7 0 8 3 2 3 -8 9 -7 19 1z m514
-9 c0 -4 -9 -8 -20 -8 -22 0 -27 12 -7 19 14 5 27 -1 27 -11z m-1020 -1 c0 -6
-4 -12 -8 -15 -5 -3 -9 1 -9 9 0 8 4 15 9 15 4 0 8 -4 8 -9z m545 -8 c-4 -10
-8 -23 -9 -30 -4 -21 -12 -24 -40 -14 -14 6 -26 18 -26 28 0 15 2 15 15 -3 15
-19 16 -18 36 9 24 31 34 35 24 10z m-1145 3 c0 -11 -19 -15 -25 -6 -3 5 1 10
9 10 9 0 16 -2 16 -4z m998 -8 c17 -17 15 -33 -3 -18 -23 19 -18 -4 5 -25 11
-10 20 -22 20 -27 0 -5 -11 2 -25 16 -14 14 -25 34 -25 46 0 23 10 26 28 8z
m197 2 c-3 -5 -14 -10 -23 -9 -14 0 -13 2 3 9 27 11 27 11 20 0z m234 -6 c10
-9 -35 -3 -49 6 -11 8 -7 9 15 4 17 -4 32 -8 34 -10z m121 6 c0 -5 -7 -10 -15
-10 -8 0 -15 5 -15 10 0 6 7 10 15 10 8 0 15 -4 15 -10z m-1503 -6 c-3 -3 -12
-4 -19 -1 -8 3 -5 6 6 6 11 1 17 -2 13 -5z m358 -32 c-3 -3 -11 0 -18 7 -18
15 -44 5 -82 -30 -31 -29 -95 -53 -81 -30 4 6 12 9 17 6 5 -4 21 6 36 22 16
15 43 35 62 44 31 15 36 15 52 1 10 -9 16 -18 14 -20z m505 27 c0 -7 8 -18 17
-25 10 -7 15 -15 11 -19 -7 -8 -48 30 -48 45 0 6 5 10 10 10 6 0 10 -5 10 -11z
m1168 2 c6 -1 12 -5 12 -10 0 -5 -9 -7 -20 -4 -35 9 -71 -7 -122 -55 -28 -26
-46 -38 -40 -27 27 51 106 106 142 99 8 -1 21 -3 28 -3z m-1494 -30 c3 -5 -5
-8 -17 -8 -15 0 -23 5 -23 17 0 14 4 16 18 9 9 -5 19 -13 22 -18z m291 18 c11
-16 1 -19 -13 -3 -7 8 -8 14 -3 14 5 0 13 -5 16 -11z m736 -17 c-16 -5 -41 5
-41 17 0 7 10 6 26 -1 15 -7 21 -14 15 -16z m-336 8 c3 -5 1 -10 -4 -10 -6 0
-11 5 -11 10 0 6 2 10 4 10 3 0 8 -4 11 -10z m155 0 c0 -5 -5 -10 -11 -10 -5
0 -7 5 -4 10 3 6 8 10 11 10 2 0 4 -4 4 -10z m70 -3 c0 5 7 10 15 10 21 0 4
-16 -22 -21 -12 -3 -20 1 -20 10 0 10 4 11 14 3 7 -7 13 -7 13 -2z m-826 -22
c-9 -14 -13 -25 -8 -25 10 0 -28 -29 -40 -30 -5 0 -3 7 4 15 12 14 7 19 -13
16 -5 -1 -6 3 -2 9 3 6 10 8 15 5 5 -3 18 3 30 15 27 27 34 25 14 -5z m494
-15 c-13 -10 -25 -14 -28 -9 -3 4 -11 -1 -18 -11 -10 -17 -10 -20 3 -20 8 0
15 -3 16 -7 8 -52 6 -71 -6 -60 -7 7 -10 16 -5 21 12 12 -35 60 -52 53 -8 -3
-21 -1 -29 5 -11 8 -10 9 4 4 19 -6 23 14 6 31 -9 9 -7 11 7 9 10 -2 20 -8 22
-14 2 -7 8 -10 13 -7 5 4 6 -2 3 -12 -4 -11 4 -6 21 12 14 17 24 24 20 18 -3
-7 -1 -13 5 -13 6 0 13 7 16 15 4 8 10 12 15 9 5 -3 -1 -14 -13 -24z m697 20
c8 -13 -5 -13 -25 0 -13 8 -13 10 2 10 9 0 20 -4 23 -10z m55 -5 c-7 -8 -18
-15 -24 -15 -6 0 -2 7 8 15 25 19 32 19 16 0z m-951 -2 c-4 -23 3 -32 19 -26
10 4 6 -4 -11 -20 -15 -15 -24 -27 -19 -27 13 0 24 -48 15 -63 -5 -8 -9 -1
-13 17 -3 16 -11 31 -18 34 -7 2 -10 -2 -6 -12 3 -9 1 -22 -5 -30 -6 -7 -8
-16 -4 -19 3 -4 1 -7 -5 -7 -7 0 -12 8 -12 19 0 10 -9 30 -21 45 -11 14 -16
26 -11 26 6 0 12 -7 16 -15 3 -8 10 -15 16 -15 5 0 10 7 10 15 0 8 5 15 10 15
6 0 10 5 10 11 0 6 -6 9 -14 6 -8 -3 -18 5 -25 19 -14 31 -1 31 29 -1 25 -27
51 -35 30 -10 -7 8 -10 22 -6 30 5 15 17 21 15 8z m231 -28 c-34 -35 -50 -43
-50 -25 0 6 6 10 14 10 7 0 21 11 30 25 9 14 22 25 28 25 7 0 -3 -16 -22 -35z
m37 -5 c-14 -16 -28 -39 -32 -49 -3 -12 -12 -18 -20 -15 -11 5 -12 10 -3 24 7
10 16 16 20 14 4 -3 8 0 8 7 0 15 29 49 42 49 6 0 -2 -13 -15 -30z m323 -21
c0 -5 -9 -1 -20 8 -11 10 -20 22 -20 27 0 5 9 1 20 -9 11 -10 20 -22 20 -26z
m470 31 c0 -5 -7 -10 -16 -10 -8 0 -12 5 -9 10 3 6 10 10 16 10 5 0 9 -4 9
-10z m-532 -20 c-7 -11 -15 -15 -17 -9 -2 6 3 15 10 20 20 12 21 11 7 -11z
m102 -5 c7 -8 8 -15 2 -15 -5 0 -15 7 -22 15 -7 8 -8 15 -2 15 5 0 15 -7 22
-15z m84 6 c4 -5 -3 -7 -14 -4 -23 6 -26 13 -6 13 8 0 17 -4 20 -9z m-389 -21
c-10 -11 -15 -20 -11 -20 4 0 4 -5 0 -11 -4 -8 -9 -7 -15 2 -8 14 16 49 34 49
6 0 2 -9 -8 -20z m545 16 c0 -3 -4 -8 -10 -11 -5 -3 -10 -1 -10 4 0 6 5 11 10
11 6 0 10 -2 10 -4z m-1335 -26 c-3 -5 -12 -10 -18 -10 -7 0 -6 4 3 10 19 12
23 12 15 0z m1496 -3 c-6 -8 -8 -17 -4 -20 3 -4 1 -7 -5 -7 -13 0 -16 22 -5
33 12 13 25 7 14 -6z m-1171 -28 c0 -5 -4 -9 -10 -9 -5 0 -10 7 -10 16 0 8 5
12 10 9 6 -3 10 -10 10 -16z m280 11 c0 -5 -5 -10 -11 -10 -5 0 -7 5 -4 10 3
6 8 10 11 10 2 0 4 -4 4 -10z m477 -6 c-3 -3 -12 -4 -19 -1 -8 3 -5 6 6 6 11
1 17 -2 13 -5z m205 -34 c27 -28 28 -29 6 -20 -13 6 -29 20 -36 31 -18 28 -5
23 30 -11z m-889 -19 c12 -26 16 -52 12 -79 -3 -28 0 -44 10 -52 18 -15 19
-39 2 -46 -15 -5 -20 -44 -6 -44 5 0 9 -4 9 -9 0 -16 -40 1 -51 21 -8 14 -7
24 3 35 7 9 13 29 14 44 1 22 -3 29 -17 29 -14 0 -19 7 -19 25 0 16 6 25 15
25 9 0 15 -9 15 -22 1 -22 1 -22 11 -4 9 14 8 20 -2 26 -7 5 -14 22 -15 39 -1
16 -5 34 -9 40 -3 6 -3 11 2 11 4 0 16 -18 26 -39z m348 16 c-10 -9 -11 -8 -5
6 3 10 9 15 12 12 3 -3 0 -11 -7 -18z m767 14 c10 -6 10 -11 -3 -21 -10 -9
-14 -22 -11 -36 4 -13 1 -26 -5 -29 -7 -5 -9 10 -7 44 3 53 5 56 26 42z
m-1353 -11 c-4 -6 -2 -17 4 -24 8 -9 7 -17 -2 -29 -10 -15 -12 -13 -11 15 2
43 3 48 10 48 3 0 2 -5 -1 -10z m518 -48 c-10 -23 -22 -42 -26 -42 -5 0 -5 5
-2 10 3 6 1 10 -5 10 -6 0 -13 -6 -16 -14 -7 -18 -34 -10 -34 10 0 8 6 11 15
8 10 -4 15 0 15 12 0 11 5 26 11 34 8 11 9 8 4 -13 -8 -41 17 -31 30 11 5 18
13 28 17 24 5 -5 0 -27 -9 -50z m117 54 c0 -2 -7 -7 -16 -10 -8 -3 -12 -2 -9
4 6 10 25 14 25 6z m200 -26 c5 0 7 -7 3 -16 -5 -14 -9 -13 -24 7 -23 29 -25
46 -3 25 8 -9 19 -16 24 -16z m45 10 c10 -11 16 -20 13 -20 -3 0 -13 9 -23 20
-10 11 -16 20 -13 20 3 0 13 -9 23 -20z m-831 -28 c-9 -37 -33 -62 -58 -61
-21 0 -21 0 -1 9 29 11 47 35 49 64 0 13 4 22 9 19 4 -2 4 -16 1 -31z m521
-18 c-2 -16 -4 -32 -4 -35 -1 -7 -41 -20 -41 -14 0 15 14 34 21 29 5 -3 9 1 9
10 0 8 3 23 7 33 6 16 5 16 -10 4 -20 -16 -23 -6 -4 13 16 19 27 -1 22 -40z
m1015 46 c0 -5 -2 -10 -4 -10 -3 0 -8 5 -11 10 -3 6 -1 10 4 10 6 0 11 -4 11
-10z m-1935 -10 c-3 -5 -10 -10 -16 -10 -5 0 -9 5 -9 10 0 6 7 10 16 10 8 0
12 -4 9 -10z m709 -23 c-8 -4 -15 -18 -15 -30 -1 -17 -2 -18 -6 -4 -2 9 -8 17
-13 17 -5 0 -7 7 -3 16 5 13 7 13 14 2 6 -9 9 -6 9 10 0 19 2 21 14 10 12 -11
12 -14 0 -21z m70 24 c4 -5 -3 -7 -14 -4 -23 6 -26 13 -6 13 8 0 17 -4 20 -9z
m500 -7 c3 -8 2 -12 -4 -9 -6 3 -10 10 -10 16 0 14 7 11 14 -7z m-962 -21 c-2
-13 -8 -26 -13 -29 -13 -8 -30 6 -23 18 4 6 10 5 16 -3 6 -9 7 -5 3 12 -5 18
-2 26 8 26 9 0 12 -8 9 -24z m334 2 c-4 -17 -1 -30 11 -42 17 -17 17 -20 -4
-63 -19 -38 -22 -41 -23 -20 0 14 7 36 16 48 14 20 14 22 -1 22 -9 0 -13 5
-10 10 3 6 2 10 -4 10 -5 0 -5 12 2 30 14 36 22 39 13 5z m-756 8 c-8 -3 -27
-17 -42 -31 -15 -14 -30 -23 -33 -20 -9 9 55 58 73 57 14 0 14 -2 2 -6z m565
-13 c-13 -14 -15 -23 -7 -33 11 -13 2 -39 -14 -39 -5 0 -8 -4 -6 -9 1 -5 -2
-9 -8 -9 -12 0 -13 15 -1 38 5 9 14 29 22 45 7 15 17 27 22 27 6 0 2 -9 -8
-20z m488 5 c-3 -9 -8 -14 -10 -11 -3 3 -2 9 2 15 9 16 15 13 8 -4z m557 -16
c17 -30 6 -34 -14 -4 -9 14 -12 25 -7 25 6 0 15 -9 21 -21z m-1455 2 c10 -17
-12 -21 -25 -6 -10 12 -10 15 3 15 9 0 18 -4 22 -9z m1162 -11 c-3 -10 -1 -20
5 -22 15 -5 -49 -67 -78 -74 -14 -4 -30 -2 -37 5 -8 8 -1 11 26 11 32 0 39 4
47 28 22 58 49 98 37 52z m-701 -14 c0 -15 -5 -21 -10 -16 -5 5 -6 16 -3 24 9
23 15 19 13 -8z m649 -14 c-10 -10 -16 -12 -13 -7 3 6 8 19 13 30 5 14 9 16
12 7 3 -8 -3 -21 -12 -30z m-1391 13 c11 -8 15 -15 9 -15 -7 0 -15 5 -19 11
-3 6 -15 9 -25 6 -11 -3 -19 -1 -19 4 0 14 33 10 54 -6z m1186 11 c0 -2 -8
-10 -17 -17 -16 -13 -17 -12 -4 4 13 16 21 21 21 13z m150 -17 c0 -5 -4 -9
-10 -9 -5 0 -10 7 -10 16 0 8 5 12 10 9 6 -3 10 -10 10 -16z m-860 -3 c0 -3
-4 -8 -10 -11 -5 -3 -10 -1 -10 4 0 6 5 11 10 11 6 0 10 -2 10 -4z m570 -35
c3 -2 -3 -1 -13 2 -11 4 -25 0 -35 -9 -11 -12 -17 -13 -20 -5 -2 7 4 18 14 26
18 13 26 11 54 -14z m260 14 c7 -8 8 -15 2 -15 -5 0 -15 7 -22 15 -7 8 -8 15
-2 15 5 0 15 -7 22 -15z m240 1 c0 -3 -4 -8 -10 -11 -5 -3 -10 -1 -10 4 0 6 5
11 10 11 6 0 10 -2 10 -4z m-983 -12 c-3 -3 -12 -4 -19 -1 -8 3 -5 6 6 6 11 1
17 -2 13 -5z m506 -14 c-3 -11 1 -27 8 -36 10 -13 10 -17 -2 -26 -11 -7 -11
-11 -1 -15 6 -2 9 -9 6 -15 -4 -6 2 -8 17 -3 19 5 21 4 9 -5 -11 -9 -12 -13
-2 -17 6 -2 12 -13 12 -23 0 -24 16 -34 24 -15 3 8 13 15 21 15 13 0 15 7 10
33 -3 17 -3 27 2 22 4 -6 13 -11 20 -10 15 0 30 15 15 15 -7 0 -12 5 -12 11 0
8 4 8 15 -1 8 -6 13 -22 12 -33 -1 -16 3 -21 16 -19 9 2 17 -2 17 -9 0 -6 8
-9 20 -6 15 4 20 0 20 -15 0 -17 -5 -19 -39 -13 -24 4 -41 2 -46 -4 -3 -6 -10
-9 -15 -6 -5 3 -19 1 -32 -6 -29 -16 -88 14 -81 41 3 12 -1 19 -12 22 -20 3
-31 58 -14 69 8 5 8 12 1 26 -8 14 -8 23 0 31 16 16 17 15 11 -8z m-443 -10
c0 -5 -5 -10 -11 -10 -5 0 -7 5 -4 10 3 6 8 10 11 10 2 0 4 -4 4 -10z m68 -19
c-1 -15 3 -34 7 -42 6 -9 2 -8 -11 3 -16 14 -21 14 -31 2 -7 -7 -13 -18 -13
-24 0 -6 -5 -8 -11 -4 -15 9 -142 -79 -174 -122 -15 -19 -42 -67 -61 -107 -19
-40 -31 -58 -28 -42 10 42 51 123 87 169 17 22 68 63 112 91 45 29 89 64 98
79 22 33 26 33 25 -3z m432 19 c0 -5 -8 -10 -17 -10 -15 0 -16 2 -3 10 19 12
20 12 20 0z m-480 -24 c0 -11 -19 -15 -25 -6 -3 5 1 10 9 10 9 0 16 -2 16 -4z
m125 -27 c-18 -33 -6 -63 21 -52 8 3 14 1 14 -5 0 -5 9 -12 19 -15 16 -4 19
-13 16 -53 -3 -60 -1 -57 -25 -44 -24 13 -26 33 -5 50 25 21 17 39 -22 47 -21
4 -42 6 -46 5 -5 -1 -6 8 -2 20 12 42 30 78 38 78 4 0 0 -14 -8 -31z m-704 3
c-11 -21 -41 -48 -41 -38 0 11 34 55 43 56 4 0 3 -8 -2 -18z m1439 8 c0 -5 -2
-10 -4 -10 -3 0 -8 5 -11 10 -3 6 -1 10 4 10 6 0 11 -4 11 -10z m-1090 -10 c0
-5 -4 -10 -10 -10 -5 0 -10 5 -10 10 0 6 5 10 10 10 6 0 10 -4 10 -10z m-490
-16 c0 -2 -12 -4 -26 -4 -14 0 -23 4 -20 9 6 8 46 4 46 -5z m1340 -14 c0 -5
-5 -10 -11 -10 -5 0 -7 5 -4 10 3 6 8 10 11 10 2 0 4 -4 4 -10z m459 -47 c33
-32 62 -69 66 -83 5 -23 5 -24 -7 -5 -7 11 -42 48 -77 83 -35 34 -59 62 -53
62 6 0 38 -26 71 -57z m-559 16 c0 -5 -4 -9 -10 -9 -5 0 -10 7 -10 16 0 8 5
12 10 9 6 -3 10 -10 10 -16z m831 -36 c-9 -15 -10 -12 -10 17 0 29 1 32 10 18
7 -12 7 -24 0 -35z m-1931 7 c0 -5 -5 -12 -10 -15 -8 -5 -7 -11 1 -21 14 -17
-4 -44 -30 -43 -12 0 -10 3 6 11 20 10 21 12 6 34 -14 22 -14 24 1 24 9 0 16
5 16 10 0 12 -30 13 -49 1 -7 -5 -11 -13 -7 -19 7 -11 -62 -8 -73 4 -3 4 2 4
13 0 14 -5 17 -2 12 9 -7 18 10 21 17 3 4 -9 8 -10 14 -2 16 22 47 33 65 23
10 -5 18 -14 18 -19z m935 20 c3 -6 -1 -7 -9 -4 -18 7 -21 14 -7 14 6 0 13 -4
16 -10z m1132 4 c-3 -3 -12 -4 -19 -1 -8 3 -5 6 6 6 11 1 17 -2 13 -5z m40 0
c-3 -3 -12 -4 -19 -1 -8 3 -5 6 6 6 11 1 17 -2 13 -5z m-1107 -13 c0 -5 -9 -7
-20 -4 -11 3 -20 7 -20 9 0 2 9 4 20 4 11 0 20 -4 20 -9z m275 -10 c-3 -6 -11
-11 -17 -11 -6 0 -6 6 2 15 14 17 26 13 15 -4z m-580 -1 c-3 -5 -11 -10 -16
-10 -6 0 -7 5 -4 10 3 6 11 10 16 10 6 0 7 -4 4 -10z m1418 -9 c3 -12 -1 -22
-10 -25 -8 -3 -12 -2 -9 3 3 5 -2 12 -12 16 -16 7 -15 8 3 15 11 5 21 9 21 9
1 1 4 -8 7 -18z m-2043 -6 c0 -5 -14 -10 -30 -11 -23 -1 -28 2 -19 12 12 15
49 15 49 -1z m55 5 c3 -5 2 -10 -4 -10 -5 0 -13 5 -16 10 -3 6 -2 10 4 10 5 0
13 -4 16 -10z m522 -10 c-1 -22 -17 -28 -17 -7 0 12 9 27 16 27 2 0 2 -9 1
-20z m83 6 c0 -7 -6 -19 -14 -25 -11 -9 -13 -7 -11 11 3 28 3 28 15 28 6 0 10
-6 10 -14z m-437 -3 c3 -5 -6 -9 -19 -9 -13 -1 -21 2 -18 7 6 11 31 12 37 2z
m528 -20 c-12 -20 -14 -14 -5 12 4 9 9 14 11 11 3 -2 0 -13 -6 -23z m-280 -6
c-10 -9 -11 -8 -5 6 3 10 9 15 12 12 3 -3 0 -11 -7 -18z m382 -5 c16 -15 17
-14 12 4 -6 17 -6 17 5 1 13 -20 4 -41 -14 -34 -7 3 -26 -6 -42 -19 l-29 -25
38 6 c29 4 45 0 63 -14 l24 -19 -26 -21 c-37 -29 -23 -26 22 4 20 14 40 25 44
25 7 0 30 -53 30 -66 0 -2 -8 -4 -19 -4 -10 0 -24 -7 -31 -15 -14 -17 -35 -21
-25 -5 3 6 2 10 -3 10 -6 0 -12 -7 -16 -15 -7 -20 -46 -19 -46 1 0 13 3 14 13
5 8 -6 17 -8 20 -4 4 3 -1 12 -11 19 -13 9 -19 9 -25 1 -6 -9 -10 -9 -14 0 -8
22 -45 60 -40 42 7 -21 -37 -64 -57 -56 -8 3 -16 2 -18 -2 -2 -4 -18 -11 -36
-14 -20 -4 -31 -3 -27 3 3 5 0 7 -8 4 -8 -3 -17 2 -21 12 -6 14 -1 16 34 11
46 -6 80 1 80 15 0 6 -14 8 -32 5 -18 -3 -27 -3 -19 0 11 4 8 10 -10 24 -20
15 -21 19 -6 19 9 0 17 5 17 10 0 7 7 7 22 -1 18 -9 20 -9 15 4 -8 21 3 29 21
14 13 -10 14 -8 8 11 -5 13 -3 22 3 22 6 0 11 9 11 19 0 20 25 35 41 25 5 -3
9 -2 8 3 -5 27 7 26 44 -5z m277 3 c0 -7 6 -15 14 -18 10 -4 12 0 8 15 -3 14
-1 19 6 14 7 -4 12 -19 12 -33 0 -21 -3 -24 -22 -19 -13 3 -26 6 -29 6 -9 0
-19 42 -13 52 7 11 24 0 24 -17z m-1335 -4 c0 -7 -11 -20 -25 -28 -25 -15 -25
-15 -2 2 12 10 22 21 22 26 0 19 -29 8 -49 -18 -23 -28 -23 -28 -40 5 -8 14
-8 22 -1 22 5 0 10 -7 10 -16 0 -13 5 -12 27 6 29 22 58 23 58 1z m814 -11
c-6 -16 -18 -30 -26 -30 -8 0 -13 6 -10 13 2 6 10 11 16 9 7 -1 10 2 6 8 -7
12 2 30 15 30 5 0 4 -13 -1 -30z m601 26 c0 -3 -4 -8 -10 -11 -5 -3 -10 -1
-10 4 0 6 5 11 10 11 6 0 10 -2 10 -4z m785 -6 c3 -5 -1 -10 -10 -10 -9 0 -13
5 -10 10 3 6 8 10 10 10 2 0 7 -4 10 -10z m-2105 -4 c0 -3 -4 -8 -10 -11 -5
-3 -10 -1 -10 4 0 6 5 11 10 11 6 0 10 -2 10 -4z m97 -2 c-3 -3 -12 -4 -19 -1
-8 3 -5 6 6 6 11 1 17 -2 13 -5z m1099 -6 c4 -6 2 -14 -4 -16 -7 -2 -18 -10
-26 -17 -7 -8 -16 -11 -20 -8 -3 4 -6 -6 -6 -20 0 -30 -20 -36 -40 -12 -7 8
-19 15 -27 15 -8 0 -11 5 -8 10 3 6 17 10 31 10 29 0 59 25 49 40 -4 6 5 10
19 10 14 0 28 -5 32 -12z m-1245 -30 c-11 -11 -12 -10 -6 1 6 11 3 13 -16 8
-23 -6 -23 -5 -5 9 24 17 48 1 27 -18z m248 21 c17 -6 31 -15 31 -20 0 -11
-14 -12 -24 -1 -4 4 -22 12 -39 19 -41 15 -11 17 32 2z m1111 -9 c0 -5 -5 -10
-11 -10 -5 0 -7 5 -4 10 3 6 8 10 11 10 2 0 4 -4 4 -10z m16 -26 c-11 -7 -16
-17 -13 -21 4 -4 13 -1 19 5 7 7 17 12 23 12 5 0 -1 -10 -15 -21 -14 -11 -19
-18 -12 -14 15 8 15 1 0 -28 -26 -50 -27 -57 -19 -79 4 -13 12 -21 16 -18 4 3
14 -4 21 -16 13 -19 12 -21 -16 -21 -16 0 -30 4 -30 9 0 5 6 6 13 2 6 -4 2 3
-10 14 -14 14 -20 29 -16 44 5 19 3 21 -8 11 -7 -7 -20 -13 -28 -13 -8 0 -22
-7 -32 -16 -13 -11 -22 -13 -35 -6 -20 11 -76 -18 -109 -56 -16 -19 -32 -24
-80 -27 -33 -2 -76 -8 -95 -14 -47 -15 -58 -14 -35 3 11 8 23 12 27 10 4 -3
20 1 35 9 16 8 44 12 64 10 27 -4 42 1 65 20 16 13 43 32 61 41 18 9 37 24 43
33 10 17 10 17 20 1 16 -26 26 -22 41 15 11 30 12 30 16 9 l5 -24 23 22 c13
12 21 28 19 35 -9 22 42 103 55 89 3 -3 -3 -12 -13 -20z m-1323 -16 c22 -35
-29 -97 -56 -68 -9 10 -8 11 9 6 25 -8 55 37 37 55 -17 17 -48 6 -51 -19 -2
-12 -8 -22 -13 -22 -6 0 -7 9 -4 21 6 19 5 20 -15 9 -21 -11 -21 -11 -6 12 19
29 83 33 99 6z m52 12 c3 -6 -1 -7 -10 -4 -11 5 -14 2 -9 -10 3 -9 1 -16 -5
-16 -6 0 -11 9 -11 20 0 21 24 28 35 10z m640 -10 c3 -6 -1 -7 -9 -4 -18 7
-21 14 -7 14 6 0 13 -4 16 -10z m85 3 c0 -5 -4 -15 -10 -23 -11 -18 -25 -7
-17 15 6 15 27 21 27 8z m-940 -21 c0 -11 -10 -27 -22 -38 l-23 -19 20 24 c14
17 16 25 8 28 -18 6 -16 23 2 23 8 0 15 -8 15 -18z m2170 14 c0 -2 -7 -7 -16
-10 -8 -3 -12 -2 -9 4 6 10 25 14 25 6z m-1260 -36 c0 -14 -14 -12 -28 2 -19
19 -14 30 8 18 11 -6 20 -15 20 -20z m350 -1 c0 -6 -4 -7 -10 -4 -5 3 -10 11
-10 16 0 6 5 7 10 4 6 -3 10 -11 10 -16z m90 0 c0 -5 -8 -12 -17 -15 -10 -3
-28 -11 -40 -17 -13 -6 -26 -8 -29 -5 -3 4 4 9 15 13 12 3 26 15 31 25 10 19
40 18 40 -1z m-471 -18 c17 -17 17 -20 3 -34 -12 -13 -13 -19 -3 -31 8 -9 8
-16 2 -20 -6 -4 -7 -14 -4 -23 4 -11 2 -14 -8 -11 -8 3 -14 15 -14 27 0 12 -7
26 -15 31 -51 33 -54 -32 -3 -66 26 -17 30 -24 19 -33 -7 -6 -15 -9 -17 -6 -3
2 -23 5 -44 7 -49 3 -70 20 -56 45 9 16 10 16 11 1 0 -12 8 -16 30 -16 17 1
30 5 30 10 0 4 -4 8 -9 8 -5 0 -14 14 -20 30 -5 17 -6 28 -2 25 5 -3 12 2 15
10 3 8 11 14 18 13 7 -2 12 2 11 9 -2 8 4 10 15 6 14 -6 15 -4 4 9 -12 16 -10
19 16 27 1 1 11 -8 21 -18z m-872 -26 c-7 -13 -14 -20 -15 -14 -5 14 6 39 17
39 5 0 4 -11 -2 -25z m83 -10 c5 3 10 1 10 -4 0 -6 -4 -11 -10 -11 -5 0 -10
-12 -10 -28 0 -38 -27 -74 -52 -70 -12 2 -23 -3 -26 -11 -3 -9 0 -11 9 -6 11
6 12 5 2 -6 -16 -16 -16 -41 -1 -74 11 -25 32 -33 43 -16 3 5 -1 28 -9 51 -14
40 -13 41 4 25 17 -16 19 -15 22 6 11 76 128 21 128 -61 0 -35 -19 -22 -22 17
-6 71 -88 98 -96 31 -2 -18 7 -34 37 -61 23 -20 41 -39 41 -43 0 -12 -59 31
-71 53 -14 25 -35 32 -25 8 7 -18 -13 -55 -30 -55 -6 0 -23 23 -39 51 -15 29
-23 49 -16 45 15 -10 14 17 -1 33 -8 8 -8 11 -2 8 16 -9 36 17 29 35 -4 9 0
18 8 21 18 7 31 -30 13 -37 -6 -2 -3 -5 7 -5 10 -1 23 11 29 25 10 21 9 35 -4
73 -17 46 -17 46 2 23 11 -13 24 -21 30 -17z m-163 19 c-3 -3 -12 -4 -19 -1
-8 3 -5 6 6 6 11 1 17 -2 13 -5z m1151 -32 c-2 -10 3 -22 12 -29 19 -15 1 -17
-35 -3 -25 10 -30 38 -6 33 6 -2 11 4 11 13 0 8 5 12 11 9 5 -4 9 -14 7 -23z
m487 18 c-4 -6 -4 -33 0 -60 6 -41 10 -48 26 -45 10 2 21 0 24 -5 9 -15 -12
-21 -38 -11 -21 8 -26 18 -29 58 -3 26 0 54 5 61 11 15 21 16 12 2z m285 0 c0
-5 -4 -10 -10 -10 -5 0 -10 5 -10 10 0 6 5 10 10 10 6 0 10 -4 10 -10z m302
-15 c11 -3 23 -7 27 -11 5 -6 -5 -5 -68 10 -8 1 -17 8 -19 15 -3 10 0 10 17 1
12 -6 32 -13 43 -15z m-367 5 c3 -5 1 -10 -4 -10 -6 0 -11 5 -11 10 0 6 2 10
4 10 3 0 8 -4 11 -10z m-1135 -16 c0 -8 -5 -12 -10 -9 -6 4 -8 11 -5 16 9 14
15 11 15 -7z m1115 -14 c3 -5 1 -10 -4 -10 -6 0 -11 5 -11 10 0 6 2 10 4 10 3
0 8 -4 11 -10z m50 0 c-3 -5 -10 -10 -16 -10 -5 0 -9 5 -9 10 0 6 7 10 16 10
8 0 12 -4 9 -10z m-1652 -19 c11 7 17 6 17 -1 0 -5 -7 -10 -16 -10 -8 0 -12
-5 -9 -10 4 -6 11 -8 16 -5 5 4 9 1 9 -4 0 -14 -27 -14 -35 -1 -4 6 -10 8 -15
5 -5 -3 -11 -1 -14 4 -4 5 -2 12 4 16 6 4 8 12 4 18 -3 7 1 5 8 -5 10 -12 19
-13 31 -7z m1444 0 c10 -15 9 -20 -2 -25 -8 -3 -15 -1 -15 3 0 5 -3 16 -6 25
-9 22 9 20 23 -3z m674 -24 c-13 -13 -15 1 -4 30 7 17 8 17 11 -1 2 -10 -1
-23 -7 -29z m-1711 23 c0 -5 -4 -10 -10 -10 -5 0 -10 5 -10 10 0 6 5 10 10 10
6 0 10 -4 10 -10z m267 4 c-3 -3 -12 -4 -19 -1 -8 3 -5 6 6 6 11 1 17 -2 13
-5z m1403 -13 c0 -6 -4 -13 -10 -16 -5 -3 -10 1 -10 9 0 9 5 16 10 16 6 0 10
-4 10 -9z m-1210 -11 c13 -8 13 -10 -2 -10 -9 0 -20 5 -23 10 -8 13 5 13 25 0z
m735 -15 c-36 -30 -65 -48 -65 -40 0 8 27 35 35 35 4 0 13 7 21 15 9 8 21 15
27 15 7 0 -1 -11 -18 -25z m-1175 -5 c0 -5 -2 -10 -4 -10 -3 0 -8 5 -11 10 -3
6 -1 10 4 10 6 0 11 -4 11 -10z m784 -26 c4 -10 13 -13 26 -9 12 4 20 2 20 -5
0 -6 4 -9 9 -6 13 8 41 -38 31 -53 -10 -17 -34 -4 -74 37 -15 17 -35 28 -42
25 -8 -3 -14 0 -14 7 0 6 5 8 10 5 6 -3 10 -1 10 4 0 17 17 13 24 -5z m-654
-9 c-7 -9 -15 -13 -19 -10 -3 3 1 10 9 15 21 14 24 12 10 -5z m920 0 c-7 -9
-15 -13 -17 -11 -7 7 7 26 19 26 6 0 6 -6 -2 -15z m-1060 -10 c-7 -9 -15 -13
-17 -11 -7 7 7 26 19 26 6 0 6 -6 -2 -15z m950 -5 c0 -5 -4 -10 -10 -10 -5 0
-10 -7 -10 -15 0 -10 -6 -12 -21 -7 -22 9 -26 29 -4 24 7 -1 16 2 20 8 8 13
25 13 25 0z m-1596 -16 c5 -14 4 -15 -9 -4 -17 14 -19 20 -6 20 5 0 12 -7 15
-16z m737 3 c-1 -12 -15 -9 -19 4 -3 6 1 10 8 8 6 -3 11 -8 11 -12z m643 -2
c3 -8 15 -15 26 -15 11 0 20 -4 20 -10 0 -14 -33 -13 -47 1 -9 9 -24 4 -61
-19 -45 -27 -52 -29 -85 -19 -37 12 -52 31 -19 25 9 -1 23 1 30 5 7 5 11 4 10
-1 -2 -6 0 -12 4 -13 8 -5 87 44 88 54 0 13 28 7 34 -8z m26 5 c0 -5 -2 -10
-4 -10 -3 0 -8 5 -11 10 -3 6 -1 10 4 10 6 0 11 -4 11 -10z m560 -16 c0 -8 5
-14 10 -14 6 0 10 -5 10 -12 0 -6 -11 -1 -25 12 -28 26 -33 42 -10 34 8 -4 15
-12 15 -20z m-1135 -14 c-20 -23 -43 -28 -75 -19 -24 7 -24 7 -2 8 12 1 22 5
22 10 0 11 52 30 63 24 5 -3 1 -13 -8 -23z m-218 -5 c-4 -8 -11 -15 -17 -15
-6 0 -6 7 2 20 14 22 24 19 15 -5z m1418 15 c-3 -5 -12 -10 -18 -10 -7 0 -6 4
3 10 19 12 23 12 15 0z m-1311 -21 c-3 -5 -10 -7 -15 -3 -12 7 -40 -27 -32
-38 7 -13 -27 -22 -39 -10 -7 7 -19 7 -34 2 -15 -6 -24 -6 -24 0 0 6 6 10 13
10 35 0 85 22 90 40 3 13 11 17 26 13 11 -3 18 -9 15 -14z m166 13 c0 -10 -50
-35 -57 -28 -3 2 8 11 24 20 34 18 33 18 33 8z m810 -3 c20 1 22 -1 10 -9 -23
-15 -46 -12 -61 7 -12 15 -12 16 6 9 11 -5 31 -8 45 -7z m-1217 -18 c-7 -27
-73 -35 -73 -9 0 16 3 17 21 6 18 -11 23 -10 33 5 15 23 25 22 19 -2z m700 12
c-7 -2 -19 -2 -25 0 -7 3 -2 5 12 5 14 0 19 -2 13 -5z m402 -21 c-7 -8 -35 7
-35 18 0 6 7 6 20 -2 10 -7 17 -14 15 -16z m-1188 -12 c0 -20 -3 -26 -9 -18
-10 17 -10 48 0 48 5 0 9 -14 9 -30z m-67 13 c0 -5 -5 -15 -10 -23 -8 -12 -10
-11 -10 8 0 12 5 22 10 22 6 0 10 -3 10 -7z m578 -5 c-4 -18 -19 -28 -43 -28
-16 0 -15 3 10 19 37 24 36 24 33 9z m92 3 c0 -12 -21 -28 -50 -35 -24 -7 -24
-6 5 18 31 27 45 32 45 17z m32 -23 c-7 -7 -12 -8 -12 -2 0 14 12 26 19 19 2
-3 -1 -11 -7 -17z m1079 8 c-13 -6 -29 -5 -43 1 -20 9 -17 10 20 9 35 -1 39
-2 23 -10z m89 2 c-14 -6 -42 -20 -64 -30 -21 -10 -40 -17 -43 -15 -5 6 46 38
76 47 39 12 60 10 31 -2z m-1690 -23 c0 -8 8 -19 18 -24 9 -6 12 -11 4 -11
-24 0 -49 23 -45 41 6 21 23 16 23 -6z m290 14 c0 -6 -7 -9 -15 -6 -8 4 -17 2
-20 -3 -4 -6 -11 -10 -17 -10 -7 0 -6 6 2 15 14 17 50 20 50 4z m305 1 c3 -5
1 -10 -4 -10 -6 0 -11 5 -11 10 0 6 2 10 4 10 3 0 8 -4 11 -10z m-645 -19 c0
-5 -7 -14 -15 -21 -10 -9 -15 -9 -15 -1 0 6 5 11 11 11 5 0 7 5 4 10 -3 6 -1
10 4 10 6 0 11 -4 11 -9z m929 -9 c5 -8 27 -11 67 -8 38 3 52 2 39 -4 -11 -5
-30 -9 -42 -9 -13 -1 -23 -6 -23 -12 0 -6 -15 -2 -34 9 -46 27 -122 21 -182
-14 -31 -18 -53 -25 -72 -21 -15 3 -38 -1 -52 -8 -14 -8 -47 -14 -75 -13 l-50
2 50 3 c27 3 56 9 63 16 8 6 34 12 58 12 29 1 56 11 82 29 22 15 46 24 54 21
9 -4 19 -2 22 3 8 14 86 9 95 -6z m-1324 -4 c5 4 5 1 1 -6 -6 -10 -11 -10 -22
-1 -8 6 -14 14 -14 16 0 3 6 0 13 -6 8 -6 18 -7 22 -3z m93 5 c-22 -6 -23 -22
-3 -50 10 -14 21 -20 32 -16 11 4 14 3 9 -5 -4 -7 -2 -12 3 -12 16 0 13 32 -6
60 l-16 25 24 -22 c30 -28 41 -29 32 -5 -4 12 -3 14 6 6 8 -8 7 -18 -5 -42
-22 -45 -55 -43 -84 3 -24 39 -21 66 7 64 17 -1 17 -2 1 -6z m812 -13 c-8 -5
-17 -7 -19 -4 -3 3 1 9 9 14 8 5 17 7 19 4 3 -3 -1 -9 -9 -14z m994 9 c-5 -9
1 -10 22 -5 27 6 28 5 11 -8 -11 -8 -25 -12 -33 -9 -16 6 -19 33 -3 33 5 0 7
-5 3 -11z m-1654 -4 c0 -7 -30 -13 -34 -7 -3 4 4 9 15 9 10 1 19 0 19 -2z
m-228 -27 c-7 -7 -12 -8 -12 -2 0 14 12 26 19 19 2 -3 -1 -11 -7 -17z m258 18
c0 -3 -4 -8 -10 -11 -5 -3 -10 -1 -10 4 0 6 5 11 10 11 6 0 10 -2 10 -4z m50
-6 c0 -5 -2 -10 -4 -10 -3 0 -8 5 -11 10 -3 6 -1 10 4 10 6 0 11 -4 11 -10z
m30 0 c0 -5 -5 -10 -11 -10 -5 0 -7 5 -4 10 3 6 8 10 11 10 2 0 4 -4 4 -10z
m-95 -41 c4 -5 -3 -9 -14 -9 -10 0 -21 -6 -24 -12 -3 -7 -5 -4 -4 8 1 21 32
31 42 13z m79 0 c-2 -4 2 -10 8 -13 7 -3 4 -5 -6 -3 -23 2 -33 24 -12 24 8 0
13 -4 10 -8z m483 -5 c-3 -3 -12 -4 -19 -1 -8 3 -5 6 6 6 11 1 17 -2 13 -5z
m1130 -26 c-3 -7 -5 -2 -5 12 0 14 2 19 5 13 2 -7 2 -19 0 -25z m-1147 -8 c10
-6 11 -10 3 -10 -9 0 -10 -7 -3 -25 7 -20 6 -25 -5 -25 -10 0 -15 10 -15 31 0
27 -2 30 -15 19 -9 -7 -14 -19 -11 -26 3 -7 1 -16 -3 -19 -5 -2 -11 8 -13 25
-3 21 0 30 11 33 27 8 35 7 51 -3z m514 -14 c-11 -8 -14 -18 -9 -26 7 -11 10
-9 16 6 7 17 8 17 8 -4 1 -17 -4 -23 -16 -20 -10 2 -19 11 -21 21 -4 21 16 49
30 41 5 -3 1 -12 -8 -18z m531 14 c3 -5 1 -10 -4 -10 -6 0 -11 5 -11 10 0 6 2
10 4 10 3 0 8 -4 11 -10z m-1740 -10 c-3 -5 -16 -10 -28 -9 -21 0 -21 1 -2 9
28 12 37 12 30 0z m44 -4 c10 -12 8 -13 -8 -9 -12 3 -18 9 -15 14 7 12 10 11
23 -5z m66 -5 c-3 -6 -11 -8 -17 -5 -6 4 -5 9 3 15 16 10 23 4 14 -10z m409
13 c-15 -6 -5 -46 10 -41 6 2 12 14 14 26 5 31 37 23 37 -9 0 -22 -5 -25 -42
-27 -42 -3 -43 -2 -43 27 0 22 5 30 18 29 9 0 12 -3 6 -5z m96 -26 c0 -17 -3
-28 -7 -25 -9 10 -10 57 -1 57 4 0 8 -14 8 -32z m148 20 c14 -14 -2 -48 -23
-48 -10 0 -15 10 -15 30 0 31 17 39 38 18z m71 -10 c10 -27 6 -38 -15 -38 -9
0 -14 11 -14 30 0 35 17 40 29 8z m53 10 c-7 -7 -12 -20 -12 -30 0 -27 -17
-22 -22 7 -4 16 0 25 11 28 30 8 35 7 23 -5z m109 -14 c7 -17 8 -17 8 -1 1 24
21 21 21 -4 0 -12 4 -17 11 -14 6 4 8 13 5 21 -3 7 0 16 5 20 7 4 9 -5 7 -22
-2 -24 -8 -29 -31 -29 -16 -1 -31 3 -34 8 -2 4 -12 2 -20 -5 -14 -11 -15 -10
-9 10 6 17 4 21 -8 16 -8 -3 -17 -13 -19 -22 -3 -10 -5 -2 -6 15 -1 31 1 33
31 29 20 -2 35 -10 39 -22z m85 2 c-4 -15 -1 -26 7 -29 7 -3 5 -6 -5 -6 -13
-1 -18 7 -18 29 0 17 5 30 11 30 7 0 9 -9 5 -24z m68 8 c3 -9 6 -23 6 -32 0
-15 -2 -15 -10 -2 -9 13 -11 13 -20 0 -8 -13 -10 -13 -10 2 0 22 10 48 20 48
4 0 11 -7 14 -16z m116 -29 c5 3 7 12 4 19 -3 8 0 17 6 21 8 5 10 -2 8 -21 -4
-35 -33 -45 -43 -15 -3 12 -3 26 2 33 5 9 9 4 11 -15 2 -15 7 -25 12 -22z m60
31 c0 -8 3 -23 7 -33 6 -15 4 -16 -9 -5 -13 10 -17 10 -21 0 -3 -7 -6 2 -6 20
-1 22 4 32 14 32 8 0 15 -6 15 -14z m65 -26 c7 -22 6 -23 -8 -12 -12 10 -16
10 -20 0 -2 -7 -7 -10 -11 -7 -4 4 -1 18 5 33 13 29 22 25 34 -14z m62 23 c1
-10 -1 -25 -3 -33 -5 -13 -6 -13 -14 0 -7 10 -10 11 -10 3 0 -7 -4 -13 -10
-13 -5 0 -10 12 -10 26 0 19 4 25 15 20 8 -3 15 -1 15 4 0 18 17 10 17 -7z
m331 -8 c-6 -14 -15 -25 -19 -25 -4 0 -2 11 4 25 7 14 15 25 19 25 4 0 2 -11
-4 -25z m243 -8 l-24 -22 19 27 c10 14 21 24 23 22 3 -3 -6 -15 -18 -27z
m-2116 -18 c4 -5 -10 -2 -29 8 -20 9 -36 20 -36 24 0 9 57 -19 65 -32z m2225
-14 c-7 -9 -15 -13 -17 -11 -7 7 7 26 19 26 6 0 6 -6 -2 -15z m-2110 -120 c0
-47 -2 -85 -5 -85 -2 0 -20 24 -40 52 l-35 53 0 -53 c0 -28 -4 -52 -10 -52 -6
0 -10 32 -10 76 0 50 4 73 10 69 6 -4 18 -1 27 7 15 12 15 11 4 -7 -11 -17 -9
-26 11 -60 l23 -40 3 63 c4 93 22 75 22 -23z m310 6 c0 -67 3 -80 18 -84 10
-3 6 -5 -10 -6 l-28 -1 0 85 c0 50 4 85 10 85 6 0 10 -33 10 -79z m1145 -6 c0
-47 -3 -85 -7 -85 -5 0 -8 31 -8 69 0 38 -3 76 -6 85 -4 10 -1 16 7 16 11 0
14 -20 14 -85z m52 79 c-3 -3 -12 -4 -19 -1 -8 3 -5 6 6 6 11 1 17 -2 13 -5z
m650 -26 c-3 -8 -6 -5 -6 6 -1 11 2 17 5 13 3 -3 4 -12 1 -19z m-2117 -38 c0
-27 -4 -50 -10 -50 -5 0 -10 23 -10 50 0 28 5 50 10 50 6 0 10 -22 10 -50z
m87 13 c9 -21 18 -33 20 -26 2 7 -1 22 -7 33 -15 28 -4 39 15 14 13 -17 14
-17 15 -1 0 9 5 17 10 17 7 0 7 -6 0 -19 -5 -11 -10 -27 -10 -35 0 -28 16 -17
29 19 7 19 16 35 22 35 5 0 -1 -21 -13 -47 -29 -61 -27 -60 -39 -43 -8 13 -10
13 -18 0 -6 -8 -12 -12 -14 -10 -7 8 -37 81 -37 91 0 20 12 7 27 -28z m309 12
c33 -50 -20 -104 -71 -71 -29 19 -32 51 -8 78 23 26 59 23 79 -7z m39 -5 c10
-43 22 -45 36 -5 7 19 16 35 20 35 5 0 -1 -22 -13 -50 -11 -27 -23 -50 -27
-50 -6 0 -41 79 -41 93 0 20 19 3 25 -23z m145 21 c0 -5 -9 -7 -20 -4 -16 4
-20 0 -20 -17 0 -16 4 -20 15 -16 8 3 15 1 15 -4 0 -6 -7 -10 -16 -10 -11 0
-15 -6 -11 -20 3 -13 0 -20 -9 -20 -10 0 -14 14 -14 50 0 49 1 50 30 50 17 0
30 -4 30 -9z m105 -1 c4 -7 -2 -9 -19 -4 -48 12 -75 -36 -40 -71 11 -11 26
-14 43 -10 20 4 22 3 11 -5 -8 -5 -23 -10 -32 -10 -22 0 -58 34 -58 55 0 38
77 74 95 45z m80 -31 c1 -20 8 -48 18 -62 11 -18 13 -25 4 -21 -7 2 -21 18
-31 34 -19 34 -41 40 -33 10 3 -11 1 -23 -4 -26 -5 -3 -9 20 -9 51 0 56 0 56
28 53 24 -3 27 -7 27 -39z m105 -5 c23 -53 23 -54 11 -54 -5 0 -14 14 -21 31
l-13 30 -15 -31 c-20 -42 -27 -31 -8 15 9 20 13 41 10 46 -3 5 -1 9 5 9 6 0
19 -21 31 -46z m65 26 c-5 -16 -2 -20 14 -20 12 0 21 -5 21 -10 0 -6 -8 -10
-17 -8 -13 2 -18 -3 -17 -19 0 -13 -3 -23 -8 -23 -4 0 -8 23 -8 50 0 29 5 50
11 50 6 0 8 -9 4 -20z m140 10 c-3 -5 -12 -7 -20 -3 -12 4 -15 -5 -15 -41 0
-25 -4 -46 -10 -46 -5 0 -10 20 -10 44 0 34 -4 46 -17 49 -10 3 4 5 30 6 28 1
46 -3 42 -9z m35 -40 c0 -27 -4 -50 -10 -50 -5 0 -10 23 -10 50 0 28 5 50 10
50 6 0 10 -22 10 -50z m90 -3 c20 -52 11 -64 -12 -16 l-15 30 -13 -30 c-7 -17
-16 -31 -21 -31 -4 0 0 19 11 42 10 23 16 46 13 51 -3 5 0 8 7 5 7 -2 20 -25
30 -51z m115 -17 c2 0 1 16 -2 35 -4 23 -2 35 6 35 8 0 11 -17 10 -50 -2 -27
-6 -50 -10 -50 -4 0 -17 14 -29 30 -12 17 -26 30 -32 30 -6 0 -8 -12 -4 -30 3
-17 1 -30 -4 -30 -6 0 -10 24 -10 53 l1 52 34 -37 c20 -21 37 -38 40 -38z
m165 13 c0 -31 -3 -53 -6 -50 -11 11 -14 107 -4 107 6 0 10 -26 10 -57z m106
46 c4 -7 0 -9 -13 -5 -46 15 -74 -21 -47 -61 12 -20 21 -23 42 -19 20 5 23 4
12 -4 -22 -14 -41 -12 -62 7 -23 21 -24 69 0 82 23 14 59 14 68 0z m104 1 c0
-5 -7 -7 -15 -4 -12 5 -15 -3 -15 -39 0 -25 -4 -49 -10 -52 -6 -4 -10 14 -10
45 0 42 -3 51 -15 46 -8 -3 -15 -1 -15 4 0 6 18 10 40 10 22 0 40 -4 40 -10z
m40 -45 c0 -30 -4 -55 -10 -55 -5 0 -10 25 -10 55 0 30 5 55 10 55 6 0 10 -25
10 -55z m104 39 c24 -23 20 -61 -9 -80 -31 -20 -63 -10 -76 23 -20 53 45 97
85 57z m56 1 c7 -8 17 -12 23 -8 6 4 8 0 4 -10 -3 -8 0 -21 8 -27 11 -9 14 -4
18 27 3 32 4 30 5 -14 1 -29 -1 -53 -4 -53 -3 0 -17 14 -32 32 l-27 32 -6 -35
c-5 -31 -6 -30 -10 19 -4 54 0 62 21 37z m-440 -35 c0 -5 -4 -10 -10 -10 -5 0
-10 5 -10 10 0 6 5 10 10 10 6 0 10 -4 10 -10z m-1075 -90 c-3 -5 -12 -10 -18
-10 -7 0 -6 4 3 10 19 12 23 12 15 0z m-445 -91 c0 -3 -6 -6 -12 -6 -7 0 -14
14 -14 30 l-1 30 13 -24 c7 -13 13 -27 14 -30z m1225 41 c4 -6 10 -8 14 -6 4
3 8 -1 8 -9 0 -13 -3 -13 -17 0 -21 19 -30 19 -30 -2 0 -9 -3 -14 -6 -10 -9 8
3 37 15 37 5 0 13 -5 16 -10z m171 -17 c-10 -10 -19 5 -10 18 6 11 8 11 12 0
2 -7 1 -15 -2 -18z m-1279 -5 c-3 -8 -6 -5 -6 6 -1 11 2 17 5 13 3 -3 4 -12 1
-19z m100 0 c-3 -8 -6 -5 -6 6 -1 11 2 17 5 13 3 -3 4 -12 1 -19z m100 0 c-3
-8 -6 -5 -6 6 -1 11 2 17 5 13 3 -3 4 -12 1 -19z m44 5 c13 -16 12 -17 -3 -4
-17 13 -22 21 -14 21 2 0 10 -8 17 -17z m36 -5 c-3 -8 -6 -5 -6 6 -1 11 2 17
5 13 3 -3 4 -12 1 -19z m133 1 c0 -6 -4 -7 -10 -4 -5 3 -10 11 -10 16 0 6 5 7
10 4 6 -3 10 -11 10 -16z m51 5 c12 -14 14 -14 20 3 7 16 8 15 8 -4 1 -14 -5
-23 -14 -23 -8 0 -15 5 -15 11 0 5 -3 8 -7 6 -5 -3 -14 1 -21 9 -10 11 -10 14
1 14 8 0 21 -7 28 -16z m56 -6 c-3 -8 -6 -5 -6 6 -1 11 2 17 5 13 3 -3 4 -12
1 -19z m97 6 c3 -8 2 -12 -4 -9 -6 3 -10 10 -10 16 0 14 7 11 14 -7z m31 7 c3
-5 1 -12 -5 -16 -5 -3 -10 1 -10 9 0 18 6 21 15 7z m46 -13 c11 -21 11 -22 -4
-9 -10 7 -17 17 -17 22 0 15 9 10 21 -13z m95 1 l19 -22 -25 14 c-14 7 -29 12
-33 11 -5 -1 -6 2 -2 8 9 15 20 12 41 -11z m99 12 c3 -5 1 -12 -5 -16 -5 -3
-10 1 -10 9 0 18 6 21 15 7z m69 -7 c3 -8 2 -12 -4 -9 -6 3 -10 10 -10 16 0
14 7 11 14 -7z m37 -1 c13 -16 12 -17 -3 -4 -17 13 -22 21 -14 21 2 0 10 -8
17 -17z m174 7 c3 -5 1 -10 -4 -10 -6 0 -11 5 -11 10 0 6 2 10 4 10 3 0 8 -4
11 -10z m252 -12 c-3 -8 -6 -5 -6 6 -1 11 2 17 5 13 3 -3 4 -12 1 -19z m61 9
c8 -10 6 -13 -7 -13 -10 0 -18 6 -18 13 0 7 4 13 7 13 4 0 12 -6 18 -13z m130
-7 c7 -11 11 -20 9 -20 -2 0 -12 9 -22 20 -10 11 -14 20 -9 20 5 0 15 -9 22
-20z m37 11 c3 -5 2 -12 -3 -15 -5 -3 -9 1 -9 9 0 17 3 19 12 6z m58 -13 c3
-10 4 -18 3 -18 -2 0 -10 8 -19 18 -14 15 -14 19 -3 19 8 0 17 -9 19 -19z m44
5 c0 -7 -4 -13 -7 -13 -4 0 -12 6 -18 13 -8 10 -6 13 7 13 10 0 18 -6 18 -13z
m36 3 c4 -10 1 -13 -8 -9 -8 3 -12 9 -9 14 7 12 11 11 17 -5z m67 -22 c0 -2
-11 2 -25 8 -14 6 -25 15 -25 20 0 5 11 1 25 -8 14 -9 25 -18 25 -20z m-300 1
c14 -19 14 -19 -2 -6 -10 7 -18 18 -18 24 0 6 1 8 3 6 1 -2 9 -13 17 -24z
m-973 -7 c-3 -8 -6 -5 -6 6 -1 11 2 17 5 13 3 -3 4 -12 1 -19z m153 -84 c0 -3
-7 -1 -15 6 -8 7 -15 17 -15 22 0 5 7 3 15 -6 8 -8 15 -18 15 -22z m73 -5 c-5
-5 -15 1 -22 14 -13 20 -13 21 2 8 15 -12 17 -11 18 5 1 18 1 18 6 0 3 -10 1
-22 -4 -27z m-626 9 c-3 -8 -6 -5 -6 6 -1 11 2 17 5 13 3 -3 4 -12 1 -19z
m104 5 c13 -16 12 -17 -3 -4 -17 13 -22 21 -14 21 2 0 10 -8 17 -17z m89 7 c0
-5 -4 -10 -10 -10 -5 0 -10 5 -10 10 0 6 5 10 10 10 6 0 10 -4 10 -10z m52 -5
c3 0 9 -3 13 -7 4 -3 0 -5 -9 -4 -9 1 -22 8 -29 16 -10 10 -9 11 3 4 8 -5 18
-9 22 -9z m78 -6 c0 -6 -4 -7 -10 -4 -5 3 -10 11 -10 16 0 6 5 7 10 4 6 -3 10
-11 10 -16z m45 1 c10 -11 16 -20 13 -20 -3 0 -15 9 -28 20 -13 11 -19 20 -13
20 5 0 18 -9 28 -20z m75 4 c0 -8 -5 -12 -10 -9 -6 4 -8 11 -5 16 9 14 15 11
15 -7z m47 -6 c-3 -8 -6 -5 -6 6 -1 11 2 17 5 13 3 -3 4 -12 1 -19z m223 17
c0 -2 -7 -8 -15 -15 -12 -10 -15 -10 -15 2 0 8 7 15 15 15 8 0 15 -1 15 -2z
m47 -17 c-3 -8 -6 -5 -6 6 -1 11 2 17 5 13 3 -3 4 -12 1 -19z m117 6 c5 -14 4
-15 -9 -4 -17 14 -19 20 -6 20 5 0 12 -7 15 -16z m37 -1 c13 -16 12 -17 -3 -4
-10 7 -18 15 -18 17 0 8 8 3 21 -13z m122 2 c3 -6 -5 -11 -18 -11 -13 0 -21 5
-18 11 2 7 10 12 18 12 8 0 16 -5 18 -12z m47 -6 c0 -6 -4 -7 -10 -4 -5 3 -10
11 -10 16 0 6 5 7 10 4 6 -3 10 -11 10 -16z m35 10 c11 -17 -1 -21 -15 -4 -8
9 -8 15 -2 15 6 0 14 -5 17 -11z m105 -2 c0 7 7 10 15 7 8 -4 13 -10 10 -14
-8 -13 -38 -5 -43 11 -3 11 -1 11 7 -1 7 -10 11 -11 11 -3z m94 -13 c4 -11 1
-12 -13 -5 -10 6 -20 8 -23 6 -3 -3 -5 1 -5 9 0 17 34 9 41 -10z"/>
<path d="M1510 3310 c0 -5 5 -10 10 -10 6 0 10 5 10 10 0 6 -4 10 -10 10 -5 0
-10 -4 -10 -10z"/>
<path d="M1682 3308 c-27 -27 -5 -72 23 -48 18 15 19 21 2 43 -10 14 -15 15
-25 5z"/>
<path d="M995 3060 c-16 -7 -17 -9 -3 -9 9 -1 20 4 23 9 7 11 7 11 -20 0z"/>
<path d="M120 3001 c0 -5 7 -12 16 -15 14 -5 15 -4 4 9 -14 17 -20 19 -20 6z"/>
<path d="M1530 2929 c0 -5 5 -7 10 -4 6 3 10 8 10 11 0 2 -4 4 -10 4 -5 0 -10
-5 -10 -11z"/>
<path d="M1532 2825 c0 -16 2 -22 5 -12 2 9 2 23 0 30 -3 6 -5 -1 -5 -18z"/>
<path d="M1531 2774 c0 -11 3 -14 6 -6 3 7 2 16 -1 19 -3 4 -6 -2 -5 -13z"/>
<path d="M1366 2982 c-2 -4 4 -8 14 -8 10 0 16 4 14 8 -3 4 -9 8 -14 8 -5 0
-11 -4 -14 -8z"/>
<path d="M1340 2910 c0 -5 5 -10 11 -10 5 0 7 5 4 10 -3 6 -8 10 -11 10 -2 0
-4 -4 -4 -10z"/>
<path d="M1690 2899 c0 -5 5 -7 10 -4 6 3 10 8 10 11 0 2 -4 4 -10 4 -5 0 -10
-5 -10 -11z"/>
<path d="M889 2848 c-5 -16 -4 -46 2 -42 4 2 7 13 6 24 -1 17 -5 26 -8 18z"/>
<path d="M870 2644 c0 -23 36 -61 48 -50 4 4 0 13 -9 19 -8 7 -21 21 -27 32
-11 20 -11 20 -12 -1z"/>
<path d="M1930 2451 c0 -6 4 -13 10 -16 6 -3 7 1 4 9 -7 18 -14 21 -14 7z"/>
<path d="M450 2325 c0 -8 2 -15 4 -15 2 0 6 7 10 15 3 8 1 15 -4 15 -6 0 -10
-7 -10 -15z"/>
<path d="M2087 2213 c-10 -9 -9 -23 2 -23 5 0 11 7 15 15 5 15 -5 20 -17 8z"/>
<path d="M1940 2175 c0 -16 16 -20 24 -6 3 5 -1 11 -9 15 -9 3 -15 0 -15 -9z"/>
<path d="M2006 2175 c-11 -8 -17 -18 -13 -21 3 -3 16 3 28 15 26 24 14 28 -15
6z"/>
<path d="M1900 2155 c-7 -9 -8 -15 -2 -15 5 0 12 7 16 15 3 8 4 15 2 15 -2 0
-9 -7 -16 -15z"/>
<path d="M1940 2140 c0 -5 5 -10 11 -10 5 0 7 5 4 10 -3 6 -8 10 -11 10 -2 0
-4 -4 -4 -10z"/>
<path d="M1966 2114 c-30 -29 -19 -33 14 -4 13 11 18 20 12 20 -6 0 -18 -7
-26 -16z"/>
<path d="M1905 2090 c-3 -5 3 -10 15 -10 12 0 18 5 15 10 -3 6 -10 10 -15 10
-5 0 -12 -4 -15 -10z"/>
<path d="M1870 2069 c0 -5 5 -7 10 -4 6 3 10 8 10 11 0 2 -4 4 -10 4 -5 0 -10
-5 -10 -11z"/>
<path d="M1975 1981 c-3 -5 -2 -12 3 -15 5 -3 9 1 9 9 0 17 -3 19 -12 6z"/>
<path d="M370 1976 c0 -2 8 -10 18 -17 15 -13 16 -12 3 4 -13 16 -21 21 -21
13z"/>
<path d="M1230 2524 c0 -8 5 -12 10 -9 6 4 8 11 5 16 -9 14 -15 11 -15 -7z"/>
<path d="M1271 2518 c12 -22 23 -23 39 -3 13 16 2 24 -32 22 -13 0 -15 -4 -7
-19z"/>
<path d="M1084 2491 c-22 -15 -48 -40 -58 -55 -16 -26 -25 -80 -14 -91 7 -7
62 77 63 95 0 16 8 29 39 60 28 28 15 25 -30 -9z"/>
<path d="M1205 2510 c3 -5 8 -10 11 -10 2 0 4 5 4 10 0 6 -5 10 -11 10 -5 0
-7 -4 -4 -10z"/>
<path d="M1370 2510 c0 -5 -8 -7 -17 -4 -17 5 -17 5 0 -6 9 -6 15 -15 13 -19
-3 -4 2 -8 10 -8 9 0 11 4 5 10 -5 5 -7 16 -4 23 3 8 2 14 -1 14 -3 0 -6 -4
-6 -10z"/>
<path d="M1420 2505 c10 -13 8 -19 -14 -36 -26 -20 -35 -49 -16 -49 6 0 10 4
10 8 0 5 11 21 24 37 18 20 25 24 32 14 4 -7 3 -14 -4 -17 -26 -8 -39 -31 -34
-62 2 -17 7 -29 11 -28 3 2 18 10 34 17 15 8 27 20 27 27 0 7 9 19 21 27 l21
15 -24 7 c-12 4 -37 18 -55 31 -36 27 -52 31 -33 9z"/>
<path d="M1195 2471 c-4 -3 -16 -6 -28 -6 -11 0 -22 -5 -24 -11 -4 -13 23 -44
38 -44 17 0 9 17 -13 28 -20 10 -19 10 13 7 27 -3 42 1 53 14 16 17 15 19 -8
19 -14 0 -28 -3 -31 -7z"/>
<path d="M1107 2463 c-12 -12 -7 -33 7 -33 8 0 13 7 12 15 -3 19 -11 27 -19
18z"/>
<path d="M1311 2433 c-1 -6 4 -15 10 -19 13 -8 36 13 25 23 -4 4 -11 1 -15 -6
-7 -11 -10 -11 -14 0 -3 9 -6 10 -6 2z"/>
<path d="M1273 2403 c-15 -5 -17 -23 -4 -23 5 0 11 7 15 15 3 8 4 15 3 14 -1
0 -8 -3 -14 -6z"/>
<path d="M1196 2374 c-10 -14 -15 -28 -13 -31 3 -2 13 7 23 21 9 15 14 29 12
32 -3 2 -13 -7 -22 -22z"/>
<path d="M1085 2370 c3 -5 8 -10 11 -10 2 0 4 5 4 10 0 6 -5 10 -11 10 -5 0
-7 -4 -4 -10z"/>
<path d="M1241 2367 c-14 -14 -14 -27 0 -27 5 0 7 5 3 11 -4 8 0 9 15 4 11 -3
21 -2 21 3 0 15 -26 22 -39 9z"/>
<path d="M1043 2345 c-15 -17 -3 -27 17 -15 10 6 11 12 5 19 -6 6 -14 4 -22
-4z"/>
<path d="M1080 2326 c-49 -36 -62 -74 -31 -93 15 -9 19 -6 28 28 5 21 6 36 2
33 -5 -3 -9 -3 -9 0 0 2 19 18 42 35 23 17 35 31 27 30 -7 0 -34 -15 -59 -33z"/>
<path d="M1292 2302 c-33 -33 -38 -44 -34 -70 4 -29 22 -46 22 -22 0 6 8 22
17 37 9 14 18 35 18 46 1 11 10 26 20 33 11 8 13 14 7 14 -7 0 -29 -17 -50
-38z"/>
<path d="M1410 2330 c0 -5 5 -10 10 -10 6 0 10 5 10 10 0 6 -4 10 -10 10 -5 0
-10 -4 -10 -10z"/>
<path d="M973 2323 c-13 -5 -19 -33 -7 -33 7 0 34 27 34 34 0 7 -10 7 -27 -1z"/>
<path d="M930 2309 c0 -5 5 -7 10 -4 6 3 10 8 10 11 0 2 -4 4 -10 4 -5 0 -10
-5 -10 -11z"/>
<path d="M1120 2265 c0 -14 2 -25 4 -25 2 0 6 11 8 25 3 14 1 25 -3 25 -5 0
-9 -11 -9 -25z"/>
<path d="M1200 2278 c0 -7 9 -24 20 -38 l20 -25 -4 30 c-2 17 -5 33 -5 38 -2
12 -31 8 -31 -5z"/>
<path d="M1007 2269 c7 -7 15 -10 18 -7 3 3 -2 9 -12 12 -14 6 -15 5 -6 -5z"/>
<path d="M1404 2245 c3 -9 6 -25 6 -36 0 -16 4 -18 18 -11 9 5 23 7 31 4 8 -3
12 1 9 9 -3 8 -12 13 -20 13 -9 -1 -15 6 -14 14 0 9 -8 18 -18 20 -14 3 -17 0
-12 -13z"/>
<path d="M1470 2255 c1 -14 50 -68 57 -62 9 10 -6 37 -24 44 -10 4 -21 11 -25
17 -5 7 -8 7 -8 1z"/>
<path d="M1311 2216 c-6 -8 -10 -18 -9 -24 2 -5 -9 -23 -24 -40 -31 -35 -45
-77 -30 -86 20 -12 57 56 66 119 2 10 8 21 14 23 8 2 10 -3 6 -15 -6 -14 -4
-16 6 -6 13 12 7 43 -8 43 -5 0 -15 -6 -21 -14z"/>
<path d="M1145 2200 c-3 -5 1 -10 10 -10 9 0 13 5 10 10 -3 6 -8 10 -10 10 -2
0 -7 -4 -10 -10z"/>
<path d="M1070 2190 c0 -5 4 -10 9 -10 6 0 13 5 16 10 3 6 -1 10 -9 10 -9 0
-16 -4 -16 -10z"/>
<path d="M1210 2150 c0 -5 5 -10 10 -10 6 0 10 5 10 10 0 6 -4 10 -10 10 -5 0
-10 -4 -10 -10z"/>
<path d="M998 2144 c-5 -4 -8 -12 -8 -18 0 -15 58 -47 65 -36 3 5 -5 12 -19
16 -14 3 -26 14 -28 26 -2 11 -6 16 -10 12z"/>
<path d="M766 2244 c-9 -8 -16 -25 -16 -37 0 -12 -4 -28 -9 -36 -6 -10 -4 -22
7 -37 20 -27 32 -30 32 -8 0 8 4 13 9 10 5 -3 11 1 15 9 7 20 -12 29 -31 13
-14 -11 -15 -10 -8 12 4 14 11 27 15 30 7 4 9 60 3 60 -1 0 -9 -7 -17 -16z"/>
<path d="M2211 2161 c-8 -6 -9 -11 -3 -15 6 -3 14 -1 17 5 9 14 2 20 -14 10z"/>
<path d="M830 2099 c0 -5 5 -7 10 -4 6 3 10 8 10 11 0 2 -4 4 -10 4 -5 0 -10
-5 -10 -11z"/>
<path d="M1510 1980 c0 -5 5 -10 10 -10 6 0 10 5 10 10 0 6 -4 10 -10 10 -5 0
-10 -4 -10 -10z"/>
<path d="M2200 1905 c7 -8 16 -12 21 -9 13 8 1 24 -18 24 -13 0 -13 -3 -3 -15z"/>
<path d="M1460 1920 c-9 -6 -10 -10 -3 -10 6 0 15 5 18 10 8 12 4 12 -15 0z"/>
<path d="M2342 1729 c2 -7 10 -15 17 -17 8 -3 12 1 9 9 -2 7 -10 15 -17 17 -8
3 -12 -1 -9 -9z"/>
<path d="M1452 1118 c5 -15 28 -23 28 -10 0 5 -7 13 -16 16 -10 4 -14 1 -12
-6z"/>
<path d="M1176 1035 c-3 -8 -1 -15 4 -15 6 0 10 7 10 15 0 8 -2 15 -4 15 -2 0
-6 -7 -10 -15z"/>
<path d="M1165 970 c-3 -5 -1 -10 4 -10 6 0 11 5 11 10 0 6 -2 10 -4 10 -3 0
-8 -4 -11 -10z"/>
<path d="M1243 968 c1 -7 -4 -12 -11 -10 -8 1 -11 -2 -7 -8 5 -8 11 -8 21 1 7
6 11 15 8 20 -8 13 -14 11 -11 -3z"/>
<path d="M1105 940 c-4 -6 5 -10 20 -10 15 0 24 4 20 10 -3 6 -12 10 -20 10
-8 0 -17 -4 -20 -10z"/>
<path d="M790 510 c0 -11 5 -20 10 -20 6 0 10 9 10 20 0 11 -4 20 -10 20 -5 0
-10 -9 -10 -20z"/>
<path d="M970 510 c0 -11 5 -20 10 -20 6 0 10 9 10 20 0 11 -4 20 -10 20 -5 0
-10 -9 -10 -20z"/>
<path d="M633 403 c-18 -7 -16 -58 3 -74 33 -27 72 33 44 67 -13 14 -25 16
-47 7z"/>
<path d="M1027 403 c-13 -12 -7 -33 8 -33 8 0 15 9 15 20 0 20 -11 26 -23 13z"/>
<path d="M2070 395 c-27 -33 15 -90 46 -64 18 15 18 49 0 49 -8 0 -18 4 -21
10 -3 6 1 7 9 4 9 -3 16 -1 16 5 0 16 -36 13 -50 -4z"/>
<path d="M1206 3442 c-3 -6 1 -13 10 -16 23 -9 28 -2 10 13 -8 7 -17 8 -20 3z"/>
<path d="M1252 3434 c10 -10 20 -15 24 -12 3 4 -5 12 -18 18 -22 12 -22 12 -6
-6z"/>
</g>
</svg>
