<?xml version="1.0" standalone="no"?>
<!DOCTYPE svg PUBLIC "-//W3C//DTD SVG 20010904//EN"
 "http://www.w3.org/TR/2001/REC-SVG-20010904/DTD/svg10.dtd">
<svg version="1.0" xmlns="http://www.w3.org/2000/svg"
 width="246.000000pt" height="345.000000pt" viewBox="0 0 246.000000 345.000000"
 preserveAspectRatio="xMidYMid meet">

<g transform="translate(0.000000,345.000000) scale(0.100000,-0.100000)"
fill="#000000" stroke="none">
<path d="M0 2160 c0 -896 3 -1290 11 -1290 5 0 15 14 21 31 6 17 21 34 34 39
31 12 30 33 -3 66 -15 15 -23 29 -17 31 11 4 8 26 -16 122 -6 26 -7 47 -2 50
5 3 14 16 20 28 9 16 9 22 -1 26 -9 3 -9 7 0 18 14 18 7 55 -13 63 -15 6 -10
49 6 54 5 2 10 12 10 23 0 11 7 22 15 25 8 4 15 17 15 30 0 14 7 27 15 30 8 4
15 11 15 16 0 6 -7 8 -14 5 -10 -4 -13 -1 -10 8 3 8 14 17 25 20 30 10 25 24
-23 58 -21 14 -29 63 -10 59 7 -1 35 9 62 23 28 14 50 21 50 16 0 -5 6 -11 14
-14 10 -4 12 0 9 14 -4 15 0 19 21 19 15 0 29 -7 32 -15 4 -8 10 -15 15 -15 5
0 9 7 9 15 0 10 10 15 30 15 24 0 30 -4 30 -22 l0 -21 19 21 c21 25 61 30 61
8 0 -8 7 -17 16 -20 8 -3 12 -2 9 4 -4 6 10 10 34 10 l41 0 0 65 c0 60 2 66
25 77 18 8 35 9 53 2 22 -8 28 -16 30 -47 3 -34 1 -37 -22 -37 -19 0 -26 6
-29 28 -4 25 -4 25 -6 -5 -1 -30 2 -33 29 -33 23 0 30 -5 30 -19 0 -17 4 -18
29 -11 16 4 32 6 35 2 3 -3 6 10 7 29 3 102 -2 94 59 94 l55 0 6 -85 c3 -47 6
-68 7 -47 1 21 6 36 11 32 5 -3 13 0 16 6 4 5 13 8 21 5 11 -4 14 5 14 38 0
32 5 46 17 50 20 8 42 -17 44 -48 1 -12 4 -5 8 14 4 26 11 35 26 35 18 0 21
-9 26 -85 3 -47 6 -78 7 -70 2 12 4 12 11 2 12 -19 15 -19 36 -2 17 14 17 13
11 -10 -6 -19 -5 -21 3 -10 12 17 42 20 53 5 5 -6 8 -6 8 1 0 6 -13 28 -30 49
-33 42 -39 85 -14 109 17 18 69 22 79 6 5 -9 40 -7 113 6 l32 6 0 -101 c0 -83
3 -101 15 -101 9 0 15 -9 15 -25 0 -18 -5 -25 -19 -25 -11 0 -23 -5 -27 -12
-4 -7 -3 -8 4 -4 7 4 12 1 12 -7 0 -7 9 -23 20 -35 12 -12 17 -22 12 -22 -5 0
-19 12 -31 26 -24 28 -39 27 -108 -1 -30 -13 -33 -18 -33 -58 0 -38 -4 -45
-27 -55 -27 -11 -27 -12 10 -7 23 2 37 0 37 -8 0 -6 12 -23 26 -38 l26 -28
-23 -37 c-30 -49 -33 -63 -29 -174 1 -37 -5 -89 -15 -122 -9 -31 -15 -81 -14
-110 3 -80 0 -160 -6 -185 -3 -13 -1 -23 4 -23 5 0 12 12 15 28 4 15 12 45 19
67 l11 40 6 -60 c4 -33 4 -63 0 -68 -4 -4 -20 -7 -36 -7 -16 0 -47 0 -69 0
-22 0 -67 -3 -100 -6 -75 -8 -72 -8 -120 0 -56 9 -75 16 -75 27 0 5 -11 9 -25
9 -14 0 -36 6 -48 14 -32 21 -150 36 -279 36 -193 1 -419 18 -437 33 -40 35
-41 23 -41 -409 l0 -414 1230 0 1230 0 0 545 0 545 -67 0 c-38 1 -93 2 -123 4
-30 2 -110 7 -178 11 l-123 7 -49 -32 c-28 -18 -50 -36 -50 -41 0 -4 42 -10
93 -11 84 -3 92 -5 92 -23 0 -13 -7 -20 -20 -21 -64 -3 -89 -6 -78 -10 7 -3 9
-12 7 -19 -6 -15 29 -28 76 -29 20 -1 25 -6 25 -26 0 -24 4 -25 64 -28 45 -2
67 1 72 10 7 10 9 10 9 1 0 -9 16 -13 45 -13 60 0 147 -19 139 -32 -4 -6 -75
-8 -187 -6 -137 2 -181 0 -184 -9 -3 -7 2 -13 11 -13 9 0 16 -7 16 -15 0 -8
-4 -15 -10 -15 -5 0 -10 4 -10 8 0 5 -22 10 -49 11 -37 1 -55 -3 -68 -17 -10
-10 -27 -22 -37 -26 -17 -6 -17 -8 -4 -19 8 -6 18 -20 22 -31 6 -17 2 -18 -41
-11 -27 4 -73 13 -103 21 -30 8 -65 14 -78 14 -12 0 -36 7 -52 15 -28 14 -30
14 -31 -2 0 -11 -3 -13 -6 -5 -2 6 -9 10 -14 6 -5 -3 -9 0 -9 6 0 6 -4 9 -8 6
-4 -2 -18 65 -30 151 l-22 155 39 37 c37 35 39 40 37 93 -1 50 -7 64 -45 117
-24 33 -52 63 -62 66 -20 7 -66 51 -80 77 -8 14 -6 20 8 25 10 4 24 14 31 22
8 9 11 10 7 4 -6 -12 6 -17 32 -14 8 1 11 -10 8 -34 -4 -28 -1 -37 13 -41 9
-3 36 -14 59 -23 33 -13 57 -15 115 -10 40 4 83 5 95 2 13 -3 45 0 73 7 58 14
67 11 49 -19 -7 -11 -10 -23 -6 -27 6 -6 131 -16 232 -18 17 0 33 -5 37 -10 4
-6 32 -5 75 4 37 7 100 14 138 15 39 1 78 6 88 10 16 7 17 67 17 1056 l0 1049
-1230 0 -1230 0 0 -1290z m411 1131 c7 11 9 9 9 -6 0 -25 -20 -59 -20 -35 0
13 -2 13 -11 0 -9 -12 -10 -12 -5 3 3 10 7 28 7 40 1 19 2 20 6 3 4 -15 7 -16
14 -5z m82 7 c-6 -7 -9 -23 -8 -35 1 -13 -2 -23 -7 -23 -9 0 -11 31 -2 54 3 9
11 16 16 16 7 0 7 -4 1 -12z m64 -40 c-2 -13 -4 -5 -4 17 -1 22 1 32 4 23 2
-10 2 -28 0 -40z m32 36 c1 11 3 17 6 14 7 -7 -6 -68 -15 -68 -4 0 -7 17 -8
38 0 29 2 33 8 17 8 -19 9 -19 9 -1z m142 -25 l-9 -34 -1 31 c-1 17 2 34 6 37
12 13 14 -1 4 -34z m87 9 c-4 -41 -28 -50 -28 -10 0 16 3 32 7 35 15 16 24 5
21 -25z m83 19 c-1 -4 -1 -19 -1 -34 0 -20 -3 -24 -9 -14 -7 11 -9 11 -14 0
-3 -8 -6 -4 -6 9 -1 12 3 22 9 22 5 0 7 7 3 16 -4 11 -2 15 6 13 7 -3 12 -8
12 -12z m81 4 c7 11 8 9 4 -4 -3 -10 -6 -27 -6 -36 0 -10 -7 -18 -15 -18 -10
0 -14 6 -10 14 3 8 5 24 6 36 0 13 3 16 6 8 5 -11 7 -11 15 0z m136 -23 c-15
-45 -17 -46 -15 -4 1 20 7 36 14 36 9 0 9 -8 1 -32z m66 -7 c-4 -17 -9 -30
-11 -27 -3 2 -2 19 2 36 9 41 17 33 9 -9z m76 6 c0 -21 -5 -34 -13 -34 -8 0
-11 11 -9 34 2 18 8 33 13 33 5 0 9 -15 9 -33z m23 1 c-8 -46 -13 -48 -13 -5
0 21 4 37 10 37 5 0 7 -14 3 -32z m71 10 c-1 -13 -3 -29 -3 -35 -1 -7 -5 -13
-9 -13 -4 0 -6 16 -4 35 2 19 7 35 11 35 4 0 7 -10 5 -22z m86 11 c0 -5 -4 -7
-10 -4 -14 8 -13 -8 1 -22 13 -13 4 -33 -14 -33 -8 0 -7 4 2 9 12 8 12 12 2
25 -13 15 -7 36 10 36 5 0 9 -5 9 -11z m140 -24 c0 -24 -5 -35 -15 -35 -8 0
-15 5 -15 11 0 5 4 8 8 5 4 -2 8 4 8 14 0 10 -4 16 -8 14 -10 -6 -11 10 -1 19
15 15 23 5 23 -28z m75 0 c0 -19 -3 -35 -7 -35 -5 0 -8 16 -8 35 0 19 3 35 8
35 4 0 7 -16 7 -35z m82 0 c1 -46 -11 -46 -14 0 -2 19 1 35 5 35 4 0 8 -16 9
-35z m75 0 c-2 -19 -6 -35 -8 -35 -2 0 -4 16 -4 35 0 19 4 35 8 35 4 0 6 -16
4 -35z m88 24 c0 -5 -4 -7 -10 -4 -5 3 -10 2 -10 -4 0 -5 5 -13 10 -16 17 -10
11 -35 -7 -35 -15 0 -15 2 -4 9 12 8 12 12 2 25 -13 15 -7 36 10 36 5 0 9 -5
9 -11z m67 -24 c-1 -42 -17 -48 -17 -7 0 24 7 42 15 42 2 0 2 -16 2 -35z m75
0 c2 -19 0 -35 -4 -35 -4 0 -8 16 -8 35 0 19 2 35 4 35 2 0 6 -16 8 -35z m70
0 c2 -19 0 -35 -4 -35 -4 0 -8 16 -8 35 0 19 2 35 4 35 2 0 6 -16 8 -35z m82
3 c-6 -45 -14 -48 -14 -5 0 21 4 37 9 37 4 0 7 -14 5 -32z m86 -1 c0 -23 -5
-34 -15 -34 -10 0 -15 11 -15 34 0 23 5 33 15 33 10 0 15 -10 15 -33z m-2093
3 c-1 -11 -5 -20 -9 -20 -3 0 -6 9 -5 20 1 11 5 20 9 20 3 0 6 -9 5 -20z m139
-130 c28 0 54 -39 54 -80 0 -39 -1 -40 -35 -40 -33 0 -35 2 -35 35 0 24 -5 35
-15 35 -11 0 -15 -11 -15 -42 0 -37 6 -48 47 -90 45 -46 47 -51 51 -113 4 -58
2 -69 -19 -91 -17 -18 -33 -24 -66 -24 -58 0 -83 25 -83 85 0 45 0 45 34 45
33 0 35 -2 38 -37 5 -56 23 -46 26 15 3 50 1 55 -37 95 -69 72 -81 89 -81 118
0 50 63 105 108 93 8 -2 20 -4 28 -4z m334 -30 c0 -26 -4 -30 -26 -30 l-26 0
2 -157 c1 -87 1 -164 1 -170 -1 -15 -61 -18 -61 -4 0 5 -9 13 -20 16 -11 3
-20 11 -20 17 0 5 9 12 20 15 19 5 20 14 20 144 l0 139 -25 0 c-21 0 -25 5
-25 30 l0 30 80 0 80 0 0 -30z m280 1 c0 -26 -4 -30 -32 -33 -32 -3 -33 -4
-33 -53 0 -48 1 -50 30 -55 23 -4 31 -11 33 -32 3 -24 -1 -27 -30 -30 -33 -3
-33 -3 -33 -58 l0 -55 37 -3 c33 -3 37 -6 35 -29 -2 -26 -4 -27 -62 -24 -33 1
-63 5 -67 7 -5 3 -8 93 -8 200 l0 194 65 0 65 0 0 -29z m310 9 c16 -16 20 -33
20 -96 0 -94 -9 -112 -60 -120 l-40 -7 0 -78 c0 -43 -4 -80 -8 -83 -15 -9 -57
20 -60 42 -2 12 -10 22 -17 22 -9 0 -12 8 -9 25 3 19 1 23 -12 18 -9 -3 -5 5
10 20 25 25 26 30 26 152 l0 125 65 0 c52 0 69 -4 85 -20z m220 -65 c0 -78 2
-85 20 -85 18 0 20 7 20 85 l0 85 35 0 35 0 0 -150 c0 -82 -1 -151 -2 -152 -1
-2 4 -13 10 -24 10 -18 8 -26 -13 -48 -13 -14 -33 -26 -45 -26 -19 0 -20 6
-20 85 0 79 -1 85 -21 85 -20 0 -20 -4 -17 -87 l3 -88 -32 -3 -33 -3 0 205 0
206 30 0 30 0 0 -85z m430 55 c0 -28 -3 -30 -35 -30 l-35 0 0 -55 c0 -54 0
-55 30 -55 27 0 30 -3 30 -30 0 -27 -3 -30 -30 -30 -29 0 -30 -1 -30 -49 0
-52 15 -74 47 -69 13 2 18 -3 18 -22 0 -22 -5 -26 -53 -33 -86 -14 -82 -24
-82 203 l0 200 70 0 70 0 0 -30z m264 -76 c14 -59 27 -108 29 -111 3 -2 2 46
-1 107 l-5 110 37 0 36 0 0 -167 c0 -188 -3 -204 -32 -222 -31 -20 -44 1 -68
109 -12 52 -23 96 -26 99 -2 2 -4 -23 -4 -57 0 -33 5 -64 10 -67 6 -4 7 -11 3
-18 -3 -6 -7 -26 -7 -45 -1 -32 -3 -35 -34 -36 l-32 -1 0 203 0 202 34 0 34 0
26 -106z m-1664 -214 c0 -5 -7 -7 -15 -4 -8 4 -12 10 -9 15 6 11 24 2 24 -11z
m1308 -196 c29 -19 42 -53 42 -110 l0 -44 -50 0 -50 0 0 45 c0 33 -4 45 -15
45 -13 0 -15 -27 -15 -186 0 -144 3 -185 13 -182 15 6 23 138 7 138 -5 0 -10
20 -10 45 l0 45 61 0 61 0 -4 -131 c-3 -129 -3 -131 -31 -155 -37 -31 -103
-33 -141 -3 -14 11 -26 26 -26 34 0 7 -7 15 -15 19 -23 8 -22 391 0 424 30 41
120 50 173 16z m-1097 -94 c-2 -58 -1 -103 3 -100 3 4 15 52 27 108 l22 102
48 0 c27 0 49 -4 49 -9 0 -5 -17 -65 -39 -134 l-38 -125 39 -121 c22 -66 44
-119 48 -116 5 3 12 0 16 -6 4 -8 3 -9 -4 -5 -7 4 -12 1 -12 -8 0 -13 -12 -16
-53 -16 l-53 0 -18 93 c-28 139 -36 144 -29 20 l6 -113 -51 0 -52 0 1 114 c1
71 -3 122 -11 136 -8 15 -8 20 -1 16 7 -5 11 1 11 14 0 12 -4 18 -10 15 -5 -3
-10 -2 -10 4 0 5 4 13 10 16 13 8 10 76 -4 94 -8 11 -8 13 2 7 9 -5 12 9 12
59 l0 66 48 -3 47 -3 -4 -105z m375 -95 c0 -110 1 -223 2 -252 l2 -51 60 1
c33 1 62 -2 64 -8 3 -5 5 81 5 193 1 133 -2 201 -9 197 -13 -8 -13 -2 2 30 8
18 8 31 0 49 -12 27 -2 33 69 42 l35 5 29 -128 c16 -70 32 -137 36 -148 5 -11
5 46 2 128 l-6 147 46 0 47 0 0 -270 0 -270 -43 0 c-51 0 -47 -8 -92 190 -15
63 -27 116 -28 117 -1 1 -1 -67 1 -150 l3 -152 -27 -12 c-34 -16 -54 -16 -54
-2 0 6 -8 8 -19 4 -11 -3 -80 -8 -155 -10 -126 -3 -164 3 -134 21 8 5 6 9 -7
14 -15 5 -8 10 27 20 45 14 46 14 27 31 -20 17 -20 17 0 24 13 4 21 15 21 28
0 18 -2 19 -10 7 -5 -8 -13 -11 -17 -6 -4 4 0 13 10 20 15 12 17 34 17 205 l0
192 48 -3 47 -3 1 -200z m-522 139 c9 -24 8 -26 -14 -14 -11 6 -18 15 -15 21
9 14 22 11 29 -7z m616 -24 c0 -5 -4 -10 -10 -10 -5 0 -10 5 -10 10 0 6 5 10
10 10 6 0 10 -4 10 -10z m20 -54 c0 -3 -4 -8 -10 -11 -5 -3 -10 -1 -10 4 0 6
5 11 10 11 6 0 10 -2 10 -4z m-600 -30 c0 -3 -4 -8 -10 -11 -5 -3 -10 -1 -10
4 0 6 5 11 10 11 6 0 10 -2 10 -4z m150 -350 c0 -3 -4 -8 -10 -11 -5 -3 -10
-1 -10 4 0 6 5 11 10 11 6 0 10 -2 10 -4z m-393 -102 c-9 -9 -28 6 -21 18 4 6
10 6 17 -1 6 -6 8 -13 4 -17z m323 -4 c21 -19 22 -20 4 -26 -49 -16 -72 -29
-68 -36 3 -5 10 -5 16 -2 7 4 8 2 4 -4 -9 -14 -36 -4 -36 13 0 7 -3 21 -7 31
-6 15 -1 16 38 11 38 -6 42 -5 27 7 -10 7 -18 16 -18 20 0 12 17 6 40 -14z
m-280 -20 c0 -5 -4 -10 -10 -10 -5 0 -10 -12 -10 -26 0 -14 -4 -23 -10 -19 -5
3 -6 13 -3 21 4 10 -2 17 -16 21 -11 3 -18 9 -15 14 7 12 64 11 64 -1z m130
-19 c0 -17 -4 -33 -10 -36 -5 -3 -10 1 -10 9 0 9 -4 16 -10 16 -5 0 -10 -4
-10 -10 0 -5 -4 -10 -10 -10 -5 0 -10 11 -10 25 0 14 5 25 10 25 6 0 10 -4 10
-10 0 -5 5 -10 10 -10 6 0 10 7 10 15 0 8 5 15 10 15 6 0 10 -13 10 -29z m310
-6 c0 -20 -5 -25 -25 -25 -14 0 -25 4 -25 9 0 5 -3 16 -6 25 -5 13 1 16 25 16
26 0 31 -4 31 -25z m118 1 c9 -21 8 -23 -19 -22 -20 1 -28 5 -24 14 3 8 5 18
5 23 0 19 27 8 38 -15z m97 14 c-3 -5 -1 -10 4 -10 6 0 11 5 11 10 0 6 4 10 9
10 5 0 8 -11 7 -25 -1 -27 -11 -33 -19 -12 -4 9 -8 8 -16 -3 -9 -12 -11 -10
-11 13 0 15 5 27 11 27 5 0 7 -4 4 -10z m125 -1 c0 -8 4 -8 13 -1 9 8 12 4 13
-14 2 -20 -1 -23 -12 -13 -10 8 -14 8 -14 0 0 -6 -4 -11 -10 -11 -5 0 -10 11
-10 25 0 14 5 25 10 25 6 0 10 -5 10 -11z m223 4 c-7 -2 -13 -13 -13 -24 0
-10 -4 -19 -9 -19 -5 0 -8 8 -7 18 2 9 -2 20 -8 24 -6 4 3 7 19 7 17 0 24 -3
18 -6z m90 -13 c-4 -14 0 -20 12 -20 12 0 16 6 12 20 -3 11 -1 20 4 20 15 0
10 -47 -5 -53 -21 -8 -50 17 -43 37 9 23 26 20 20 -4z m137 3 c0 22 9 22 26 0
13 -17 13 -17 14 0 0 9 4 17 10 17 13 0 -4 -43 -18 -48 -7 -2 -12 2 -12 8 0
10 -4 9 -15 0 -18 -15 -20 -13 -29 20 -7 24 -6 24 8 6 14 -17 16 -18 16 -3z
m145 7 c-3 -5 2 -11 12 -11 17 -1 17 -2 0 -6 -9 -2 -15 -9 -12 -14 4 -5 1 -9
-4 -9 -6 0 -11 11 -11 25 0 14 5 25 11 25 5 0 7 -4 4 -10z m110 0 c-3 -5 1
-10 10 -10 9 0 13 5 10 10 -3 6 -1 10 4 10 6 0 11 -12 11 -26 0 -22 -2 -25
-15 -14 -10 9 -15 9 -15 1 0 -6 -4 -11 -10 -11 -5 0 -10 11 -10 25 0 14 5 25
11 25 5 0 7 -4 4 -10z m203 -20 c0 -16 -4 -30 -9 -30 -5 0 -9 14 -9 30 0 17 4
30 8 30 5 0 9 -13 10 -30z m-605 -120 c4 -3 6 -58 5 -121 -3 -110 -4 -114 -25
-117 -22 -3 -23 -1 -23 86 0 103 -6 128 -25 112 -20 -16 -69 -6 -73 15 -2 9 0
15 6 11 5 -3 20 3 32 14 18 16 32 19 59 14 20 -4 40 -10 44 -14z m136 -20 l4
-25 6 25 c4 16 15 26 29 28 18 3 22 -1 22 -23 0 -33 43 -54 48 -24 4 24 22 25
23 2 1 -12 4 -9 8 7 9 32 51 48 86 32 20 -9 25 -19 25 -47 0 -30 -3 -35 -24
-35 -18 0 -26 7 -29 23 -4 19 -4 18 -6 -5 -1 -25 3 -28 29 -28 l30 0 0 -63 c0
-71 -10 -87 -55 -87 -46 0 -55 15 -55 96 l0 73 -31 -9 c-18 -5 -36 -7 -40 -4
-5 3 -9 -31 -9 -76 0 -79 -1 -81 -22 -78 -18 2 -25 13 -35 53 l-11 50 -1 -52
c-1 -45 -4 -53 -20 -53 -16 0 -19 12 -24 117 -3 65 -3 121 0 126 11 18 48 2
52 -23z m405 24 c24 -9 20 -44 -4 -44 -15 0 -20 -7 -20 -25 0 -16 6 -25 15
-25 9 0 15 -9 15 -25 0 -16 -6 -25 -15 -25 -24 0 -19 -47 6 -53 13 -4 20 -12
17 -24 -2 -13 -14 -19 -46 -21 l-42 -3 0 125 0 126 29 0 c16 0 36 -3 45 -6z
m192 -94 c0 -47 4 -100 8 -118 7 -31 6 -33 -16 -30 -16 2 -26 13 -35 38 l-11
35 -4 -35 c-2 -27 -7 -35 -23 -35 -19 0 -20 8 -23 118 l-3 118 53 -3 53 -3 1
-85z m112 -765 c11 -10 5 -14 -32 -24 -48 -12 -71 -8 -80 15 -12 32 79 40 112
9z m17 -107 c6 -4 2 -8 -7 -8 -10 0 -18 7 -18 17 0 9 3 12 8 7 4 -5 12 -12 17
-16z m-775 -188 c0 -5 -4 -10 -10 -10 -5 0 -10 5 -10 10 0 6 5 10 10 10 6 0
10 -4 10 -10z m-623 -26 c-3 -3 -12 -4 -19 -1 -8 3 -5 6 6 6 11 1 17 -2 13 -5z
m-7 -219 c0 -5 -5 -3 -10 5 -5 8 -10 20 -10 25 0 6 5 3 10 -5 5 -8 10 -19 10
-25z m1273 13 c34 -16 42 -41 25 -76 -11 -22 -11 -34 -1 -62 15 -43 16 -90 3
-90 -5 0 -10 -18 -10 -40 l0 -40 -50 0 -50 0 0 40 c0 29 -4 40 -15 40 -18 0
-18 -1 1 72 11 43 12 64 5 71 -16 16 -13 58 6 79 19 21 48 23 86 6z"/>
<path d="M802 3275 c0 -16 2 -22 5 -12 2 9 2 23 0 30 -3 6 -5 -1 -5 -18z"/>
<path d="M1170 3030 c0 -47 3 -60 15 -60 12 0 15 13 15 60 0 47 -3 60 -15 60
-12 0 -15 -13 -15 -60z"/>
<path d="M800 1975 c0 -8 7 -15 15 -15 8 0 15 7 15 15 0 8 -7 15 -15 15 -8 0
-15 -7 -15 -15z"/>
<path d="M1813 1685 c0 -22 2 -30 4 -17 2 12 2 30 0 40 -3 9 -5 -1 -4 -23z"/>
<path d="M2162 1780 c0 -19 2 -27 5 -17 2 9 2 25 0 35 -3 9 -5 1 -5 -18z"/>
<path d="M2143 409 c2 -9 8 -23 15 -31 12 -15 9 -57 -6 -67 -4 -3 -8 -13 -7
-21 0 -19 41 -22 56 -4 9 11 8 14 -1 14 -8 0 -10 3 -7 7 4 3 2 12 -4 20 -9 10
-7 13 7 13 17 0 17 1 -2 15 -11 8 -14 15 -6 15 19 0 14 17 -8 23 -12 3 -18 11
-15 19 4 9 0 15 -9 15 -9 0 -14 -8 -13 -18z"/>
<path d="M2182 200 c0 -14 2 -19 5 -12 2 6 2 18 0 25 -3 6 -5 1 -5 -13z"/>
<path d="M772 1800 c0 -14 2 -19 5 -12 2 6 2 18 0 25 -3 6 -5 1 -5 -13z"/>
<path d="M1196 1786 c-24 -25 -25 -27 -9 -58 9 -18 19 -40 23 -48 4 -8 21 -18
39 -21 l32 -7 -3 77 c-3 74 -4 76 -29 79 -18 2 -35 -5 -53 -22z"/>
<path d="M930 1458 c0 -18 -7 -41 -14 -51 -10 -13 -14 -56 -15 -155 -1 -75 -6
-141 -12 -148 -5 -6 -10 -40 -11 -75 l-2 -64 42 -6 c27 -3 49 -1 61 7 10 8 21
10 25 7 8 -8 8 52 -1 194 -3 68 -10 111 -16 110 -11 -2 -35 113 -36 170 -1 43
-21 54 -21 11z"/>
</g>
</svg>
