<?xml version="1.0" standalone="no"?>
<!DOCTYPE svg PUBLIC "-//W3C//DTD SVG 20010904//EN"
 "http://www.w3.org/TR/2001/REC-SVG-20010904/DTD/svg10.dtd">
<svg version="1.0" xmlns="http://www.w3.org/2000/svg"
 width="115.000000pt" height="172.000000pt" viewBox="0 0 115.000000 172.000000"
 preserveAspectRatio="xMidYMid meet">

<g transform="translate(0.000000,172.000000) scale(0.100000,-0.100000)"
fill="#000000" stroke="none">
<path d="M1020 1712 c0 -5 15 -16 34 -25 31 -14 68 -57 50 -57 -4 0 2 -10 13
-22 12 -13 23 -32 26 -43 3 -11 5 19 6 68 l1 87 -65 0 c-36 0 -65 -4 -65 -8z"/>
<path d="M477 1645 c-29 -28 -34 -41 -16 -47 7 -2 1 -19 -15 -43 -20 -28 -25
-46 -21 -65 4 -14 3 -22 -1 -18 -4 4 -13 3 -20 -3 -20 -16 -57 7 -45 28 8 15
-7 43 -22 43 -10 0 -13 -60 -3 -63 19 -6 -6 -27 -33 -27 -20 0 -35 -10 -57
-40 -16 -23 -43 -60 -61 -83 -17 -23 -41 -64 -52 -92 -18 -42 -20 -45 -15 -15
4 19 13 45 21 57 9 13 11 23 5 23 -16 0 -61 -59 -68 -88 -5 -27 -8 -32 -44
-87 l-20 -30 2 37 c2 20 6 34 9 32 4 -2 14 5 23 15 16 18 15 19 -13 23 l-30 4
-1 -603 0 -603 575 0 575 0 0 389 c0 284 -3 392 -12 397 -7 4 -8 3 -4 -4 4 -7
2 -12 -3 -12 -6 0 -11 7 -11 15 0 8 5 15 11 15 8 0 8 4 1 13 -13 15 -23 87
-12 87 4 0 12 -15 17 -32 l10 -33 0 38 c-1 29 -5 37 -19 37 -23 0 -23 6 2 37
11 14 20 35 20 47 0 20 -1 20 -20 -4 -11 -14 -20 -20 -20 -14 0 6 9 19 20 29
18 17 20 31 20 167 l0 148 -32 1 c-29 1 -30 2 -9 8 l23 6 -20 25 c-11 14 -24
21 -28 17 -5 -4 -3 -11 4 -16 17 -10 -22 -41 -56 -42 -46 -3 -73 1 -68 9 2 4
-2 15 -9 25 -12 16 -14 16 -29 -8 -10 -14 -25 -25 -34 -24 -9 1 -31 1 -49 0
l-32 -1 0 -67 0 -68 52 2 c43 1 47 0 22 -6 l-30 -9 30 -1 c23 -1 31 -6 32 -21
1 -16 -4 -20 -33 -20 -19 0 -34 5 -34 11 0 5 -4 7 -10 4 -5 -3 -10 2 -10 11 0
10 -3 15 -6 11 -4 -3 -4 -17 0 -31 6 -24 38 -43 64 -38 7 2 12 -8 12 -23 0
-16 6 -25 15 -25 11 0 15 11 15 40 0 38 2 40 29 40 17 0 32 -4 35 -9 5 -8 8
-94 4 -133 -1 -19 -28 -26 -28 -8 0 6 -4 10 -10 10 -5 0 -11 -15 -11 -32 -1
-18 -3 -25 -6 -15 -3 12 -14 17 -41 16 -29 0 -33 -2 -17 -8 11 -5 26 -6 33 -4
14 6 17 -33 2 -42 -6 -3 -10 1 -10 10 0 12 -5 15 -16 11 -9 -3 -18 -6 -20 -6
-2 0 -4 -6 -4 -14 0 -8 -10 -16 -22 -18 -16 -2 -22 -9 -21 -23 1 -17 -3 -15
-23 10 -14 17 -34 47 -46 68 -12 20 -27 37 -33 37 -15 0 -41 48 -31 57 4 4 16
-3 26 -17 13 -18 22 -22 29 -14 8 7 3 22 -17 50 -15 21 -27 45 -27 52 0 6 -4
12 -8 12 -10 -1 -38 32 -81 92 -22 31 -36 44 -45 38 -15 -8 2 -41 48 -95 18
-21 20 -25 6 -15 -36 27 -66 41 -75 35 -10 -6 -25 33 -16 42 3 4 2 11 -4 17
-13 16 -30 97 -19 90 16 -9 10 20 -11 54 -26 42 -25 44 6 36 37 -9 120 72 129
127 16 96 -90 167 -158 104z m-181 -241 c-3 -9 -6 -18 -6 -20 0 -2 -4 -4 -9
-4 -5 0 -7 9 -4 20 3 11 10 20 15 20 6 0 7 -7 4 -16z m61 -36 c-3 -8 -6 -5 -6
6 -1 11 2 17 5 13 3 -3 4 -12 1 -19z m-97 -24 c0 -14 -22 -44 -33 -44 -8 0 -8
3 1 9 8 4 13 11 13 15 -3 18 0 26 9 26 6 0 10 -3 10 -6z m690 -14 c0 -5 -4
-10 -10 -10 -5 0 -10 5 -10 10 0 6 5 10 10 10 6 0 10 -4 10 -10z m-33 -54 c3
-3 -8 -6 -25 -6 -29 0 -32 -3 -32 -30 0 -20 -5 -30 -15 -30 -11 0 -15 11 -15
36 0 19 4 33 9 29 5 -3 12 -1 15 4 6 10 52 8 63 -3z m99 -33 c-1 -1 -14 1 -30
4 l-29 6 24 18 c23 18 24 18 30 -4 3 -12 5 -23 5 -24z m-101 -23 c-3 -6 -13
-10 -21 -10 -17 0 -19 37 -1 43 14 5 31 -19 22 -33z m73 -9 c2 -12 10 -25 18
-28 29 -11 13 -28 -31 -31 -40 -2 -45 -1 -45 19 0 14 5 19 14 16 10 -4 13 -1
9 9 -7 20 5 46 20 42 6 -3 13 -15 15 -27z m127 -41 c3 -5 -1 -10 -10 -10 -9 0
-13 5 -10 10 3 6 8 10 10 10 2 0 7 -4 10 -10z m-207 -57 c-10 -2 -26 -2 -35 0
-10 3 -2 5 17 5 19 0 27 -2 18 -5z m-253 -23 c3 -5 1 -10 -4 -10 -6 0 -11 5
-11 10 0 6 2 10 4 10 3 0 8 -4 11 -10z m388 -13 c4 3 7 1 7 -5 0 -7 -9 -12
-20 -12 -14 0 -20 7 -20 23 1 20 2 21 14 5 7 -10 16 -15 19 -11z m41 8 c3 -8
1 -15 -4 -15 -6 0 -10 7 -10 15 0 8 2 15 4 15 2 0 6 -7 10 -15z m-573 -55 c23
-22 40 -43 37 -46 -3 -2 -24 -2 -48 2 -40 7 -80 36 -80 58 0 6 7 3 15 -8 17
-22 38 -12 30 15 -9 28 0 24 46 -21z m539 -52 c0 -4 -4 -8 -9 -8 -6 0 -12 4
-15 8 -3 5 1 9 9 9 8 0 15 -4 15 -9z m-925 -17 c-3 -5 1 -28 9 -50 11 -34 11
-41 0 -41 -22 0 -94 31 -94 41 0 5 16 3 35 -5 l35 -15 0 40 c0 21 5 39 11 39
5 0 8 -4 4 -9z m885 -23 c0 -19 -16 -23 -39 -9 -18 12 -6 30 19 28 12 -1 20
-8 20 -19z m70 -78 c0 -22 -4 -40 -10 -40 -5 0 -11 -28 -11 -62 l-2 -63 -9 80
c-6 58 -6 86 3 102 18 34 29 28 29 -17z m-142 -18 c2 -8 -9 -12 -30 -13 l-33
-1 30 -7 c23 -5 31 -12 33 -34 5 -41 -39 -38 -72 6 -26 35 -34 67 -16 67 6 0
10 -4 10 -10 0 -5 5 -10 10 -10 6 0 10 6 10 14 0 17 51 7 58 -12z m47 -2 c3
-5 1 -10 -4 -10 -6 0 -11 5 -11 10 0 6 2 10 4 10 3 0 8 -4 11 -10z m-165 -80
c80 -82 79 -80 27 -78 -26 2 -46 -1 -46 -7 0 -6 20 -9 46 -7 45 2 73 -10 73
-32 0 -7 -3 -7 -8 -1 -9 13 -72 13 -72 0 0 -5 20 -9 45 -8 38 1 50 -4 71 -25
13 -15 24 -32 24 -38 0 -7 -22 -62 -50 -124 l-50 -111 47 2 c32 2 48 -1 51
-10 3 -10 -1 -12 -16 -9 -14 4 -29 -3 -48 -23 -31 -32 -84 -41 -84 -14 0 15
-11 19 -39 15 -18 -2 -10 40 22 111 29 63 57 130 57 135 0 2 -20 4 -44 4 -24
0 -46 5 -48 11 -8 25 -68 -153 -68 -203 0 -43 -2 -49 -15 -38 -12 10 -17 7
-26 -16 -6 -16 -13 -23 -16 -16 -3 6 -9 10 -13 7 -5 -3 -7 -12 -3 -20 3 -8 1
-15 -5 -15 -6 0 -10 31 -10 73 -1 52 -8 90 -26 137 -29 76 -31 70 -11 -36 20
-105 5 -153 -49 -154 -17 0 -18 6 -11 75 6 67 5 76 -12 82 -10 3 -22 12 -26
20 -4 7 -12 13 -16 13 -15 0 -32 -88 -25 -130 l6 -39 -33 0 c-19 1 -38 0 -44
-1 -34 -8 -54 2 -64 32 -8 23 -8 33 0 39 8 5 9 25 4 65 -8 66 -18 84 -48 84
-18 0 -19 -4 -13 -46 3 -26 6 -60 6 -75 0 -18 5 -29 14 -29 12 0 26 -40 26
-75 0 -6 -13 -12 -30 -13 -23 0 -30 4 -30 18 0 10 -4 22 -10 25 -6 3 -10 -1
-10 -9 0 -10 -9 -16 -24 -16 l-25 0 0 132 c-1 73 2 147 5 165 l6 33 77 0 c69
0 80 -3 100 -24 13 -14 25 -44 30 -72 l7 -49 13 55 c7 30 15 63 18 73 4 15 18
17 103 17 110 0 112 -1 125 -73 4 -20 11 -37 15 -37 14 0 18 54 5 74 -7 12
-18 42 -25 67 l-12 47 52 66 c59 75 52 75 130 -4z m137 18 c-2 -13 -4 -5 -4
17 -1 22 1 32 4 23 2 -10 2 -28 0 -40z m48 -46 c-11 -11 -34 8 -28 24 6 15 7
15 20 -1 7 -10 11 -21 8 -23z m-42 -7 c4 -8 2 -17 -3 -20 -6 -4 -10 3 -10 14
0 25 6 27 13 6z m-23 -25 c0 -11 -4 -20 -8 -20 -4 0 -8 9 -8 20 0 11 4 20 8
20 4 0 8 -9 8 -20z m30 -44 c0 -3 -4 -8 -10 -11 -5 -3 -10 -1 -10 4 0 6 5 11
10 11 6 0 10 -2 10 -4z m10 -47 c0 -6 -4 -7 -10 -4 -5 3 -10 11 -10 16 0 6 5
7 10 4 6 -3 10 -11 10 -16z m-477 -319 c3 -11 0 -20 -6 -20 -7 0 -13 11 -13
25 -2 28 11 25 19 -5z"/>
<path d="M720 639 c0 -5 3 -9 8 -9 4 -1 24 -3 45 -6 23 -4 37 -2 37 5 0 6 -8
11 -17 12 -10 0 -30 2 -45 4 -16 2 -28 -1 -28 -6z"/>
<path d="M186 1386 c-22 -20 -36 -43 -36 -57 l1 -24 22 27 c27 33 60 88 53 88
-2 0 -21 -15 -40 -34z"/>
<path d="M820 1080 c0 -5 7 -10 16 -10 8 0 13 -4 9 -9 -3 -5 -1 -12 5 -16 6
-4 10 5 10 19 0 19 -5 26 -20 26 -11 0 -20 -4 -20 -10z"/>
<path d="M875 1030 c7 -11 55 -9 55 2 0 4 -14 8 -31 8 -17 0 -28 -4 -24 -10z"/>
<path d="M926 983 c-6 -14 -5 -15 5 -6 7 7 10 15 7 18 -3 3 -9 -2 -12 -12z"/>
</g>
</svg>
