<?xml version="1.0" standalone="no"?>
<!DOCTYPE svg PUBLIC "-//W3C//DTD SVG 20010904//EN"
 "http://www.w3.org/TR/2001/REC-SVG-20010904/DTD/svg10.dtd">
<svg version="1.0" xmlns="http://www.w3.org/2000/svg"
 width="123.000000pt" height="172.000000pt" viewBox="0 0 123.000000 172.000000"
 preserveAspectRatio="xMidYMid meet">

<g transform="translate(0.000000,172.000000) scale(0.100000,-0.100000)"
fill="#000000" stroke="none">
<path d="M0 1081 c0 -601 1 -640 18 -644 15 -4 15 -5 0 -6 -15 -1 -17 -22 -18
-216 l-1 -215 616 0 615 0 0 860 0 860 -615 0 -615 0 0 -639z m126 493 l1 -59
67 -3 66 -3 0 50 0 50 -57 3 c-77 4 -81 24 -4 27 58 2 91 -13 91 -42 0 -8 4
-7 12 1 7 7 42 12 86 12 l75 0 -7 -50 -7 -50 54 0 54 0 -5 50 c-4 41 -2 50 12
50 9 0 16 -5 16 -12 0 -9 3 -9 12 0 14 14 128 16 128 2 0 -5 -25 -10 -55 -10
-42 0 -55 -3 -55 -15 0 -11 13 -15 54 -15 39 0 55 -4 60 -15 7 -19 -3 -45 -18
-46 -61 -4 -99 -3 -109 3 -7 4 16 8 51 8 48 0 62 3 62 15 0 12 -13 15 -55 15
-48 0 -57 3 -65 23 -10 24 -10 24 -15 -17 -5 -40 -14 -46 -74 -52 -50 -4 -53
-3 -63 23 -10 27 -13 28 -69 25 -43 -3 -59 -8 -59 -18 0 -10 15 -14 58 -14 40
0 53 -3 42 -10 -24 -15 -87 -12 -105 6 -9 9 -13 24 -10 35 4 11 2 19 -4 19 -6
0 -11 -11 -11 -25 0 -28 -18 -39 -62 -38 -15 1 -48 2 -73 2 l-45 1 0 71 c0 52
3 70 13 66 7 -2 12 -25 13 -63z m847 51 c-2 -5 -32 -11 -68 -13 l-65 -3 0 -49
0 -50 68 -2 67 -2 -70 -5 c-38 -3 -75 -2 -82 2 -15 10 -15 107 -1 125 13 15
154 13 151 -3z m61 -30 c16 -12 21 -12 42 1 38 25 51 10 14 -16 l-33 -23 34
-28 c42 -34 32 -50 -11 -19 l-31 22 -25 -23 c-13 -12 -27 -19 -31 -15 -5 5 7
20 25 34 l33 25 -33 28 c-34 29 -20 41 16 14z m-100 -24 c35 -1 47 -4 39 -12
-13 -13 -115 -7 -120 8 -3 6 4 10 14 8 10 -2 40 -4 67 -4z m-215 -120 c12 -8
12 -12 2 -25 -8 -9 -19 -16 -25 -15 -7 0 -6 2 2 6 6 2 12 11 12 18 0 7 -6 16
-12 18 -7 3 -8 6 -3 6 6 0 16 -3 24 -8z m313 -16 c-2 -14 -6 -25 -8 -25 -2 0
-4 11 -4 25 0 14 4 25 9 25 4 0 6 -11 3 -25z m94 1 c2 -12 1 -13 -3 -1 -7 24
-26 18 -20 -6 4 -16 3 -19 -5 -11 -14 14 -2 45 15 40 6 -3 13 -12 13 -22z
m-1019 -8 c-3 -8 -6 -5 -6 6 -1 11 2 17 5 13 3 -3 4 -12 1 -19z m24 -1 c-10
-9 -11 -8 -5 6 3 10 9 15 12 12 3 -3 0 -11 -7 -18z m451 -9 c-9 -9 -15 -9 -24
1 -11 10 -10 11 5 6 10 -5 17 -2 17 6 0 7 3 9 7 6 4 -4 1 -13 -5 -19z m-72 2
c0 -5 -2 -10 -4 -10 -3 0 -8 5 -11 10 -3 6 -1 10 4 10 6 0 11 -4 11 -10z m206
-175 c6 -17 5 -18 -7 -8 -8 6 -22 25 -32 42 -15 26 -16 30 -2 25 9 -4 15 -1
16 7 1 8 5 1 9 -16 4 -16 11 -39 16 -50z m-210 36 c-1 -15 -7 -35 -14 -43 -9
-11 -10 -23 -3 -41 5 -14 7 -28 3 -32 -4 -4 0 -5 8 -3 11 2 13 -6 11 -36 -2
-22 1 -36 7 -32 13 8 37 -22 51 -63 15 -47 14 -53 -9 -46 -23 7 -26 -6 -8 -38
14 -26 19 -66 12 -89 -8 -28 -25 -21 -20 8 3 14 1 35 -4 47 -4 12 -11 31 -15
42 l-6 20 -12 -20 c-19 -33 -25 -134 -9 -140 11 -4 12 -8 3 -19 -9 -11 -8 -17
4 -29 20 -20 19 -27 -2 -27 -20 0 -63 -86 -63 -126 0 -14 -6 -24 -14 -24 -18
0 -39 53 -31 79 5 17 3 20 -10 15 -11 -5 -15 -15 -12 -30 3 -17 0 -24 -12 -24
-25 0 -40 13 -61 55 -21 41 -27 61 -10 35 6 -10 8 0 5 32 -3 32 0 50 10 58 8
7 12 17 9 22 -4 6 -1 14 7 18 9 6 5 11 -14 15 -29 8 -38 35 -11 35 9 0 18 9
21 20 4 15 11 19 32 15 18 -4 21 -3 8 3 -10 4 -18 12 -17 17 1 6 -9 13 -22 16
-13 3 -22 12 -20 20 2 8 1 11 -3 7 -13 -13 -65 13 -65 33 0 23 7 23 55 4 31
-14 41 -14 66 -3 30 13 33 18 44 78 5 24 4 32 -3 25 -6 -5 -12 -23 -15 -40 -3
-24 -4 -21 -6 13 0 24 4 42 10 42 6 0 8 8 4 19 -3 11 -1 22 5 26 7 4 14 -2 17
-14 8 -30 38 -23 40 9 0 14 2 30 3 35 1 6 2 14 1 19 -2 7 44 61 55 65 1 1 1
-12 0 -28z m319 -31 c4 -6 1 -17 -5 -25 -6 -8 -9 -19 -5 -25 4 -6 0 -17 -8
-23 -16 -13 -30 -57 -18 -57 12 0 31 23 31 38 0 8 11 25 24 37 l24 22 12 -42
c7 -23 10 -51 7 -61 -3 -13 -5 -11 -6 9 0 15 -6 27 -12 27 -6 0 -9 9 -6 20 3
11 1 17 -4 14 -5 -3 -8 -32 -7 -64 1 -33 5 -54 9 -48 4 7 11 3 18 -11 7 -11 9
-21 6 -21 -4 0 0 -7 8 -15 9 -8 13 -24 10 -36 -4 -14 -8 -17 -13 -9 -5 7 -10
8 -14 2 -3 -5 3 -17 14 -27 11 -10 20 -25 20 -32 0 -8 10 -23 22 -33 17 -13
29 -15 52 -9 16 5 32 6 35 3 3 -2 -5 -7 -17 -11 -23 -6 -30 -27 -12 -38 12 -7
44 -76 41 -88 0 -4 9 -5 22 -2 18 5 23 2 23 -14 0 -12 -6 -21 -14 -21 -7 0
-22 -9 -34 -20 -12 -11 -28 -20 -35 -20 -7 0 -17 -10 -24 -21 -9 -17 -8 -20 2
-17 17 6 39 -15 39 -38 0 -14 -3 -14 -16 -4 -8 8 -14 9 -13 4 3 -19 -1 -34
-11 -34 -5 0 -10 9 -10 20 0 11 -4 20 -10 20 -5 0 -7 -6 -4 -14 3 -8 0 -17 -7
-22 -9 -5 -11 2 -6 29 4 25 1 37 -8 41 -21 8 -28 -11 -19 -52 4 -20 8 -41 9
-47 1 -5 3 -14 3 -18 3 -10 45 12 55 29 15 26 25 14 29 -31 2 -25 0 -45 -4
-45 -16 0 -38 -34 -38 -60 0 -29 -14 -48 -24 -31 -3 4 -8 30 -10 56 -3 26 -10
53 -15 58 -6 6 -11 27 -11 46 0 28 -3 33 -11 21 -8 -11 -9 -4 -6 27 6 48 18
63 65 82 17 7 32 19 32 25 0 6 4 5 9 -3 7 -11 11 -10 20 7 6 11 11 29 10 39 0
16 -1 16 -9 -2 -5 -11 -9 -15 -9 -8 -1 6 -4 19 -8 29 -5 12 -3 15 6 9 23 -13
-8 37 -43 71 -17 17 -40 43 -51 57 -25 33 -36 33 -66 0 l-24 -27 33 23 c17 12
32 20 32 17 0 -2 3 -11 6 -20 3 -9 1 -16 -6 -16 -6 0 -8 5 -4 12 4 7 3 8 -5 4
-6 -4 -9 -11 -6 -15 6 -11 -14 -28 -100 -84 -82 -54 -138 -104 -130 -117 3 -5
-4 -15 -16 -23 -12 -9 -16 -17 -9 -20 6 -3 5 -4 -2 -2 -7 1 -12 8 -10 14 1 6
-2 11 -8 11 -5 0 -10 7 -10 15 0 10 -6 12 -17 8 -17 -7 -17 -6 0 11 9 10 22
26 27 37 6 10 28 28 50 39 22 11 47 31 56 45 9 14 20 22 25 20 9 -6 118 78
132 101 9 15 -8 20 -18 5 -8 -14 -57 -2 -77 19 -9 10 -23 40 -31 66 -12 42
-15 46 -21 27 -7 -21 -9 -22 -34 -9 -16 9 -30 27 -37 51 -8 32 -15 39 -40 42
-36 5 -44 11 -27 22 7 4 14 18 15 29 1 14 8 22 20 22 10 0 32 7 48 16 35 18
33 19 48 -25 14 -44 14 -51 -4 -51 -8 0 -15 -5 -15 -11 0 -6 -7 -9 -15 -5 -10
4 -15 -1 -15 -15 0 -25 22 -34 48 -20 15 8 22 8 25 -2 12 -28 4 61 -7 93 -12
34 -12 36 16 53 32 19 48 22 48 7 0 -5 -3 -9 -7 -9 -20 3 -34 -2 -28 -11 12
-20 45 -10 51 15 6 26 18 32 29 15z m-455 -35 c0 -8 -4 -15 -10 -15 -5 0 -7 7
-4 15 4 8 8 15 10 15 2 0 4 -7 4 -15z m189 -112 c9 -6 12 -15 8 -20 -10 -10
-37 25 -36 46 0 14 1 14 6 1 4 -8 13 -20 22 -27z m-339 -43 c0 -5 -2 -10 -4
-10 -3 0 -8 5 -11 10 -3 6 -1 10 4 10 6 0 11 -4 11 -10z m396 -16 c-9 -8 -20
-12 -26 -9 -19 12 -10 25 16 25 23 0 24 -1 10 -16z m315 -31 c-8 -15 -10 -15
-11 -2 0 17 10 32 18 25 2 -3 -1 -13 -7 -23z m-843 -11 c-10 -2 -18 -8 -18
-13 0 -6 5 -7 12 -3 7 5 8 3 3 -5 -5 -9 -10 -10 -18 -2 -13 13 10 44 27 34 7
-5 5 -9 -6 -11z m602 -23 c0 -10 -5 -21 -11 -25 -8 -4 -9 0 -4 15 5 17 2 21
-15 21 -17 0 -19 2 -8 14 16 17 38 3 38 -25z m37 -65 c-25 -23 -47 -31 -47
-17 0 3 7 23 16 43 17 37 17 37 36 18 20 -20 20 -20 -5 -44z m321 39 c-10 -2
-28 -2 -40 0 -13 2 -5 4 17 4 22 1 32 -1 23 -4z m-90 -38 c-3 -3 -9 2 -12 12
-6 14 -5 15 5 6 7 -7 10 -15 7 -18z m152 -105 c-16 -11 -40 -13 -40 -5 0 8 44
24 50 18 2 -2 -2 -8 -10 -13z m-255 -27 c-20 -47 -24 -51 -23 -22 1 21 24 59
35 59 2 0 -4 -17 -12 -37z m-627 -5 c18 -18 14 -38 -8 -38 -11 0 -20 -4 -20
-9 0 -4 11 -6 25 -3 15 2 25 0 25 -7 0 -7 -4 -10 -9 -7 -8 5 -21 -20 -25 -48
-2 -19 -25 -16 -40 6 -41 59 5 153 52 106z m60 -20 c-6 -18 -25 -21 -25 -3 0
8 7 15 15 15 7 0 12 -5 10 -12z m687 -4 c17 -17 16 -35 -2 -41 -6 -2 -16 10
-21 27 -12 33 -2 39 23 14z m-51 -10 c3 -9 3 -20 0 -25 -8 -13 -34 9 -34 27 0
19 26 18 34 -2z m-870 -20 c3 -8 2 -12 -4 -9 -6 3 -10 10 -10 16 0 14 7 11 14
-7z m1131 7 c3 -5 1 -12 -5 -16 -5 -3 -10 1 -10 9 0 18 6 21 15 7z m-55 -25
c0 -27 -29 -44 -41 -24 -5 8 -3 15 4 17 7 2 16 10 20 17 12 20 17 17 17 -10z
m-443 -16 c2 -20 -8 -26 -20 -13 -4 3 -2 12 4 20 15 17 14 17 16 -7z m-574
-50 c-6 -22 -33 -28 -33 -7 0 17 10 27 26 27 7 0 10 -8 7 -20z m1097 16 c0 -2
-8 -10 -17 -17 -16 -13 -17 -12 -4 4 13 16 21 21 21 13z m-114 -70 c-17 -10
-34 -23 -38 -29 -4 -7 -10 -5 -14 7 -5 14 3 27 32 52 38 34 39 34 45 12 4 -18
-2 -27 -25 -42z m-906 49 c0 -7 -43 -45 -51 -45 -4 0 -9 9 -12 21 -4 15 -2 19
8 15 8 -3 17 -1 20 4 6 10 35 14 35 5z m377 -35 c-6 -11 -15 -20 -19 -20 -5 0
-8 -9 -8 -20 0 -11 -8 -24 -17 -27 -10 -4 -22 -13 -26 -20 -8 -13 -81 -63 -92
-63 -3 0 -5 5 -5 11 0 5 3 8 8 5 11 -7 105 83 131 127 12 20 27 35 32 32 5 -3
3 -15 -4 -25z m-184 5 c-3 -9 -8 -14 -10 -11 -3 3 -2 9 2 15 9 16 15 13 8 -4z
m-279 -10 c3 -8 1 -15 -4 -15 -5 0 -11 -8 -13 -17 -3 -10 -5 -3 -6 15 -1 33
12 44 23 17z m1073 -1 c-3 -4 -2 -16 4 -28 10 -20 9 -20 -5 -2 -14 17 -13 36
1 36 4 0 3 -3 0 -6z m-827 -14 c0 -5 -2 -10 -4 -10 -3 0 -8 5 -11 10 -3 6 -1
10 4 10 6 0 11 -4 11 -10z m315 0 c-3 -5 -12 -10 -18 -10 -7 0 -6 4 3 10 19
12 23 12 15 0z m-499 -25 c-3 -8 -1 -15 4 -15 6 0 10 5 10 10 0 6 6 10 13 10
6 -1 2 -9 -11 -20 -13 -11 -21 -23 -18 -28 3 -5 -1 -18 -9 -28 -13 -19 -14
-19 -29 1 -8 11 -15 27 -16 35 0 13 1 13 10 0 8 -13 11 -13 27 3 16 16 16 17
-1 17 -15 0 -16 3 -6 15 7 8 17 15 22 15 6 0 8 -7 4 -15z m999 -95 c1 -19 4
-41 8 -47 11 -18 -3 -62 -23 -73 -16 -8 -18 -3 -19 47 0 30 -6 73 -12 94 -7
20 -9 46 -5 56 7 16 10 15 29 -12 13 -17 22 -45 22 -65z m-740 70 c3 -5 1 -10
-4 -10 -6 0 -11 5 -11 10 0 6 2 10 4 10 3 0 8 -4 11 -10z m-344 -45 c-9 -30
-9 -30 -10 10 -1 25 2 36 9 29 6 -6 6 -21 1 -39z m134 35 c3 -5 1 -10 -4 -10
-6 0 -11 5 -11 10 0 6 2 10 4 10 3 0 8 -4 11 -10z m993 -8 c2 -7 -2 -10 -12
-6 -9 3 -16 11 -16 16 0 13 23 5 28 -10z m-1154 -36 c-6 -16 -24 -23 -24 -8 0
10 22 33 27 28 2 -2 1 -11 -3 -20z m60 -34 c-4 -18 -11 -32 -16 -32 -6 0 -7 8
-3 18 4 9 7 28 6 42 -1 16 2 21 9 14 6 -6 7 -25 4 -42z m36 -7 c0 -8 -2 -15
-4 -15 -2 0 -6 7 -10 15 -3 8 -1 15 4 15 6 0 10 -7 10 -15z m177 -32 c-3 -10
-5 -4 -5 12 0 17 2 24 5 18 2 -7 2 -21 0 -30z m411 -115 c-3 -7 -13 -15 -23
-16 -15 -4 -16 -2 -4 12 17 19 32 21 27 4z m92 -28 c0 -5 -2 -10 -4 -10 -3 0
-8 5 -11 10 -3 6 -1 10 4 10 6 0 11 -4 11 -10z m-390 -10 c8 -5 11 -10 5 -10
-5 0 -17 5 -25 10 -8 5 -10 10 -5 10 6 0 17 -5 25 -10z"/>
<path d="M368 1593 c-45 -3 -56 -7 -51 -18 3 -11 21 -15 59 -15 47 0 54 2 54
20 0 11 -1 19 -2 18 -2 -1 -29 -3 -60 -5z"/>
<path d="M480 1073 c0 -4 5 -15 10 -23 8 -13 10 -13 10 2 0 9 -4 20 -10 23 -5
3 -10 3 -10 -2z"/>
<path d="M355 970 c-3 -6 2 -13 12 -17 10 -3 23 -8 28 -11 6 -3 1 4 -9 16 -22
25 -23 25 -31 12z"/>
<path d="M460 749 c0 -5 -5 -7 -10 -4 -6 3 -15 -6 -20 -21 -13 -32 -10 -36 11
-21 16 12 36 57 25 57 -3 0 -6 -5 -6 -11z"/>
<path d="M407 733 c-4 -3 -7 -13 -7 -22 1 -13 3 -13 11 2 11 19 8 33 -4 20z"/>
<path d="M825 1080 c-3 -5 -1 -10 4 -10 6 0 11 5 11 10 0 6 -2 10 -4 10 -3 0
-8 -4 -11 -10z"/>
<path d="M602 666 c7 -8 17 -12 22 -9 4 3 2 9 -5 14 -22 13 -31 11 -17 -5z"/>
<path d="M170 730 c0 -5 5 -10 10 -10 6 0 10 5 10 10 0 6 -4 10 -10 10 -5 0
-10 -4 -10 -10z"/>
<path d="M180 701 c0 -19 12 -41 23 -41 7 0 7 4 -1 12 -15 15 -16 32 -2 23 6
-3 10 -1 10 4 0 6 -7 11 -15 11 -8 0 -15 -4 -15 -9z"/>
</g>
</svg>
