<?xml version="1.0" standalone="no"?>
<!DOCTYPE svg PUBLIC "-//W3C//DTD SVG 20010904//EN"
 "http://www.w3.org/TR/2001/REC-SVG-20010904/DTD/svg10.dtd">
<svg version="1.0" xmlns="http://www.w3.org/2000/svg"
 width="123.000000pt" height="172.000000pt" viewBox="0 0 123.000000 172.000000"
 preserveAspectRatio="xMidYMid meet">

<g transform="translate(0.000000,172.000000) scale(0.100000,-0.100000)"
fill="#000000" stroke="none">
<path d="M461 1703 c-9 -19 -36 -186 -46 -295 -4 -46 -3 -72 6 -87 11 -17 10
-27 -8 -65 -19 -38 -20 -44 -6 -39 10 4 14 2 9 -5 -3 -6 -2 -13 4 -17 5 -3 10
-10 10 -15 0 -13 -31 -41 -39 -35 -5 2 -7 -11 -5 -30 1 -19 -2 -35 -7 -35 -6
0 -8 4 -4 9 3 5 -4 12 -15 16 -11 3 -28 17 -39 31 -10 13 -21 24 -24 24 -7 0
-25 -51 -32 -92 -5 -34 -14 -43 -38 -39 -5 1 -6 -8 -2 -19 4 -12 0 -26 -9 -35
-8 -8 -13 -24 -11 -34 2 -13 -4 -21 -20 -25 -19 -5 -33 -26 -39 -59 0 -4 -7
-12 -15 -16 -12 -8 -12 -14 -2 -40 7 -16 20 -32 29 -34 12 -3 10 -5 -5 -6 -12
0 -26 7 -32 17 -9 16 -10 16 -16 0 -4 -10 -12 -15 -18 -11 -6 4 -8 0 -4 -9 3
-9 1 -20 -3 -24 -6 -6 -4 -20 3 -34 11 -21 10 -27 -5 -42 -20 -20 -22 -49 -8
-118 4 -25 4 -52 0 -61 -6 -10 -5 -20 2 -27 8 -8 7 -13 -6 -18 -15 -6 -16 -23
-11 -180 3 -95 8 -181 12 -191 21 -60 87 -82 128 -43 21 20 21 20 43 0 20 -19
35 -20 375 -20 l354 0 23 25 24 26 23 -26 c33 -35 74 -33 107 6 22 26 26 40
26 99 0 38 4 81 10 95 11 29 -4 202 -22 245 -9 22 -11 23 -19 7 -12 -20 -39
-23 -39 -3 0 34 14 76 25 76 7 0 16 17 20 37 5 30 3 40 -12 51 -10 7 -17 17
-16 21 1 4 -4 30 -10 57 -7 27 -12 69 -10 94 3 59 -17 129 -39 136 -10 3 -16
10 -13 15 4 5 2 9 -2 9 -5 0 -17 13 -26 30 -13 20 -26 30 -43 30 -21 0 -23 3
-15 18 7 14 5 29 -7 55 -19 41 -25 43 -66 22 -35 -18 -41 -13 -50 38 -5 29 -4
37 4 32 9 -6 9 -2 1 13 -6 12 -16 24 -21 27 -6 4 -8 15 -5 26 4 10 3 19 -2 19
-4 0 -6 21 -4 46 2 26 -2 63 -8 83 -6 20 -13 54 -15 76 -3 22 -14 82 -25 134
-12 52 -21 96 -21 98 0 1 -61 3 -135 3 -118 0 -135 -2 -144 -17z m208 -244
c-20 -13 -39 -11 -40 4 0 6 -2 24 -3 38 l-2 26 30 -29 c24 -24 27 -31 15 -39z
m-56 36 c-3 -9 -8 -14 -10 -11 -3 3 -2 9 2 15 9 16 15 13 8 -4z m36 -130 c17
-15 24 -16 30 -6 6 9 10 6 14 -11 13 -45 9 -50 -22 -29 -35 25 -43 26 -39 4 2
-10 -5 -19 -15 -21 -17 -3 -18 2 -14 55 6 72 6 72 16 48 5 -11 18 -29 30 -40z
m151 -185 c0 -11 -4 -20 -9 -20 -5 0 -7 9 -4 20 3 11 7 20 9 20 2 0 4 -9 4
-20z m30 -18 c0 -5 -9 -17 -21 -28 -21 -19 -21 -19 -8 9 12 26 29 37 29 19z
m-376 -80 c2 -4 -4 -8 -14 -8 -10 0 -16 4 -14 8 3 4 9 8 14 8 5 0 11 -4 14 -8z
m81 0 c-15 -11 -12 -36 5 -44 11 -5 9 -7 -7 -7 -18 -1 -23 5 -23 22 0 26 7 37
24 37 7 0 7 -3 1 -8z m177 -17 c-2 -14 -6 -25 -7 -25 -1 0 -5 11 -7 25 -3 16
-1 25 7 25 8 0 10 -9 7 -25z m-73 -40 c0 -17 -2 -16 -11 5 -6 15 -12 20 -15
13 -3 -7 -9 -13 -14 -13 -5 0 -3 11 3 25 10 23 12 23 24 7 7 -9 13 -26 13 -37z
m-185 13 c-3 -4 -12 -8 -20 -8 -8 0 -14 4 -14 8 0 4 9 8 19 8 11 0 17 -4 15
-8z m439 -5 c-7 -2 -19 -2 -25 0 -7 3 -2 5 12 5 14 0 19 -2 13 -5z m-631 -70
c-10 -4 -8 -8 5 -18 17 -13 17 -15 -3 -34 l-22 -20 -5 25 c-3 20 -2 22 10 13
7 -7 17 -9 21 -5 4 4 -1 12 -11 17 -18 11 -14 30 6 28 8 0 8 -2 -1 -6z m198 0
c0 -5 -5 -15 -11 -23 -9 -13 -10 -13 -5 2 3 10 -1 18 -12 21 -12 3 -11 5 6 6
12 0 22 -2 22 -6z m81 -23 c5 0 9 -4 9 -8 0 -4 -9 -8 -20 -8 -13 0 -19 5 -15
14 3 7 6 19 6 25 1 7 3 4 6 -5 2 -10 9 -18 14 -18z m91 19 c2 7 12 6 28 -2 14
-8 31 -12 38 -9 6 2 12 -4 12 -13 0 -9 5 -13 10 -10 6 3 10 2 10 -4 0 -5 -5
-11 -11 -13 -8 -3 -6 -15 4 -39 l15 -36 -33 -11 c-17 -7 -37 -23 -43 -37 -6
-14 -18 -25 -27 -25 -38 0 -67 106 -42 156 8 16 12 36 9 44 -4 13 -3 13 10 2
10 -8 17 -9 20 -3z m105 -9 c3 -10 2 -11 -4 -4 -4 6 -15 14 -23 17 -11 5 -9 6
4 4 11 -1 21 -9 23 -17z m143 -1 c0 -5 -4 -9 -10 -9 -5 0 -10 7 -10 16 0 8 5
12 10 9 6 -3 10 -10 10 -16z m20 -11 c0 -21 -3 -29 -10 -22 -5 5 -7 19 -4 32
9 31 14 27 14 -10z m75 19 c-21 -16 -11 -41 14 -32 13 5 14 4 3 -6 -10 -11
-15 -10 -27 2 -18 18 -10 49 13 49 13 0 13 -2 -3 -13z m-548 -29 c-3 -8 -6 -5
-6 6 -1 11 2 17 5 13 3 -3 4 -12 1 -19z m440 -20 c-3 -8 -6 -5 -6 6 -1 11 2
17 5 13 3 -3 4 -12 1 -19z m163 12 c0 -5 -4 -10 -10 -10 -5 0 -10 5 -10 10 0
6 5 10 10 10 6 0 10 -4 10 -10z m-570 -74 c0 -3 -4 -8 -10 -11 -5 -3 -10 -1
-10 4 0 6 5 11 10 11 6 0 10 -2 10 -4z m422 -18 c-7 -7 -12 -8 -12 -2 0 14 12
26 19 19 2 -3 -1 -11 -7 -17z m-325 -60 c-3 -7 -5 -2 -5 12 0 14 2 19 5 13 2
-7 2 -19 0 -25z m147 -35 c-8 -35 -20 -48 -29 -33 -6 10 19 60 30 60 3 0 2
-12 -1 -27z m-140 -9 c9 -24 -4 -38 -18 -18 -12 16 -15 15 -42 -2 l-29 -18 24
27 c27 30 56 35 65 11z m51 -32 l7 -24 -21 21 c-12 12 -18 27 -14 37 7 18 15
8 28 -34z m413 -44 c-2 -12 -9 -24 -17 -26 -10 -3 -12 1 -8 17 4 16 1 21 -14
21 -10 0 -19 5 -19 11 0 5 5 7 10 4 6 -3 10 -1 10 5 0 8 6 8 21 0 13 -7 19
-19 17 -32z m-863 6 c0 -5 -8 -10 -17 -12 -11 -2 -18 3 -18 11 0 9 8 14 18 13
9 -2 17 -7 17 -12z m45 2 c0 -11 -19 -15 -25 -6 -3 5 1 10 9 10 9 0 16 -2 16
-4z m40 -46 c0 -40 -3 -48 -15 -44 -18 7 -19 -8 -4 -39 10 -21 10 -22 -5 -2
-8 11 -20 26 -26 33 -8 9 -4 15 15 24 27 12 34 45 13 66 -9 9 -8 12 5 12 14 0
17 -10 17 -50z m684 -76 c9 -24 7 -28 -9 -14 -17 14 -20 30 -6 30 5 0 12 -7
15 -16z m-610 -50 c8 -21 8 -24 -5 -24 -5 0 -7 5 -3 12 5 7 2 9 -9 5 -11 -4
-14 -2 -10 9 7 19 19 18 27 -2z m-104 -4 c0 -10 -79 -34 -87 -27 -2 3 9 8 26
12 17 4 33 11 36 16 8 12 25 12 25 -1z m53 -5 c-3 -9 -8 -14 -10 -11 -3 3 -2
9 2 15 9 16 15 13 8 -4z"/>
</g>
</svg>
