<?xml version="1.0" standalone="no"?>
<!DOCTYPE svg PUBLIC "-//W3C//DTD SVG 20010904//EN"
 "http://www.w3.org/TR/2001/REC-SVG-20010904/DTD/svg10.dtd">
<svg version="1.0" xmlns="http://www.w3.org/2000/svg"
 width="115.000000pt" height="172.000000pt" viewBox="0 0 115.000000 172.000000"
 preserveAspectRatio="xMidYMid meet">

<g transform="translate(0.000000,172.000000) scale(0.100000,-0.100000)"
fill="#000000" stroke="none">
<path d="M0 1205 c0 -283 2 -515 5 -515 3 0 28 12 56 26 48 24 68 26 56 6 -3
-4 -31 -17 -61 -27 -31 -11 -56 -23 -56 -28 0 -4 8 -6 18 -3 56 16 79 16 91 2
16 -19 8 -32 -34 -52 -19 -9 -32 -20 -29 -25 3 -5 10 -7 15 -4 5 4 9 0 9 -7 0
-7 11 3 24 23 24 34 106 97 106 81 0 -5 -11 -19 -25 -32 -14 -13 -23 -25 -20
-28 2 -2 -6 -13 -18 -22 -13 -11 -22 -30 -23 -49 -1 -17 -2 -40 -3 -50 0 -11
-10 -23 -21 -26 -11 -3 -20 -13 -20 -21 0 -8 -6 -14 -13 -14 -7 0 -23 -13 -35
-30 -18 -23 -22 -43 -22 -100 0 -68 1 -70 26 -70 14 0 23 -4 20 -9 -3 -5 1
-11 8 -14 10 -4 19 5 28 24 7 16 20 29 29 29 9 0 21 6 26 13 17 21 55 155 48
167 -4 6 -3 29 0 52 6 34 9 39 19 26 7 -10 17 -13 31 -7 30 11 38 10 61 -9 27
-23 41 -62 22 -62 -14 0 -29 -21 -65 -90 -31 -60 -29 -67 14 -72 42 -5 161 27
128 34 -11 3 -2 3 21 1 22 -3 57 0 77 5 40 11 62 -2 25 -14 -13 -4 -27 -7 -31
-6 -5 1 -6 -2 -2 -7 3 -6 12 -8 20 -4 8 3 15 1 15 -5 0 -14 -25 -22 -65 -22
-19 0 -37 -5 -40 -10 -4 -6 9 -10 32 -10 31 -1 35 -3 21 -11 -10 -5 -18 -17
-18 -26 0 -12 6 -14 33 -8 17 4 45 7 61 7 16 -1 36 4 44 10 11 10 17 9 27 -5
7 -10 24 -17 41 -16 17 1 22 3 12 6 -10 2 -18 9 -18 14 0 5 11 7 25 3 31 -8
58 12 50 37 -4 13 -1 19 8 19 23 0 16 -74 -11 -102 -12 -14 -22 -29 -22 -35 0
-6 -11 -18 -25 -27 -42 -28 -76 -16 -39 15 14 11 13 14 -10 26 -14 8 -26 19
-26 24 0 13 -91 5 -154 -14 -37 -11 -38 -12 -15 -18 22 -7 23 -7 2 -8 -12 -1
-34 -6 -48 -11 -23 -9 -25 -13 -14 -26 12 -14 8 -15 -34 -9 -46 7 -128 -7
-153 -26 -18 -15 -131 -37 -158 -32 -21 4 -26 2 -26 -16 l0 -21 575 0 575 0 0
510 c0 503 0 509 -20 520 -12 6 -35 12 -53 14 -41 3 -105 34 -120 58 -7 10
-16 18 -22 18 -11 1 -85 67 -85 76 0 3 -9 17 -20 31 -11 14 -20 34 -20 44 0
12 -5 16 -14 13 -9 -3 -17 3 -21 16 -8 27 2 40 16 20 6 -8 9 -10 7 -5 -3 6
-10 25 -17 42 -14 35 -31 36 -31 2 0 -33 -24 -16 -35 23 -15 53 -22 55 -41 12
-12 -27 -18 -67 -18 -129 -1 -81 2 -96 29 -150 32 -64 190 -232 262 -278 21
-14 49 -36 62 -50 14 -16 29 -23 39 -20 12 5 14 2 9 -11 -6 -15 -3 -17 13 -13
12 3 29 -3 43 -14 l22 -18 -25 -1 c-20 0 -22 -2 -10 -10 12 -8 11 -10 -8 -10
-12 0 -32 12 -45 26 -53 62 -120 124 -133 124 -12 0 -11 -6 6 -30 12 -16 26
-30 31 -30 6 0 7 -5 4 -11 -4 -6 2 -13 14 -16 12 -3 21 -9 21 -14 0 -5 -1 -9
-2 -9 -9 1 -77 28 -97 39 -20 11 -25 11 -32 0 -6 -11 -14 -8 -36 11 -15 14
-29 28 -31 33 -2 4 -10 7 -18 7 -12 0 -19 19 -15 43 1 4 -12 13 -29 18 -22 8
-30 17 -30 35 0 13 -9 28 -20 34 -17 9 -20 8 -20 -9 0 -53 -27 -69 -32 -18 -2
19 -8 31 -15 30 -7 -2 -13 4 -13 12 0 10 10 15 34 15 29 0 33 3 29 20 -3 10
-11 25 -19 31 -8 6 -14 20 -14 31 0 17 -4 16 -29 -11 -16 -17 -32 -37 -34 -44
-4 -7 -6 -6 -6 4 -1 8 -12 25 -26 37 -22 20 -60 90 -52 98 2 2 20 -11 40 -30
21 -19 38 -28 41 -22 3 7 5 6 5 -2 1 -7 12 0 25 15 19 22 22 31 13 42 -6 7
-12 27 -12 45 -5 124 -4 119 -22 105 -15 -12 -16 -12 -8 1 4 8 16 24 27 36 10
12 28 45 39 75 l19 54 -29 -34 c-16 -18 -51 -73 -77 -122 -26 -49 -49 -87 -51
-85 -6 6 44 102 78 153 34 50 37 63 7 37 l-21 -19 18 28 c11 17 21 24 25 17 4
-6 19 10 37 38 35 56 24 63 -38 25 -20 -13 -40 -23 -45 -23 -12 0 89 100 101
100 6 0 16 -13 23 -29 12 -27 17 -30 57 -28 28 1 47 -3 50 -10 7 -21 43 -15
60 9 15 22 14 23 -16 31 -30 8 -31 10 -25 48 6 38 5 40 -15 34 -19 -6 -16 0
16 39 l37 46 -353 0 c-346 0 -354 0 -367 -20 -7 -12 -11 -24 -8 -28 3 -5 1
-14 -5 -22 -13 -22 -12 26 1 51 10 18 7 19 -50 19 l-60 0 0 -515z m540 261 c0
-2 -8 -10 -17 -17 -16 -13 -17 -12 -4 4 13 16 21 21 21 13z m-155 -66 c3 -5 1
-10 -4 -10 -6 0 -11 5 -11 10 0 6 2 10 4 10 3 0 8 -4 11 -10z m27 -41 c-24
-17 -45 -29 -48 -27 -5 6 67 58 80 58 6 0 -9 -14 -32 -31z m131 4 c-39 -60
-85 -128 -90 -133 -14 -13 38 80 66 118 35 47 52 58 24 15z m-58 -41 c-8 -8
-25 10 -19 20 4 6 9 5 15 -3 4 -7 6 -15 4 -17z m-55 -352 c0 -9 -21 -15 -42
-11 -5 0 -8 -3 -8 -9 0 -5 11 -10 25 -10 34 0 32 -20 -2 -21 l-28 -2 28 -4
c15 -2 27 -8 27 -13 0 -8 -68 -19 -75 -11 -3 2 -5 24 -5 48 l0 43 40 0 c22 0
40 -4 40 -10z m50 -25 c0 -31 3 -35 25 -35 14 0 25 -4 25 -10 0 -5 -18 -10
-40 -10 l-40 0 0 45 c0 33 4 45 15 45 10 0 15 -11 15 -35z m100 -10 c0 -33 -4
-45 -15 -45 -11 0 -15 12 -15 45 0 33 4 45 15 45 11 0 15 -12 15 -45z m116
-104 c-9 -14 -33 -14 -41 -1 -4 6 -1 18 6 26 11 13 14 13 27 0 8 -8 11 -19 8
-25z m-311 9 c0 -8 -8 -16 -17 -18 -13 -2 -18 3 -18 18 0 15 5 20 18 18 9 -2
17 -10 17 -18z m47 2 c4 -12 -1 -18 -13 -18 -22 0 -21 -1 -13 20 8 21 21 20
26 -2z m58 -2 c0 -9 -8 -16 -20 -16 -12 0 -20 7 -20 18 0 11 7 16 20 15 11 -1
20 -8 20 -17z m43 13 c-7 -2 -13 -9 -13 -14 0 -4 7 -5 17 -2 11 4 14 3 9 -5
-10 -16 -33 -15 -39 2 -7 17 1 26 22 25 10 0 12 -2 4 -6z m54 -13 c-2 -24 -21
-21 -25 3 -2 10 3 17 12 17 9 0 14 -8 13 -20z m50 0 c-1 -11 -7 -20 -14 -20
-7 0 -13 9 -13 20 0 11 6 20 14 20 9 0 14 -9 13 -20z m94 5 c7 19 8 19 8 -2 1
-14 -5 -23 -14 -23 -9 0 -15 9 -14 23 1 20 2 20 7 2 l5 -20 8 20z m-21 -60 c0
-7 16 -34 35 -59 20 -27 30 -48 24 -52 -13 -8 -11 -10 -48 63 -33 67 -37 78
-21 68 6 -3 10 -12 10 -20z m-333 -32 c4 -10 9 -20 12 -23 4 -3 -5 -17 -19
-32 -23 -24 -27 -25 -45 -12 -17 13 -18 16 -5 24 13 8 12 10 -3 10 -16 0 -16
2 -1 25 19 29 52 33 61 8z m518 -13 c3 -6 -1 -7 -9 -4 -18 7 -21 14 -7 14 6 0
13 -4 16 -10z m-705 -20 c0 -5 -2 -10 -4 -10 -3 0 -8 5 -11 10 -3 6 -1 10 4
10 6 0 11 -4 11 -10z m55 -140 c-10 -20 -22 -30 -33 -28 -9 3 -16 10 -14 16 1
7 3 18 5 25 1 6 9 18 18 24 9 7 20 25 25 40 8 28 8 27 12 -9 2 -21 -4 -50 -13
-68z m202 81 c-2 -10 0 -26 5 -35 16 -29 -7 -17 -25 13 -22 37 -21 41 4 41 16
0 20 -5 16 -19z m611 -38 c2 -8 -5 -13 -17 -13 -12 0 -21 -6 -21 -15 0 -8 -7
-15 -15 -15 -20 0 -19 19 3 41 19 20 43 21 50 2z m-888 -78 c0 -15 -43 -12
-48 3 -3 10 4 13 22 10 15 -2 26 -7 26 -13z m400 -5 c0 -5 -4 -10 -10 -10 -5
0 -10 5 -10 10 0 6 5 10 10 10 6 0 10 -4 10 -10z m397 -6 c-3 -3 -12 -4 -19
-1 -8 3 -5 6 6 6 11 1 17 -2 13 -5z m-97 -24 c0 -5 -8 -10 -19 -10 -10 0 -34
-2 -52 -5 l-34 -5 30 14 c35 17 75 20 75 6z m-700 -16 c0 -17 -22 -14 -28 4
-2 7 3 12 12 12 9 0 16 -7 16 -16z m510 -4 c0 -5 -9 -10 -20 -10 -11 0 -20 5
-20 10 0 6 9 10 20 10 11 0 20 -4 20 -10z m73 3 c-7 -2 -19 -2 -25 0 -7 3 -2
5 12 5 14 0 19 -2 13 -5z m-305 -39 c34 -22 28 -44 -12 -44 -44 0 -66 9 -66
26 0 8 -5 14 -10 14 -6 0 -5 6 2 14 14 16 50 12 86 -10z m578 -50 c-3 -9 -6
-18 -6 -20 0 -3 -6 1 -14 8 -10 9 -11 15 -2 20 19 13 28 9 22 -8z m-96 -10 c0
-8 -4 -13 -9 -9 -5 3 -13 0 -17 -6 -3 -6 0 -15 7 -20 10 -6 8 -8 -8 -6 -22 1
-21 9 5 40 19 21 22 21 22 1z m-272 -76 c3 -15 -4 -18 -47 -18 -28 0 -51 2
-51 5 0 2 12 11 28 19 34 19 66 16 70 -6z m72 12 c0 -5 7 -7 15 -4 8 4 15 1
15 -5 0 -7 10 -15 22 -20 l23 -8 -24 -8 c-13 -4 -28 -2 -34 4 -6 6 -20 11 -31
11 -17 0 -18 2 -6 10 12 8 9 10 -12 10 -16 0 -28 5 -28 10 0 6 14 10 30 10 17
0 30 -4 30 -10z m300 -20 c0 -5 -7 -10 -16 -10 -8 0 -12 5 -9 10 3 6 10 10 16
10 5 0 9 -4 9 -10z m-426 -50 c-23 -15 -40 -18 -63 -14 -20 4 -28 10 -21 14 7
4 20 6 29 3 9 -2 27 0 41 6 41 16 47 12 14 -9z m86 2 c0 -4 -9 -8 -20 -8 -11
0 -20 4 -20 8 0 4 9 8 20 8 11 0 20 -4 20 -8z m100 -56 c0 -2 -3 -11 -6 -20
-9 -23 -24 -20 -24 4 0 11 7 20 15 20 8 0 15 -2 15 -4z m-300 -50 c0 -2 -7 -6
-15 -10 -8 -3 -15 -1 -15 4 0 6 7 10 15 10 8 0 15 -2 15 -4z m144 -75 c3 -5
-1 -14 -9 -21 -8 -7 -13 -16 -10 -20 6 -9 -20 -21 -28 -14 -6 7 25 64 35 64 4
0 9 -4 12 -9z"/>
<path d="M665 840 c3 -5 8 -10 11 -10 2 0 4 5 4 10 0 6 -5 10 -11 10 -5 0 -7
-4 -4 -10z"/>
<path d="M870 1698 c0 -18 2 -20 10 -8 5 8 10 12 12 10 30 -47 51 -101 25 -66
-12 16 -14 17 -27 1 -11 -14 -10 -20 7 -43 11 -15 28 -27 38 -27 10 0 20 -6
23 -14 3 -8 0 -11 -7 -7 -22 14 1 -23 25 -39 20 -13 24 -13 24 -1 0 7 -7 17
-16 20 -8 3 -12 11 -9 16 4 6 1 19 -6 28 -13 16 -12 16 6 0 11 -9 25 -17 30
-17 6 0 11 -12 13 -27 2 -16 14 -32 33 -42 18 -10 32 -28 36 -44 4 -20 12 -28
27 -29 11 0 15 -3 9 -6 -10 -3 -10 -8 1 -19 8 -8 17 -14 19 -14 11 0 7 154 -5
168 -10 12 -10 14 0 8 9 -5 12 14 12 83 l0 91 -140 0 c-139 0 -140 0 -140 -22z"/>
<path d="M841 1604 c0 -11 3 -14 6 -6 3 7 2 16 -1 19 -3 4 -6 -2 -5 -13z"/>
<path d="M990 1472 c0 -5 5 -13 12 -20 16 -16 29 -15 22 2 -6 16 -34 30 -34
18z"/>
<path d="M935 1390 c3 -5 -3 -10 -14 -10 -27 0 -26 -11 3 -39 13 -13 26 -32
29 -43 5 -19 5 -19 -14 -2 -16 14 -19 15 -19 2 0 -21 22 -37 45 -34 11 2 30
-4 43 -12 26 -17 41 -10 24 11 -7 8 -9 17 -4 21 4 4 -1 12 -11 17 -9 6 -17 19
-17 30 0 12 -5 19 -12 17 -17 -6 -47 22 -41 38 3 8 0 14 -7 14 -6 0 -8 -4 -5
-10z"/>
<path d="M1060 1349 c0 -6 -7 -8 -16 -5 -8 3 -13 2 -9 -3 3 -5 -1 -12 -7 -14
-10 -4 -10 -6 0 -6 6 -1 12 -7 12 -15 0 -18 23 -37 47 -39 23 -1 57 -43 43
-52 -6 -3 -13 1 -17 11 -5 14 -8 13 -19 -7 -19 -34 -17 -49 6 -49 11 0 19 -3
19 -7 -3 -19 2 -31 15 -36 13 -5 15 11 15 99 0 91 -2 104 -17 105 -14 0 -14 2
2 8 17 6 17 8 3 14 -14 5 -40 -13 -34 -24 1 -3 -5 3 -15 13 -19 21 -28 23 -28
7z"/>
<path d="M940 1240 c0 -5 5 -10 10 -10 6 0 10 5 10 10 0 6 -4 10 -10 10 -5 0
-10 -4 -10 -10z"/>
<path d="M738 913 c7 -3 16 -2 19 1 4 3 -2 6 -13 5 -11 0 -14 -3 -6 -6z"/>
<path d="M887 809 c7 -7 15 -10 18 -7 3 3 -2 9 -12 12 -14 6 -15 5 -6 -5z"/>
<path d="M226 261 c-9 -14 24 -22 45 -11 28 15 23 5 -6 -14 -23 -15 -27 -15
-41 -1 -13 12 -19 13 -37 3 -22 -12 -21 -12 8 -19 20 -4 23 -7 10 -8 -11 -1
-28 -8 -38 -15 -15 -12 -10 -14 40 -20 55 -5 167 4 178 16 3 3 -14 11 -38 18
-38 12 -43 16 -39 37 4 21 1 23 -36 23 -23 0 -43 -4 -46 -9z"/>
<path d="M618 173 c6 -2 18 -2 25 0 6 3 1 5 -13 5 -14 0 -19 -2 -12 -5z"/>
<path d="M0 118 c0 -32 4 -47 11 -43 6 4 8 9 5 12 -9 10 37 39 82 52 57 16 46
25 -34 27 l-64 1 0 -49z"/>
<path d="M180 151 c-8 -6 -18 -7 -23 -4 -5 3 -8 0 -6 -6 5 -13 10 -14 47 -4
12 3 22 9 22 14 0 12 -21 11 -40 0z"/>
<path d="M250 140 c0 -5 -7 -10 -15 -10 -8 0 -15 -5 -15 -10 0 -11 14 -5 50
20 13 8 13 10 -2 10 -10 0 -18 -4 -18 -10z"/>
<path d="M60 110 c0 -5 4 -10 9 -10 6 0 13 5 16 10 3 6 -1 10 -9 10 -9 0 -16
-4 -16 -10z"/>
</g>
</svg>
